<svg width="117" height="24" viewBox="0 0 117 24" fill="none" xmlns="http://www.w3.org/2000/svg">
<g clip-path="url(#clip0)">
<path d="M13.8392 21.4939H8.55231C6.88627 21.4939 7.04177 20.0941 6.86406 18.9201V11.2437C6.86406 11.2437 8.01918 11.1985 9.32979 11.1985C10.7737 11.1985 12.6174 10.9728 14.3723 11.9888C13.4616 10.0245 11.4845 8.80531 9.32979 8.87304H6.90849V6.41208C6.90849 6.41208 6.90849 4.26721 6.37536 3.65761H9.86292C12.8618 3.65761 15.1942 3.61246 17.6155 5.23805C17.6155 5.23805 17.149 1.19666 11.3512 1.19666H0C0 1.19666 1.97703 2.91255 1.91039 6.38951L1.97703 20.365C1.97703 23.8646 3.35428 23.9775 3.35428 23.9775H14.5278C17.0602 23.9775 17.9487 22.1487 17.9487 21.1553L17.9932 19.8232C17.9709 19.8006 17.1713 21.4939 13.8392 21.4939Z" fill="#2F2C2C"/>
<path d="M43.5828 20.2973V10.5212C43.5828 6.72815 40.5617 5.71216 38.2515 5.71216C35.2526 5.71216 34.3419 8.26343 33.942 9.14396C33.2756 6.77331 30.9209 5.71216 29.0106 5.71216C25.3897 5.71216 24.4567 9.21169 24.4567 9.21169C24.4567 9.21169 24.3901 5.80247 21.4579 5.80247H18.6367C18.6367 5.80247 20.3028 6.4798 20.3028 9.41489V20.2747C20.3028 23.8646 21.7022 23.9323 21.7022 23.9323H26.4338C25.3009 23.0743 24.6344 21.7197 24.6344 20.2521V10.6341C24.7011 10.2051 25.4119 8.78271 27.4112 8.78271C28.5663 8.78271 29.8325 10.0019 29.8103 11.3566V20.3199C29.8103 23.9323 31.2097 23.9774 31.2097 23.9774H35.9413C34.8084 23.0743 34.1419 21.7648 34.1419 20.2973V10.6341C34.6084 9.23427 36.0745 8.44405 37.4962 8.91818C38.5625 9.27942 39.2955 10.2503 39.3178 11.3791C39.3178 11.3791 39.3178 19.5522 39.3178 20.2973C39.3622 23.9549 40.7172 23.9097 40.7172 23.9097C43.183 23.9097 45.4488 23.9097 45.4488 23.9097C44.2936 23.0743 43.6272 21.7423 43.5828 20.2973Z" fill="#2F2C2C"/>
<path d="M51.8258 20.2973C51.8258 21.7197 52.4923 23.0969 53.6252 23.9549C53.6252 23.9549 51.3594 23.9549 48.8936 23.9549C48.8936 23.9549 47.4497 24 47.4497 20.3425V9.41491C47.4497 6.54755 45.8281 5.80249 45.8281 5.80249H48.6715C49.6933 5.80249 51.7814 5.80249 51.7814 9.84388V20.2296L51.8258 20.2973Z" fill="#2F2C2C"/>
<path d="M66.3521 7.20219C66.3521 7.20219 65.8857 5.91527 63.9531 5.91527C60.9986 5.91527 60.2878 9.50511 60.2878 9.50511C60.0434 6.68291 59.3104 5.84753 57.2223 5.84753H54.3789C54.3789 5.84753 56.0449 6.52486 56.0449 9.45995V20.3198C56.0449 23.9096 57.4444 23.9774 57.4444 23.9774H62.176C61.043 23.1194 60.3766 21.7648 60.3766 20.3198V11.379C60.4877 10.634 60.9098 9.95666 61.5318 9.55026C63.1089 8.46654 65.197 8.8052 66.4188 10.2727L66.3521 7.20219Z" fill="#2F2C2C"/>
<path d="M88.3008 7.83447C89.2783 7.83447 90.2334 8.08282 91.0776 8.55695V5.84764H87.1235V1.69336C86.2794 3.04802 85.1909 4.26721 83.9469 5.30578C82.6141 6.41208 79.793 7.81189 79.793 7.81189L82.7918 7.85705V20.4554C82.7918 23.9549 84.2357 23.9549 84.2357 23.9549C86.8125 23.9549 88.9228 23.9549 88.9228 23.9549C87.7899 23.1421 87.1235 21.81 87.1013 20.4102V7.83447C88.3675 7.83447 87.5234 7.83447 88.3008 7.83447Z" fill="#2F2C2C"/>
<path d="M102.608 13.3208C99.9644 16.1204 97.8763 15.6914 96.2325 17.7686C96.2325 17.7686 96.5213 20.5682 98.5871 21.539C99.298 21.8551 102.208 22.9388 104.074 19.6425V22.5776C104.074 22.5776 102.874 24 99.0314 24C94.4109 24 91.2344 20.3198 91.2344 15.3076C91.2344 10.3631 93.8112 5.825 98.6982 5.77984C103.496 5.68953 106.095 9.64061 102.608 13.3208ZM99.72 12.1693C100.498 10.7018 101.12 6.97645 98.4539 7.20223C95.3661 7.45058 95.9659 15.8043 95.9659 15.8043C96.9877 14.6528 98.5205 14.4045 99.72 12.1693Z" fill="#2F2C2C"/>
<path d="M49.6496 4.38006C50.8492 4.33491 51.7599 3.34149 51.7599 2.16746C51.7155 0.948265 50.7381 0.022583 49.583 0.022583C48.4278 0.0677382 47.4727 1.016 47.4727 2.21261C47.4727 3.40922 48.4501 4.38006 49.6496 4.38006Z" fill="#2F2C2C"/>
<path d="M71.2615 21.8778C70.1952 21.8778 69.44 20.7263 69.44 19.5749C69.44 15.0593 73.0608 14.4272 74.0604 13.2305V20.8618C73.5717 21.2456 73.1497 21.8778 71.2615 21.8778ZM74.0382 11.4921C72.9498 13.4337 64.4197 13.8627 65.7303 20.5457C66.2634 23.1873 67.9961 23.9775 70.173 23.9775C72.2833 23.9775 73.594 22.8712 74.1271 21.7875C74.4381 23.7969 75.4599 23.9323 75.4599 23.9323C77.9256 23.9323 80.1915 23.9323 80.1915 23.9323C79.0585 23.0744 78.3699 21.7423 78.3699 20.3199V10.1374C78.3699 7.69903 75.7265 5.80251 72.9053 5.80251C71.3282 5.75736 69.7954 6.23149 68.507 7.13459V10.2955C68.507 10.2955 69.4844 7.78934 71.9279 7.78934C74.327 7.78934 74.5047 9.00853 74.5047 9.61813C74.4825 10.2503 74.3937 10.9276 74.0382 11.4921Z" fill="#2F2C2C"/>
<path d="M113.045 19.0104C113.09 20.2973 111.957 21.9906 109.558 21.9906C107.092 21.9906 106.115 19.4394 106.115 19.4394V22.6679C107.447 23.5259 109.002 23.9549 110.58 23.9549C113.778 23.9549 117.066 21.4939 116.999 18.017C116.955 16.8655 116.577 15.7592 115.911 14.8561C114.822 13.3886 112.845 12.35 111.29 11.3791C110.402 10.8373 109.958 9.84387 109.958 9.52778C109.913 8.91818 110.246 7.69899 112.601 7.69899C114.933 7.69899 115.955 10.2051 115.955 10.2051V7.15713C114.645 6.23145 113.067 5.73474 111.446 5.73474C108.625 5.73474 106.048 7.63126 106.115 10.0696C106.159 12.2145 107.025 13.5692 108.758 14.9013C109.535 15.4657 110.335 15.985 111.179 16.4365C112.512 17.1816 113.001 18.1298 113.045 19.0104Z" fill="#2F2C2C"/>
</g>
<defs>
<clipPath id="clip0">
<rect width="117" height="24" fill="white"/>
</clipPath>
</defs>
</svg>
