<svg width="162" height="27" viewBox="0 0 162 27" fill="none" xmlns="http://www.w3.org/2000/svg">
<path d="M19.2727 10.8155C19.1721 10.8155 19.0716 10.8155 19.0313 10.8155C18.971 10.9132 18.8905 11.0501 18.7497 11.2457C20.741 11.2457 22.5512 11.4021 24.5424 11.7541L23.9793 12.282C22.169 11.9692 20.6806 11.8518 18.7699 11.8518C18.4883 11.8518 18.4279 11.8518 18.3676 11.8518C18.3072 11.9496 18.1463 12.1452 18.0055 12.3212C18.1664 12.3016 18.5084 12.3016 18.9509 12.3016C20.5197 12.3016 21.988 12.4189 23.577 12.6536L23.0138 13.1816C21.807 13.0056 20.3186 12.8882 18.9911 12.8882C18.5285 12.8882 17.9854 12.9078 17.5027 12.9273C17.4021 13.0447 17.1205 13.338 17.02 13.4358C17.6636 13.3771 18.3475 13.338 19.1922 13.338C20.3789 13.338 21.5053 13.4162 22.5914 13.5726L22.0282 14.1006C21.2639 14.0028 20.3387 13.9637 19.5141 13.9637C17.4021 13.9637 15.7327 14.4135 14.0231 15.4303C15.6724 17.1511 18.3475 18.2266 20.9622 18.2266H21.2036L20.2985 19.087C16.5373 18.4026 12.595 16.7991 9.25614 14.5895C6.03797 12.4776 4.91161 11.8518 2.41753 10.7763L2.39742 10.1506L4.08696 10.8546L4.67025 10.4048L10.2015 12.8687L9.83944 13.1424L7.00343 11.9496L6.72183 12.1647L8.19013 12.9665C9.43717 13.6509 10.3825 13.9442 11.2675 13.9442C13.1783 13.9442 14.9081 12.6145 16.0143 10.2875C16.8591 10.1897 17.7441 10.131 18.8101 10.131C21.0025 10.131 23.1345 10.3266 25.5682 10.7763L24.9849 11.3239C23.4563 11.0697 20.9019 10.8155 19.2727 10.8155ZM13.8823 26.1853C6.68161 26.1853 0.828563 20.495 0.828563 13.4944C0.828563 6.4939 6.68161 0.803532 13.8823 0.803532C21.0829 0.803532 26.936 6.4939 26.936 13.4944C26.936 20.495 21.0829 26.1853 13.8823 26.1853ZM13.8823 0.00179482C6.19888 0.00179482 0.00390625 6.04415 0.00390625 13.4944C0.00390625 20.9447 6.219 26.9871 13.8823 26.9871C21.5656 26.9871 27.7606 20.9447 27.7606 13.4944C27.7606 6.04415 21.5656 0.00179482 13.8823 0.00179482ZM50.5694 18.8719H58.5344V22.4895H46.2852V4.49934H50.5694V18.8719ZM68.1486 9.54441H72.1512V22.4895H68.39V21.0034C67.8268 22.0007 66.7005 22.8806 64.6087 22.8806C61.1893 22.8806 59.4193 21.3945 59.4193 17.112V9.52486H63.422V16.936C63.422 18.6764 64.1863 19.439 65.7953 19.439C67.2435 19.439 68.1486 18.6764 68.1486 16.936V9.54441ZM75.2085 9.05555C75.2085 5.92682 77.24 4.24513 80.438 4.24513C81.4638 4.24513 82.1276 4.40157 82.1276 4.40157V7.53029C82.1276 7.53029 81.5644 7.47163 81.1018 7.47163C79.8547 7.47163 79.191 7.88227 79.191 9.01644V9.52486H82.1276V12.6927H79.2111V22.4895H75.2085V12.6927H73.1971V9.52486H75.2085V9.05555ZM89.1874 9.54441H92.2246V12.7122H89.1874V17.7378C89.1874 19.1261 89.9316 19.4781 91.0982 19.4781C91.5809 19.4781 92.2447 19.3999 92.2447 19.3999V22.5286C92.2447 22.5286 91.3195 22.7437 90.3339 22.7437C87.1358 22.7437 85.2049 21.3358 85.2049 18.1875V12.7122H83.1936V9.54441H85.2049V5.75083H89.2075V9.54441H89.1874ZM101.075 9.15332C104.454 9.15332 106.224 10.6395 106.224 14.9219V22.4895H102.221V15.0783C102.221 13.3575 101.457 12.5754 99.7873 12.5754C98.2787 12.5754 97.3736 13.338 97.3736 15.0783V22.4895H93.371V4.51889H97.3937V10.7959C98.0977 9.85728 99.1839 9.15332 101.075 9.15332ZM116.401 17.464C116.401 18.8719 115.033 19.9279 112.901 19.9279C111.876 19.9279 111.252 19.4586 111.252 18.5982C111.252 17.9333 111.674 17.3662 113.022 17.1902L115.315 16.8774C115.717 16.8187 116.14 16.7405 116.381 16.6623V17.464H116.401ZM114.189 9.15332C110.246 9.15332 108.336 10.6199 108.195 13.3771H112.077C112.137 12.6536 112.559 12.1256 114.189 12.1256C115.637 12.1256 116.341 12.5949 116.341 13.2793C116.341 13.9051 115.938 14.1202 114.973 14.2375L112.439 14.4917C108.999 14.8437 107.43 16.2321 107.43 18.7546C107.43 21.1011 108.919 22.9002 112.057 22.9002C114.209 22.9002 115.476 22.2353 116.582 20.886V22.5091H120.223V14.0028C120.223 10.4048 118.07 9.15332 114.189 9.15332ZM129.455 9.15332C132.914 9.15332 134.684 10.6395 134.684 14.9219V22.4895H130.682V15.0783C130.682 13.3575 129.917 12.5754 128.248 12.5754C126.739 12.5754 125.834 13.338 125.834 15.0783V22.4895H121.832V9.52486H125.593V11.0306C126.176 10.0333 127.303 9.15332 129.455 9.15332ZM143.112 14.3744C146.491 14.8046 148.18 15.841 148.18 18.5395C148.18 21.2576 146.189 22.8806 141.986 22.8806C137.42 22.8806 135.791 21.1011 135.71 18.5004H139.652C139.753 19.4586 140.437 19.9083 141.986 19.9083C143.554 19.9083 144.178 19.5563 144.178 18.8328C144.178 18.168 143.655 17.8551 142.267 17.6791L140.859 17.5031C137.923 17.112 136.233 16.017 136.233 13.4358C136.233 10.9719 138.104 9.13377 142.046 9.13377C145.686 9.13377 147.658 10.5417 147.839 13.3575H143.957C143.816 12.6145 143.393 12.1452 142.046 12.1452C140.718 12.1452 140.215 12.5754 140.215 13.1424C140.215 13.7095 140.537 14.0224 141.664 14.1788L143.112 14.3744ZM158.177 17.464C158.177 18.8719 156.809 19.9279 154.677 19.9279C153.651 19.9279 153.028 19.4586 153.028 18.5982C153.028 17.9333 153.45 17.3662 154.798 17.1902L157.091 16.8774C157.493 16.8187 157.915 16.7405 158.157 16.6623V17.464H158.177ZM155.964 9.15332C152.022 9.15332 150.111 10.6199 149.971 13.3771H153.853C153.913 12.6536 154.335 12.1256 155.964 12.1256C157.413 12.1256 158.117 12.5949 158.117 13.2793C158.117 13.9051 157.714 14.1202 156.749 14.2375L154.215 14.4917C150.775 14.8437 149.206 16.2321 149.206 18.7546C149.206 21.1011 150.695 22.9002 153.832 22.9002C155.985 22.9002 157.252 22.2353 158.358 20.886V22.5091H161.998V14.0028C161.998 10.4048 159.846 9.15332 155.964 9.15332Z" fill="#2F2C2C"/>
</svg>
