<svg width="74" height="43" viewBox="0 0 74 43" fill="none" xmlns="http://www.w3.org/2000/svg">
<g clip-path="url(#clip0)">
<path d="M22.1792 -1.47078C24.5261 -2.04129 27.0844 -0.0973102 27.0421 2.33267C27.2112 4.46682 25.3507 6.45306 23.2364 6.49532C21.3335 6.66436 19.473 5.26977 19.0924 3.41031C18.5004 1.29728 20.0438 -1.0693 22.1792 -1.47078Z" fill="#2F2C2C"/>
<path d="M31.4836 -1.47078C33.8305 -2.02017 36.3888 -0.0761895 36.3253 2.35379C36.5156 4.5302 34.5282 6.5587 32.3505 6.51644C30.4265 6.60096 28.6293 5.10072 28.3333 3.199C27.9105 1.12823 29.4116 -1.09044 31.4836 -1.47078Z" fill="#2F2C2C"/>
<path d="M40.7846 -1.47076C43.0469 -1.99902 45.5206 -0.202951 45.6052 2.1425C45.7955 3.72727 44.8652 5.33317 43.4698 6.05159C41.9898 6.85454 40.0235 6.55872 38.7972 5.39656C37.4441 4.12874 37.1481 1.88894 38.1841 0.325305C38.7549 -0.583295 39.7063 -1.25946 40.7846 -1.47076Z" fill="#2F2C2C"/>
<path d="M50.1092 -1.47083C52.1389 -1.93569 54.3377 -0.5411 54.8029 1.4874C55.2046 3.05104 54.5914 4.80484 53.2806 5.7557C52.0543 6.6643 50.2994 6.79109 48.9674 6.0304C47.5086 5.26971 46.6417 3.55816 46.8954 1.95227C47.0857 0.282978 48.4389 -1.17501 50.1092 -1.47083Z" fill="#2F2C2C"/>
<path d="M22.9407 12.3696C22.8773 10.7637 22.8984 9.13666 22.9196 7.53076C32.2224 7.55189 41.5041 7.53076 50.807 7.53076C50.807 9.13666 50.807 10.7426 50.807 12.3485C41.5253 12.3485 32.2224 12.3273 22.9407 12.3696Z" fill="#2F2C2C"/>
<path d="M0 16.4688C2.34686 16.4688 4.69371 16.4688 7.04057 16.4688C7.04057 18.7086 7.04057 20.9484 7.04057 23.2093C9.36629 20.9906 11.6497 18.7086 13.9754 16.4688C16.3434 16.4688 18.7114 16.4688 21.0794 16.4688C18.352 19.2368 15.54 21.9415 12.8549 24.7307C16.2589 28.027 19.5571 31.4712 23.0034 34.7253C23.0246 28.6398 23.0034 22.5543 23.0246 16.4688C25.4137 16.4688 27.824 16.4688 30.2131 16.4688C30.2131 21.0751 30.2131 25.7027 30.2131 30.309C34.04 30.2879 37.888 30.3302 41.7149 30.2879C41.7783 31.8515 41.7149 33.4152 41.736 34.9788C32.412 34.9788 23.1091 34.9788 13.7851 34.9788C11.5863 32.739 9.34514 30.5415 7.12514 28.3228C7.08286 30.5415 7.12514 32.7601 7.104 34.9788C4.736 34.9577 2.368 34.9788 0 34.9577V16.4688H0Z" fill="#2F2C2C"/>
<path d="M43.6829 16.4689C47.5521 16.4478 51.4212 16.49 55.2692 16.4478C56.4955 19.7652 57.5526 23.1249 58.7155 26.4846C58.8212 26.3367 58.9481 26.2099 58.9903 26.0409C60.0898 22.8502 61.2103 19.6807 62.3309 16.49C66.2212 16.49 70.1115 16.49 73.9806 16.49V35.0212C71.5915 35.0423 69.2235 35.0423 66.8343 35.0423C66.8343 30.774 66.8555 26.5057 66.8132 22.2374C66.4749 22.4276 66.4538 22.8502 66.3058 23.1672C64.9315 27.1396 63.5149 31.0699 62.1195 35.0423C59.8783 35.0423 57.6372 35.0635 55.4172 35.0212C54.0218 30.9642 52.5629 26.9283 51.1463 22.8925C51.1041 22.66 50.9772 22.5121 50.7658 22.4065C50.7658 26.6114 50.7658 30.8374 50.7658 35.0423C48.3978 35.0423 46.0086 35.0423 43.6406 35.0423C43.6829 28.8301 43.6829 22.6389 43.6829 16.4689Z" fill="#2F2C2C"/>
</g>
<defs>
<clipPath id="clip0">
<rect width="74" height="43" fill="white"/>
</clipPath>
</defs>
</svg>
