<svg width="136" height="38" viewBox="0 0 136 38" fill="none" xmlns="http://www.w3.org/2000/svg">
<path d="M24.8468 33.7828C24.5521 33.7828 24.28 33.7828 23.9853 33.7828C23.6906 33.7828 23.2825 33.7828 22.9878 33.7828L23.9853 31.5291L24.8468 33.7828ZM25.9803 36.3042C26.1163 36.3042 26.411 36.3042 26.6831 36.3042C26.9778 36.3042 27.2499 36.3042 27.3859 36.3042C26.9551 35.4563 26.3884 34.0505 25.9576 33.2249C25.6629 32.377 25.0962 31.1275 24.6654 29.8556C24.5294 29.8556 24.5294 29.8556 24.3707 29.8556C24.212 29.8556 24.2347 29.8556 24.076 29.8556C23.7813 30.5473 23.3732 31.8192 22.3757 33.9167L21.2422 36.3042C21.3782 36.3042 21.5369 36.3042 21.6729 36.3042C21.8089 36.3042 21.9676 36.3042 22.1037 36.3042C22.2397 35.7464 22.5344 35.0323 22.8064 34.3406C23.2372 34.3406 23.5092 34.3406 23.94 34.3406C24.3707 34.3406 24.8014 34.3406 25.0735 34.3406L25.5042 35.3224L25.9803 36.3042Z" fill="#2F2C2C"/>
<path d="M28.1126 32.087C28.1126 33.6266 28.1126 35.1662 27.9766 36.3042C28.1126 36.3042 28.4073 36.3042 28.6794 36.3042C28.9741 36.3042 29.1101 36.3042 29.3821 36.3042C29.2461 35.6125 29.2461 34.6307 29.2461 33.225C29.2461 32.2432 29.2461 30.7035 29.3821 29.9895C29.0874 29.9895 28.9514 29.9895 28.6794 29.9895C28.5433 29.9895 28.2486 29.9895 27.9766 29.9895C28.1126 30.8374 28.1126 31.5291 28.1126 32.087Z" fill="#2F2C2C"/>
<path d="M33.8245 33.2249C34.686 33.091 35.3888 32.5332 35.3888 31.5514C35.3888 31.1274 35.2528 30.8597 34.958 30.5696C34.5273 30.1456 34.0966 30.1456 33.5298 30.1456C33.2351 30.1456 32.2376 30.1456 31.9656 30.1456C31.5348 30.1456 31.2628 30.1456 30.9681 30.1456C30.9681 31.2613 30.9681 31.4175 30.9681 32.6671C30.9681 34.4968 30.9681 34.6307 30.832 36.4604C30.9681 36.4604 31.2628 36.4604 31.5348 36.4604C31.8295 36.4604 31.9656 36.4604 32.1016 36.4604C32.1016 36.1703 32.1016 35.0546 32.1016 34.7868V33.515H32.3963C32.9631 34.2067 33.5298 35.0546 33.9606 35.7686C34.0966 36.0587 34.2553 36.3265 34.3913 36.4604C34.686 36.4604 34.822 36.4604 35.0941 36.4604C35.3888 36.4604 35.6608 36.4604 35.9556 36.4604C35.3888 35.7686 35.0941 35.3447 34.3913 34.3629C34.2553 34.229 34.0966 33.8051 33.9606 33.6712L33.8245 33.2249ZM32.2603 30.4134C32.3963 30.4134 32.691 30.4134 32.9631 30.4134C33.2578 30.4134 33.5298 30.4134 33.8245 30.7035C34.1192 30.9935 34.2553 31.2613 34.2553 31.6853C34.2553 32.2431 33.9606 32.9571 32.9631 32.9571C32.6683 32.9571 32.5323 32.9571 32.2603 32.9571V30.4134Z" fill="#2F2C2C"/>
<path d="M38.6509 34.2067C38.2202 32.9349 37.6534 31.1275 37.3587 29.9895C37.064 29.9895 36.928 29.9895 36.6559 29.9895C36.3612 29.9895 36.0891 29.9895 35.9531 29.9895C36.3839 30.9713 36.6559 31.8192 36.9506 32.5109C37.3814 33.7828 37.6534 34.4745 37.9481 35.5902L38.2428 36.2819C38.3789 36.2819 38.5376 36.2819 38.6736 36.2819C38.8096 36.2819 38.8096 36.2819 38.9683 36.2819C39.1043 35.8579 39.263 35.1662 39.399 34.8761C39.8298 33.7605 39.8298 33.6043 40.2605 32.3547L40.5552 31.663C40.6912 31.9531 40.8499 32.3547 40.986 32.7787C41.122 33.0687 41.5527 34.4522 41.6887 34.7423C41.8248 35.1662 41.8248 35.3001 42.2555 36.4158C42.3915 36.4158 42.5502 36.4158 42.6862 36.4158C42.8223 36.4158 42.981 36.4158 43.117 36.4158C43.5477 35.3001 43.5477 35.1439 43.9785 33.7605C44.5452 32.3547 44.8399 31.5068 45.4067 30.1234C45.2707 30.1234 45.112 30.1234 44.976 30.1234C44.8399 30.1234 44.6812 30.1234 44.5452 30.1234C44.2505 31.3952 43.9785 31.9531 43.8424 32.6448C43.4117 33.9167 43.4117 34.0505 43.1397 34.7423C42.8449 33.8943 42.5729 33.2026 42.2782 32.3547C41.8474 31.7969 41.2807 29.9672 41.2807 29.9672C41.1447 29.9672 40.986 29.9672 40.8499 29.9672C40.7139 29.9672 40.5552 29.9672 40.4192 29.9672C40.1245 31.0828 39.127 33.7605 38.991 34.0282L38.8549 34.5861L38.6509 34.2067Z" fill="#2F2C2C"/>
<path d="M48.0851 33.7828C47.7904 33.7828 47.5183 33.7828 47.2236 33.7828C46.9289 33.7828 46.5208 33.7828 46.2261 33.7828L47.2236 31.5291L48.0851 33.7828ZM49.2186 36.3042C49.3546 36.3042 49.6493 36.3042 49.9214 36.3042C50.2161 36.3042 50.4881 36.3042 50.6242 36.3042C50.1934 35.4563 49.6267 34.0505 49.1959 33.2249C48.9012 32.377 48.3344 31.1275 47.9037 29.8556C47.7677 29.8556 47.7677 29.8556 47.609 29.8556C47.473 29.8556 47.473 29.8556 47.3143 29.8556C47.0196 30.5473 46.6115 31.8192 45.614 33.9167L44.4805 36.3042C44.6165 36.3042 44.7752 36.3042 44.9112 36.3042C45.0472 36.3042 45.2059 36.3042 45.3419 36.3042C45.478 35.7464 45.7727 35.0323 46.0447 34.3406C46.4755 34.3406 46.7475 34.3406 47.1783 34.3406C47.609 34.3406 48.0397 34.3406 48.3118 34.3406L48.7425 35.3224L49.2186 36.3042Z" fill="#2F2C2C"/>
<path d="M53.0685 33.7828C53.0685 33.6489 53.0685 33.6489 53.2045 33.4927C53.6353 32.801 53.9073 32.087 54.3381 31.5291C54.4741 31.2391 55.1995 30.2573 55.3356 29.9895C55.1995 29.9895 55.1995 29.9895 54.9048 29.9895C54.7688 29.9895 54.4741 29.9895 54.3381 29.9895C53.6353 31.3953 53.4766 31.8192 52.7738 33.0688C51.9123 31.663 51.6403 30.9713 51.0735 29.9895C50.7788 29.9895 50.5068 29.9895 50.3707 29.9895C50.2347 29.9895 49.94 29.9895 49.668 29.9895C50.0987 30.8374 50.9602 32.087 51.3682 32.9349L51.935 33.9167C51.935 34.4745 51.935 35.7464 51.935 36.4381C52.071 36.4381 52.3657 36.4381 52.5018 36.4381C52.7965 36.4381 52.9325 36.4381 53.2045 36.4381C53.2045 35.5902 53.2045 35.0324 53.2045 34.3406V33.7828H53.0685Z" fill="#2F2C2C"/>
<path d="M55.9041 34.8985C55.9041 35.3224 55.9041 35.4563 55.6094 35.8803C55.9041 36.0141 56.6069 36.3042 57.3097 36.3042C59.01 36.3042 59.7354 35.1885 59.7354 34.3406C59.7354 34.0505 59.7354 33.4927 59.3047 33.0687C59.01 32.7787 58.7379 32.6448 58.0124 32.377C57.151 32.0869 56.7202 31.8192 56.7202 31.2613C56.7202 30.7035 57.151 30.2795 57.8538 30.2795C58.4205 30.2795 58.9873 30.5696 59.146 31.1275H59.282C59.418 30.7035 59.418 30.7035 59.5767 30.2795C59.146 30.1457 58.7152 29.8556 58.0124 29.8556C56.3122 29.8556 55.8814 30.8374 55.8814 31.6853C55.8814 32.377 56.1761 32.9572 57.0149 33.3588C57.3097 33.4927 57.7177 33.6489 58.0124 33.7828C58.1485 33.9167 58.7152 34.0729 58.7152 34.8985C58.7152 35.5902 58.2845 36.0141 57.423 36.0141C56.9016 36.0141 56.4935 35.8803 55.9041 34.8985Z" fill="#2F2C2C"/>
<path d="M3.74059 17.784C3.74059 10.7775 7.59457 8.94781 10.451 8.94781C15.0078 8.94781 17.0028 12.7411 17.0028 16.8022C17.0028 19.0559 16.7081 21.2872 15.5746 22.983C14.441 24.6566 12.446 25.7945 10.451 25.7945C5.30485 25.7722 3.74059 20.8633 3.74059 17.784ZM17.8416 32.087C18.7031 31.5291 19.9726 30.8151 20.9701 30.4135L14.5544 26.4863C18.4084 25.0805 20.9701 21.7112 20.9701 16.9361C20.9701 10.3313 15.8466 7.38586 10.5644 7.38586C4.85144 7.38586 0.0226415 10.4651 0.0226415 17.4939C-0.113381 19.1674 0.317357 21.9789 2.5844 24.3665C5.01014 26.754 8.00264 27.178 10.4284 27.178C10.7231 27.178 10.9951 27.178 11.4259 27.178L17.8416 32.087Z" fill="#2F2C2C"/>
<path d="M34.0975 19.0558C33.236 19.0558 32.3972 19.1897 31.5357 19.1897C30.5382 19.1897 29.5407 19.0558 28.5432 19.0558L31.3997 12.1832L34.0975 19.0558ZM37.2487 26.754C37.8154 26.754 38.5409 26.6201 39.3797 26.6201C40.2185 26.6201 41.08 26.754 41.5107 26.754C40.2185 24.0987 38.3822 19.8814 37.3847 17.4938C36.3872 15.1063 34.6869 11.313 33.3947 7.54199C33.1 7.67587 32.828 7.67587 32.5332 7.67587C32.2385 7.67587 31.9665 7.67587 31.5357 7.54199C30.833 9.79566 29.246 13.4328 26.4122 19.7475L23.125 26.9102C23.5557 26.9102 23.9865 26.7763 24.4172 26.7763C24.848 26.7763 25.4147 26.9102 25.7094 26.9102C26.1402 25.3705 27.0016 22.983 27.9991 20.8855C29.1327 20.8855 30.2889 20.7516 31.4224 20.7516C32.5559 20.7516 33.8481 20.7516 34.9816 20.8855L36.1152 23.8309L37.2487 26.754Z" fill="#2F2C2C"/>
<path d="M49.7832 12.7411C49.7832 11.6254 49.7832 10.6436 49.7832 9.66184C51.7782 9.66184 53.7732 9.66184 55.3375 9.79572C55.2015 9.37176 55.2015 9.104 55.2015 8.81392C55.2015 8.52384 55.2015 8.25608 55.3375 7.69824C52.6397 7.98832 50.214 7.98832 47.9243 7.98832C45.7932 7.98832 42.642 7.98832 40.375 7.85444C40.511 8.14451 40.511 8.54616 40.511 8.83623C40.511 9.12631 40.511 9.52795 40.375 9.81803C41.8032 9.68415 44.501 9.68415 44.7957 9.68415H46.224C46.224 10.7998 46.224 11.7816 46.224 12.7634V20.4839C46.224 22.5814 46.088 24.7012 45.9293 26.7987C46.9268 26.6648 47.3575 26.6648 47.7882 26.6648C48.083 26.6648 49.0805 26.7987 49.7832 26.7987C49.7832 26.1069 49.7832 25.1251 49.7832 23.0053V12.7411Z" fill="#2F2C2C"/>
<path d="M65.4717 19.0558C64.6102 19.0558 63.7714 19.1897 62.91 19.1897C61.9125 19.1897 60.915 19.0558 59.9175 19.0558L62.7739 12.1832L65.4717 19.0558ZM68.6002 26.754C69.167 26.754 69.8925 26.6201 70.7313 26.6201C71.5701 26.6201 72.4315 26.754 72.8623 26.754C71.5701 24.0987 69.7338 19.8814 68.7363 17.4938C67.7388 15.1063 66.0385 11.313 64.7463 7.54199C64.4516 7.67587 64.1795 7.67587 63.8848 7.67587C63.5901 7.67587 63.318 7.67587 62.8873 7.54199C62.1845 9.79566 60.5976 13.4328 57.7638 19.7475L54.4766 26.9102C54.9073 26.9102 55.338 26.7763 55.7688 26.7763C56.1995 26.7763 56.7663 26.9102 57.061 26.9102C57.4917 25.3705 58.3532 22.983 59.3507 20.8855C60.4842 20.8855 61.6404 20.7516 62.7739 20.7516C63.9075 20.7516 65.1997 20.7516 66.3332 20.8855L67.4667 23.8309L68.6002 26.754Z" fill="#2F2C2C"/>
<path d="M84.2913 17.36C86.8531 16.936 89.1428 15.2625 89.1428 12.1609C89.1428 11.0453 88.7121 9.90726 87.8506 9.08166C86.7171 7.96598 85.2888 7.6759 83.4298 7.6759C82.7271 7.6759 79.5759 7.80978 78.7144 7.80978C77.2862 7.80978 76.5834 7.6759 75.8579 7.6759C75.9939 11.1791 75.9939 11.6031 75.9939 15.2625C75.9939 20.5955 75.9939 21.1533 75.6992 26.6201C76.266 26.4862 76.9914 26.4862 77.6942 26.4862C78.397 26.4862 78.9864 26.6201 79.5532 26.6201C79.5532 25.9284 79.4172 22.269 79.4172 21.5772V17.7839H80.12C81.6842 19.8814 83.4072 22.269 84.8354 24.5226C85.2662 25.2144 85.8329 26.1962 86.2637 26.7763C87.1251 26.6424 87.3972 26.6424 88.5534 26.6424C89.5509 26.6424 90.2536 26.7763 91.1151 26.7763C89.4148 24.5226 88.5534 23.5408 86.3997 20.5955C85.9689 20.0376 85.4022 19.0558 84.9714 18.498L84.2913 17.36ZM79.5759 9.21554C80.0066 9.21554 81.0041 9.08166 81.5709 9.08166C82.5684 9.08166 83.4298 9.21554 84.1326 9.77338C85.1301 10.4651 85.2662 11.4469 85.2662 12.7188C85.2662 14.5485 84.2687 16.5121 81.4122 16.5121C80.7094 16.5121 79.9839 16.5121 79.4172 16.3782V9.21554H79.5759Z" fill="#2F2C2C"/>
<path d="M126.342 17.3601C126.342 17.494 123.78 17.6502 120.221 17.784C119.518 17.3601 119.088 17.0923 118.793 16.8022C123.055 17.07 126.342 17.2262 126.342 17.3601Z" fill="#2F2C2C"/>
<path d="M123.784 11.3353C123.784 11.4692 121.653 11.6253 118.66 11.7592C119.091 11.4692 119.522 11.2014 120.088 11.0675C122.197 11.1791 123.784 11.1791 123.784 11.3353Z" fill="#2F2C2C"/>
<path d="M100.949 24.3664C99.5209 24.3664 98.2514 24.3664 97.3899 24.3664C95.9617 24.3664 94.8281 23.9425 94.8281 23.3846C94.8281 22.8268 95.9617 22.4028 97.3899 22.4028C98.6821 22.4028 100.246 22.4028 102.241 22.4028C101.38 23.6747 101.108 24.2325 100.949 24.3664Z" fill="#2F2C2C"/>
<path d="M101.676 25.6383C102.106 26.1961 102.537 26.6201 103.24 27.1779C103.24 27.1779 103.535 27.468 104.101 27.1779C104.804 26.8879 105.394 26.4862 106.096 25.6383C108.091 25.6383 110.086 25.7722 112.081 25.7722C112.217 26.0623 112.648 26.4639 112.943 27.1779C107.23 27.3118 101.109 27.468 97.9804 27.468C96.6882 27.468 95.5547 27.0441 95.5547 26.6201C95.5547 26.0623 96.5522 25.7722 97.9804 25.7722C99.114 25.6383 100.247 25.6383 101.676 25.6383Z" fill="#2F2C2C"/>
<path d="M99.5451 30.2796C98.4116 30.2796 97.4141 29.8556 97.4141 29.4317C97.4141 29.0077 98.4116 28.5837 99.5451 28.5837C102.674 28.5837 108.953 28.7176 114.372 28.8738C114.666 29.2978 114.938 29.5655 115.074 29.9895C109.52 30.2796 102.81 30.2796 99.5451 30.2796Z" fill="#2F2C2C"/>
<path d="M117.499 32.8011C112.942 32.9349 105.098 33.0911 101.97 33.0911C101.108 33.0911 100.27 32.8011 100.27 32.5333C100.27 32.2655 100.972 31.9755 101.97 31.9755C105.098 31.9755 112.376 32.1093 116.932 32.2655C117.068 32.3771 117.204 32.6449 117.499 32.8011Z" fill="#2F2C2C"/>
<path d="M105.669 34.4745C108.367 34.4745 116.506 34.6084 116.506 34.8984C116.506 35.1885 108.39 35.3224 105.669 35.3224C105.103 35.3224 104.672 35.1885 104.672 34.8984C104.672 34.7646 105.103 34.4745 105.669 34.4745Z" fill="#2F2C2C"/>
<path d="M105.665 18.3418C102.241 18.3418 99.2489 18.4757 97.3899 18.4757C95.9617 18.4757 94.8281 18.0517 94.8281 17.4939C94.8281 16.936 95.9617 16.5121 97.3899 16.5121C99.6796 16.5121 103.375 16.5121 107.365 16.646C106.662 17.2261 106.095 17.784 105.665 18.3418Z" fill="#2F2C2C"/>
<path d="M122.192 13.9906C124.187 14.1245 125.479 14.2807 125.479 14.2807C125.479 14.4146 123.915 14.5708 121.625 14.7046C122.056 14.4146 122.192 14.1245 122.192 13.9906Z" fill="#2F2C2C"/>
<path d="M98.1171 15.2626C96.8249 15.2626 95.6914 14.8386 95.6914 14.4147C95.6914 13.8568 96.6889 13.5668 98.1171 13.5668C100.815 13.5668 105.666 13.5668 110.518 13.7007C109.951 14.2585 109.384 14.6825 108.818 15.2403C104.533 15.2626 100.543 15.2626 98.1171 15.2626Z" fill="#2F2C2C"/>
<path d="M112.784 12.027C107.796 12.1609 102.378 12.1609 99.5216 12.1609C98.3881 12.1609 97.3906 11.737 97.3906 11.313C97.3906 10.889 98.3881 10.4651 99.5216 10.4651C102.65 10.4651 108.93 10.599 114.348 10.7552C114.053 10.889 113.781 11.1791 113.487 11.313C113.215 11.6031 112.943 11.7593 112.784 12.027Z" fill="#2F2C2C"/>
<path d="M101.81 8.94781C100.948 8.94781 100.109 8.65773 100.109 8.38997C100.109 8.12221 100.812 7.83213 101.81 7.83213C105.369 7.69825 113.916 7.83213 118.2 8.12221C117.906 8.25609 117.634 8.54617 117.339 8.68005C112.941 8.79162 105.097 8.94781 101.81 8.94781Z" fill="#2F2C2C"/>
<path d="M97.1204 21.4211C95.6921 21.4211 94.5586 20.9972 94.5586 20.4393C94.5586 19.8815 95.6921 19.4575 97.1204 19.4575C98.8206 19.4575 101.541 19.4575 104.534 19.5914C103.967 20.2831 103.536 20.8633 103.105 21.4211C100.68 21.4211 98.5486 21.4211 97.1204 21.4211Z" fill="#2F2C2C"/>
<path d="M104.672 6.00233C104.672 5.71225 105.103 5.57837 105.669 5.57837C108.367 5.57837 116.506 5.71225 116.506 6.00233C116.506 6.2924 108.39 6.42628 105.669 6.42628C105.103 6.42628 104.672 6.13621 104.672 6.00233Z" fill="#2F2C2C"/>
<path d="M126.613 19.7475C126.613 20.1715 126.613 20.7293 126.613 21.1533C121.898 21.2872 117.341 21.5773 117.341 22.0012C117.341 22.2913 121.762 22.5591 126.454 22.8491C126.318 23.407 126.318 23.9648 126.16 24.3888C121.603 24.5227 117.318 24.8127 117.318 25.0805C117.318 25.3483 121.308 25.6383 125.729 25.7722C125.593 26.33 125.298 26.8879 125.026 27.4457C121.172 27.5796 118.044 27.8697 118.044 28.1374C118.044 28.4275 120.741 28.5614 124.323 28.8292C124.187 29.1192 123.893 29.387 123.757 29.6771C123.462 29.9672 123.326 30.2349 123.054 30.6589C120.923 30.7928 119.359 30.949 119.359 31.2167C119.359 31.3506 120.356 31.5068 122.056 31.6407C121.195 32.4886 120.061 33.3142 118.928 34.0282C118.928 34.0282 117.5 32.7564 116.23 31.3729C115.097 30.101 112.807 26.5978 112.376 25.9061C111.809 25.2144 111.515 24.9243 110.812 25.2144C109.95 25.5044 108.953 25.6383 108.681 25.6383C108.409 25.6383 108.25 25.5044 108.681 25.3483C109.248 25.2144 111.243 24.2326 112.104 22.269C113.238 20.1715 112.24 17.0699 112.24 17.0699C111.809 18.6096 110.948 19.3236 110.948 19.3236C111.243 17.784 110.948 16.5121 110.245 15.5303L109.678 17.2038C109.678 17.2038 109.384 17.2038 108.817 17.7616C108.25 18.3195 107.955 19.0335 107.955 19.0335C108.522 19.1674 109.089 18.7434 109.089 18.7434C108.386 21.5549 107.23 23.9425 106.391 25.1921C105.53 26.4639 104.963 26.8656 104.101 27.1557C103.399 27.4457 103.24 27.1557 103.24 27.1557C102.673 26.5978 102.242 26.1739 101.676 25.616C101.676 25.616 101.676 25.616 101.812 25.616C102.106 25.616 102.809 25.0582 102.809 24.7681C102.945 24.478 102.945 24.3441 102.809 24.3441C102.673 24.3441 102.673 24.478 101.948 24.902C101.381 25.3259 100.95 25.0359 100.814 24.7681C100.678 24.6342 100.814 24.3441 100.95 24.2103C101.086 24.0764 104.373 17.8955 113.351 11.2907C125.049 2.72229 132.598 0.490938 133.029 0.200862C133.324 0.0669805 133.732 -0.0892144 133.89 0.0669806C134.026 0.200862 134.026 0.357057 134.026 0.490938C134.026 0.62482 133.89 0.62482 133.46 0.914896C128.903 2.87849 123.621 6.11396 120.764 8.07755C117.069 9.90726 113.646 12.4287 113.487 12.4287C113.192 12.5626 113.351 12.8527 113.623 12.7188C119.903 8.6577 127.157 5.84619 135.16 3.59252C135.591 3.45864 135.727 3.45864 135.863 3.59252C135.999 3.72641 135.999 3.72641 135.999 3.8826C135.999 4.0388 135.863 4.17268 135.568 4.17268C126.862 7.40814 120.605 10.1973 116.457 13.0088C116.457 13.0088 116.026 13.2989 116.026 13.5667C116.026 13.7006 116.321 13.7006 116.321 13.7006C118.316 13.7006 121.172 13.8345 122.442 13.9906C122.442 13.9906 122.306 14.6824 121.014 15.1063C120.016 15.5303 119.155 15.3964 118.316 15.3964C118.18 15.3964 117.885 15.5303 118.18 15.8204C117.93 16.0881 119.767 19.0558 126.613 19.7475Z" fill="#2F2C2C"/>
<path d="M64.0444 35.3224H62.9109C62.9109 35.3224 62.7748 34.6307 63.2056 34.3406C63.6363 34.0506 64.0671 33.9167 64.0671 33.9167L64.0444 35.3224ZM69.4626 32.6448C69.4626 32.6448 68.7598 33.0688 68.3291 33.4927C67.8984 33.9167 68.4651 34.0506 68.4651 34.0506V35.3224H65.0419V30.6812C65.0419 30.6812 63.7497 31.7969 63.7497 31.9531C63.6137 32.087 64.0444 32.2432 64.0444 32.2432V32.6671C64.0444 32.6671 63.6136 32.9572 62.9109 33.3589C62.3441 33.7828 61.9134 34.2068 61.9134 34.6307C61.9134 34.9208 61.7773 36.3042 61.7773 36.3042H69.6213V32.6671H69.4626V32.6448ZM62.4801 30.9713C62.9109 30.9713 63.1829 30.8374 63.1829 30.5473C63.1829 30.2573 63.0469 29.9895 62.4801 29.9895C62.0494 29.9895 61.9134 30.1234 61.9134 30.5473C62.0494 30.8374 62.1854 30.9713 62.4801 30.9713ZM63.9084 30.9713C64.3391 30.9713 64.6111 30.8374 64.6111 30.5473C64.6111 30.2573 64.4751 29.9895 63.9084 29.9895C63.4776 29.9895 63.3416 30.1234 63.3416 30.5473C63.4776 30.8374 63.6136 30.9713 63.9084 30.9713ZM66.1754 36.7282C65.7447 36.7282 65.6086 36.8621 65.6086 37.286C65.6086 37.5761 65.7447 37.71 66.1754 37.71C66.6061 37.71 66.8782 37.5761 66.8782 37.286C66.7422 36.8621 66.6061 36.7282 66.1754 36.7282ZM67.6036 36.7282C67.1729 36.7282 67.0369 36.8621 67.0369 37.286C67.0369 37.5761 67.1729 37.71 67.6036 37.71C68.0344 37.71 68.3064 37.5761 68.3064 37.286C68.3064 36.8621 68.0344 36.7282 67.6036 36.7282ZM84.4251 30.9713C84.8559 30.9713 85.1279 30.8374 85.1279 30.5473C85.1279 30.2573 84.9919 29.9895 84.4251 29.9895C83.9944 29.9895 83.8584 30.1234 83.8584 30.5473C83.8584 30.8374 83.9944 30.9713 84.4251 30.9713ZM85.8534 30.9713C86.2841 30.9713 86.5561 30.8374 86.5561 30.5473C86.5561 30.2573 86.4201 29.9895 85.8534 29.9895C85.4226 29.9895 85.2866 30.1234 85.2866 30.5473C85.2866 30.8374 85.4226 30.9713 85.8534 30.9713ZM89.9794 31.1052C89.8433 31.2391 89.8433 31.5291 90.1154 31.5291V36.4381H91.2489V30.4135C91.2716 30.2796 90.1381 30.8374 89.9794 31.1052ZM85.5586 33.7828H84.8559C84.8559 33.3589 85.5586 33.225 85.5586 33.225V33.7828ZM80.8659 34.6307C80.8659 34.7646 80.8659 35.0547 80.8659 35.3224H74.5861V34.2068C74.7222 33.7828 75.0169 33.7828 75.4476 33.7828H80.0044C81.0019 33.7828 80.8659 34.3406 80.8659 34.6307ZM88.1204 31.3953V35.3224H86.7148V31.8192C86.7148 31.8192 86.4201 31.9531 86.012 32.1093C85.5813 32.2432 84.1531 32.9572 84.1531 33.6489V34.6307H85.7173V35.3224H82.1581C82.1581 35.1886 82.1581 34.8985 82.1581 34.4745C82.1581 33.3589 81.1606 32.6448 80.2991 32.6448H76.1731C75.4703 32.6448 75.0395 32.7787 74.8809 33.0688V30.1234C74.8809 30.1234 74.1781 30.5473 73.7473 30.9713C73.3166 31.3953 73.7473 31.5291 73.7473 31.5291V35.3224H72.3191V32.087C72.3191 32.087 71.3216 32.7787 71.0269 32.9349C70.7322 33.0688 70.8909 33.3589 71.1629 33.3589C71.1629 33.3589 71.1629 35.7464 71.1629 36.3042C71.1629 36.8621 70.7322 37.5761 69.7347 37.286C69.7347 37.286 69.44 37.286 69.7347 37.5761C70.0294 37.8662 70.3014 38.0001 70.7322 38.0001C71.1629 38.0001 72.4325 37.71 72.4325 36.3266H89.6847V30.3019C89.6847 30.3019 88.6872 30.9936 88.3924 31.1498C87.8483 31.2614 87.8484 31.3953 88.1204 31.3953Z" fill="#2F2C2C"/>
</svg>
