<svg width="137" height="37" viewBox="0 0 137 37" fill="none" xmlns="http://www.w3.org/2000/svg">
<g clip-path="url(#clip0)">
<path d="M132.239 16.319V10.2147H126.157V16.319H122.805V1.82397H126.157V7.56159H132.239V1.82397H135.591V16.319H132.239Z" fill="#2F2C2C"/>
<path d="M60.3555 1.82397V10.8834C60.3555 11.854 60.4844 12.7815 60.7853 13.4502C61.0861 14.1189 61.5159 14.7444 62.0102 15.1542C62.5689 15.5856 63.2351 15.9523 63.9658 16.1249C64.6964 16.319 65.556 16.4269 66.523 16.4269C67.4471 16.4269 68.2852 16.2974 69.0159 16.1249C69.7465 15.9307 70.3482 15.5641 70.8425 15.1542C71.3368 14.7228 71.7665 14.1189 72.0029 13.4502C72.3038 12.7168 72.4327 11.854 72.4327 10.8834V1.82397H69.3167V10.8187C69.3167 11.7462 69.0803 12.4795 68.6505 13.0188C68.2207 13.5796 67.4901 13.8816 66.523 13.8816C65.556 13.8816 64.8253 13.5796 64.3955 13.0188C63.9658 12.458 63.7294 11.7246 63.7294 10.8187V1.82397H60.3555Z" fill="#2F2C2C"/>
<path d="M50.749 16.319V4.52022H46.8594V1.82397H58.0771V3.11817C58.0771 3.91626 57.4753 4.52022 56.6802 4.52022H54.1229V16.319H50.749Z" fill="#2F2C2C"/>
<path d="M104.344 1.82397H107.696V16.319H104.344V1.82397Z" fill="#2F2C2C"/>
<path d="M93.2547 9.54603L93.3837 9.67545L97.6387 15.1758C98.1974 15.8445 98.971 16.2759 99.8951 16.2759H102.581L96.4997 8.44596L96.4352 8.31654L96.4997 8.18712L101.485 1.82397H98.004L93.3837 8.07927L93.2547 8.20869V7.97142V1.82397H89.9023V16.319H93.2547V9.7833V9.54603Z" fill="#2F2C2C"/>
<path d="M85.5846 16.319C84.6175 16.319 83.629 15.7582 83.1562 14.9817L80.5345 10.7108H78.8798V16.4053H75.5273V1.82397H81.5015C83.0273 1.82397 84.2522 2.25537 85.0258 2.98875C85.8854 3.78684 86.3152 4.88691 86.3152 6.15954C86.3152 6.82821 86.1218 7.49688 85.7565 8.18712C85.3912 8.85579 84.7894 9.41661 83.9299 9.84801L83.7364 9.91272L87.8195 16.2759H85.5631L85.5846 16.319ZM78.8798 8.44596H80.8353C81.5015 8.44596 82.0602 8.25183 82.4256 7.88514C82.7909 7.51845 82.9843 7.02234 82.9843 6.41838C82.9843 5.81442 82.7909 5.31831 82.49 4.95162C82.1247 4.58493 81.6304 4.3908 80.8998 4.3908H78.9442V8.42439L78.8798 8.44596Z" fill="#2F2C2C"/>
<path d="M110.449 15.7151V12.9541C111.481 13.4502 112.878 13.9247 114.296 13.9247C115.951 13.9247 116.724 13.3639 116.724 12.2639C116.724 10.9697 115.628 10.8618 113.372 9.86959C111.846 9.20092 110.449 8.16556 110.449 5.70658C110.449 2.90249 112.577 1.54358 115.564 1.54358C117.154 1.54358 118.486 1.91027 119.217 2.21225V4.9085C118.486 4.54181 117.154 4.11041 115.736 4.11041C114.274 4.11041 113.608 4.67123 113.608 5.57717C113.608 6.54781 114.468 6.87136 115.929 7.41061C117.82 8.38126 120.077 8.81266 120.077 12.0482C120.077 14.8523 117.82 16.3837 114.833 16.3837C113.049 16.5131 111.588 16.2112 110.449 15.7151Z" fill="#2F2C2C"/>
<path d="M115.672 35.2143V20.7192H124.698V22.0134C124.698 22.8115 124.096 23.4155 123.301 23.4155H118.981V26.5431H123.859V28.9805H118.981V32.518H124.698V35.2143H115.672Z" fill="#2F2C2C"/>
<path d="M82.6602 35.2143V20.7192H84.3149C85.2819 20.7192 86.0126 21.5173 86.0126 22.4233V32.5827H91.3205V35.2143H82.6602Z" fill="#2F2C2C"/>
<path d="M62.0117 35.2143V20.7192H65.3641V35.2143H62.0117Z" fill="#2F2C2C"/>
<path d="M78.4088 35.2143C77.4418 35.2143 76.4532 34.6534 75.9804 33.8769L73.3587 29.6061H71.704V35.3005H68.3516V20.7192H74.3257C75.8515 20.7192 77.0764 21.1506 77.8501 21.884C78.7096 22.6821 79.1394 23.7822 79.1394 25.0548C79.1394 25.7235 78.946 26.3921 78.5807 27.1255C78.2154 27.7942 77.6137 28.355 76.7541 28.7864L76.5607 28.8511L80.6437 35.2143H78.4088ZM71.7684 27.3412H73.724C74.4547 27.3412 74.9489 27.1471 75.3143 26.7804C75.6796 26.4137 75.873 25.9176 75.873 25.3136C75.873 24.7097 75.6796 24.2136 75.3787 23.8469C75.0134 23.4802 74.5191 23.2861 73.7885 23.2861H71.8329L71.7684 27.3412Z" fill="#2F2C2C"/>
<path d="M54.7035 20.7192H50.8568L45.4414 35.2143H47.8268C48.4285 35.2143 48.9872 34.8476 49.1591 34.2436L49.7179 32.5396H55.5631L56.4227 35.2358H60.0115L54.7035 20.7192ZM50.556 29.9512L51.8454 26.2843C52.1462 25.4862 52.4471 24.5803 52.6405 23.9547H52.705C52.8984 24.6234 53.1992 25.4215 53.4356 26.2843L54.725 29.9512H50.556Z" fill="#2F2C2C"/>
<path d="M127.383 34.6103V31.8494C128.414 32.3455 129.811 32.82 131.229 32.82C132.884 32.82 133.658 32.2592 133.658 31.1591C133.658 29.8649 132.562 29.7571 130.305 28.7649C128.78 28.0962 127.383 27.0608 127.383 24.6018C127.383 21.7978 129.51 20.4388 132.497 20.4388C134.088 20.4388 135.42 20.8055 136.151 21.1075V23.8038C135.42 23.4371 134.088 23.0057 132.669 23.0057C131.208 23.0057 130.542 23.5665 130.542 24.4724C130.542 25.4431 131.401 25.7666 132.863 26.3059C134.754 27.2765 137.01 27.7079 137.01 30.9434C137.01 33.7475 134.754 35.279 131.767 35.279C129.983 35.4084 128.522 35.1064 127.383 34.6103Z" fill="#2F2C2C"/>
<path d="M99.8965 20.7192H101.96C102.927 20.7192 103.851 21.2153 104.388 22.0566L108.406 28.5276C108.836 29.261 109.373 30.1885 109.696 30.8571H109.76C109.696 30.1885 109.696 29.3257 109.696 28.657V20.7192H112.618V35.2143H108.965L104.087 27.3844C103.657 26.651 103.163 25.7882 102.798 25.1195H102.733C102.733 25.7235 102.798 26.4569 102.798 27.1902V35.1927H99.875V20.7192H99.8965Z" fill="#2F2C2C"/>
<path d="M93.5137 20.7192H96.8446V35.2143H93.4922V20.7192H93.5137Z" fill="#2F2C2C"/>
<path d="M20.343 0.11941C29.6051 1.09006 36.8472 8.91996 36.8472 18.5186C36.8472 28.7212 28.6166 36.9825 18.4519 36.9825C8.28725 36.9825 -0.0078125 28.7428 -0.0078125 18.5186C-0.0078125 8.29443 8.22278 -0.0100098 18.4519 -0.0100098C19.0751 -0.0100098 19.7413 0.0547002 20.343 0.11941ZM21.3101 35.7099C30.7441 34.1137 37.148 25.1406 35.5578 15.5851C34.2254 7.69047 27.8215 1.95286 20.2786 1.15477C18.7528 0.960639 17.1625 1.02535 15.5938 1.28419C13.7027 1.58617 11.9405 2.2117 10.3503 3.05293C18.6453 5.92173 23.1367 10.2573 23.4376 14.6791C23.631 17.4401 22.3416 19.3814 20.6439 20.9776L32.4633 20.1795C32.7641 20.1795 32.8931 20.5462 32.5277 20.6756L4.33313 28.7428C7.19127 32.7117 11.6397 35.3432 16.5823 35.8393C18.1511 36.0119 19.7413 36.0119 21.3101 35.7099ZM13.5737 18.8853C15.0995 13.083 13.3374 6.95709 9.12535 3.7216C3.40907 7.38849 0.0566568 14.2477 1.28158 21.409C1.6469 23.8032 2.50649 25.9387 3.70992 27.8368C8.22278 26.6073 12.1769 24.2131 13.5737 18.8853Z" fill="white"/>
<path d="M21.3112 35.7103C30.7452 34.1142 37.1491 25.141 35.5589 15.5855C34.2265 7.69094 27.8226 1.95332 20.2797 1.15523C18.7539 0.961104 17.1636 1.02581 15.5949 1.28465C13.7038 1.58663 11.9416 2.21216 10.3514 3.05339C18.6464 5.9222 23.1378 10.2578 23.4387 14.6796C23.6321 17.4406 22.3427 19.3819 20.645 20.978L32.4644 20.18C32.7652 20.18 32.8942 20.5466 32.5288 20.6761L4.33423 28.7432C7.19237 32.7121 11.6408 35.3436 16.5834 35.8398C18.1522 36.0123 19.7424 36.0123 21.3112 35.7103ZM13.5748 18.8858C15.1006 13.0834 13.3385 6.95756 9.12645 3.72206C3.41016 7.38896 0.0577555 14.2482 1.28267 21.4094C1.648 23.8037 2.50759 25.9391 3.71102 27.8373C8.22388 26.6078 12.178 24.2135 13.5748 18.8858Z" fill="#2F2C2C"/>
</g>
<defs>
<clipPath id="clip0">
<rect width="137" height="37" fill="white"/>
</clipPath>
</defs>
</svg>
