<svg width="121" height="36" viewBox="0 0 121 36" fill="none" xmlns="http://www.w3.org/2000/svg">
<g clip-path="url(#clip0)">
<path d="M37.1125 22.4701C36.7881 21.7269 36.3442 21.0356 35.8832 20.448C35.4051 19.8604 34.8246 19.3074 34.2441 18.858C33.9197 18.6333 33.5953 18.4605 33.2539 18.2704C33.066 18.1667 32.8953 18.0803 32.7075 18.0112C32.8953 17.9075 33.066 17.821 33.2539 17.7173C33.5782 17.5618 33.9026 17.3544 34.2441 17.1297C34.8246 16.6804 35.4051 16.1792 35.8832 15.5397C36.3612 14.9521 36.7881 14.2435 37.1125 13.5176C37.4369 12.7399 37.693 11.9276 37.8466 11.0808C37.9149 10.4931 38.0003 9.90554 38.0003 9.35249C38.0003 9.09325 37.9661 8.79944 37.9661 8.54019C37.8979 7.84888 37.7442 7.1403 37.4881 6.44898C37.2661 5.75767 36.9417 5.08365 36.5832 4.46147C36.1905 3.83929 35.7124 3.25167 35.2002 2.73319C34.6539 2.18014 34.0392 1.73079 33.4246 1.33328C32.7416 0.935781 32.0075 0.590126 31.2392 0.382733C30.4367 0.158057 29.6001 0.0197936 28.7635 0.0197936C27.9269 -0.0147719 27.0903 0.054357 26.322 0.244467C25.5537 0.434578 24.8366 0.728389 24.1707 1.09133C23.4878 1.45427 22.8902 1.90361 22.3439 2.4221C21.8317 2.94058 21.4048 3.5282 21.0292 4.18494C20.7048 4.84169 20.4487 5.55028 20.3463 6.27616C20.278 6.67366 20.2438 7.05388 20.2438 7.45138C20.2438 7.77976 20.278 8.07356 20.3121 8.40193C19.6292 8.00443 18.9292 7.65878 18.2462 7.39954C17.3755 7.1403 16.4194 6.95018 15.412 6.91562C14.473 6.91562 13.551 6.98475 12.7144 7.20942C11.912 7.39954 11.1437 7.69334 10.4266 8.09085C9.74362 8.45378 9.07776 8.90313 8.46311 9.42162C8.0192 9.74999 7.62651 10.1648 7.23382 10.5623C7.23382 10.5623 6.61917 11.1499 6.32892 11.5128C6.00453 11.9103 5.68013 12.3251 5.30451 12.809L4.5362 13.8114C4.31425 14.1052 4.09229 14.3645 3.88741 14.6237C3.56301 14.9867 3.23861 15.3669 2.863 15.7298C2.2825 16.3174 1.66785 16.8705 0.93369 17.3198C0.831249 17.4235 0.677586 17.5445 0.489778 17.6136C0.421484 17.6828 0.301967 17.7173 0.199526 17.8038C0.131232 17.8383 0.0117188 17.9075 0.0117188 18.0284C0.0117188 18.1321 0.114158 18.184 0.199526 18.2531C0.301967 18.2877 0.421484 18.3222 0.489778 18.4087C0.677586 18.5124 0.814176 18.5988 0.93369 18.7025C1.66785 19.1518 2.2825 19.7049 2.863 20.2925C3.22154 20.6554 3.54594 21.0356 3.88741 21.3986C4.10936 21.6578 4.33132 21.9171 4.5362 22.2109L5.30451 23.2133C5.66305 23.6972 5.98745 24.1292 6.32892 24.5095C6.61917 24.8724 7.23382 25.46 7.23382 25.46C7.62651 25.9094 8.03627 26.2723 8.46311 26.6007C9.07776 27.1192 9.74362 27.6031 10.4266 27.9315C11.1607 28.329 11.912 28.6228 12.7144 28.8129C13.551 29.0376 14.4559 29.1067 15.412 29.1067C16.4364 29.0721 17.3755 28.9166 18.2462 28.6228C18.9292 28.3981 19.6292 28.0352 20.3121 27.6204C20.278 27.9487 20.2438 28.2425 20.2438 28.5709C20.2438 28.9684 20.278 29.3486 20.3463 29.7461C20.4487 30.4893 20.7048 31.1806 21.0292 31.8374C21.3878 32.4941 21.8317 33.0817 22.3439 33.6002C22.8902 34.1187 23.4707 34.6026 24.1707 34.931C24.8195 35.2939 25.5537 35.5877 26.322 35.7778C27.0903 35.9679 27.9269 36.0371 28.7635 36.0025C29.6001 36.0025 30.4367 35.847 31.2392 35.6396C32.0075 35.3803 32.7246 35.0865 33.4246 34.689C34.0392 34.2915 34.6539 33.8422 35.2002 33.2891C35.7124 32.7706 36.1905 32.183 36.5832 31.5608C36.9417 30.9387 37.2661 30.2646 37.4881 29.5733C37.7442 28.882 37.8808 28.1734 37.9661 27.4821C37.9661 27.2229 38.0003 26.9291 38.0003 26.6698C38.0003 26.1168 37.932 25.5292 37.8466 24.9415C37.693 24.0601 37.4369 23.2478 37.1125 22.4701Z" fill="#F4F4F4"/>
<path d="M35.0462 23.2824C34.756 22.6257 34.3633 22.0381 33.8852 21.485C33.4413 20.9665 32.8608 20.4826 32.2803 20.1197C31.6657 19.7567 30.9998 19.4629 30.351 19.2728C29.6169 19.0481 28.8998 18.9444 28.1656 18.9444C27.3632 18.9444 26.5607 19.0136 25.7924 19.2383C25.1777 19.3938 24.5631 19.6012 23.9655 19.895C23.4192 20.1542 22.9411 20.448 22.4801 20.811C22.0021 21.1394 21.6094 21.4677 21.1655 21.8134C20.7728 22.1418 20.363 22.4701 19.9362 22.7294C19.4923 23.0232 19.0313 23.2479 18.5532 23.4207C18.041 23.5762 17.4947 23.6799 16.9142 23.6799C16.18 23.6799 15.4288 23.5244 14.7288 23.2306C14.08 22.9368 13.4482 22.4874 12.9531 21.9862C12.4409 21.4677 12.0482 20.811 11.758 20.137C11.5019 19.4456 11.3994 18.7025 11.3994 17.9939C11.3994 17.2507 11.5019 16.5249 11.758 15.8163C12.0482 15.1595 12.4409 14.5201 12.9531 13.967C13.4653 13.4485 14.08 13.0165 14.7288 12.7226C15.4117 12.4288 16.18 12.2733 16.9142 12.2733C17.4947 12.2733 18.041 12.377 18.5532 12.5325C19.0313 12.7226 19.4923 12.93 19.9362 13.2238C20.3801 13.5177 20.7728 13.8115 21.1655 14.1398C21.6094 14.4682 22.0021 14.8311 22.4801 15.1422C22.9582 15.5052 23.4192 15.799 23.9655 16.0582C24.546 16.352 25.1607 16.6113 25.7924 16.7495C26.5607 16.9396 27.3632 17.0088 28.1656 17.0088C28.8998 17.0088 29.6169 16.9051 30.351 16.6804C30.9998 16.4903 31.6657 16.1965 32.2803 15.8335C32.8608 15.4706 33.4413 14.9867 33.8852 14.4682C34.3633 13.9152 34.756 13.3275 35.0462 12.6708C35.3365 11.9795 35.5584 11.2363 35.6267 10.4932C35.7292 9.68088 35.695 8.86859 35.5584 8.0563C35.4048 7.31314 35.1658 6.62183 34.7901 5.91324C34.4657 5.29106 34.0218 4.70345 33.5096 4.18496C32.9974 3.70105 32.4169 3.26898 31.8023 2.9406C31.1535 2.61223 30.4876 2.35299 29.8047 2.24929C29.0364 2.09375 28.3193 2.02462 27.551 2.14559C26.8168 2.21473 26.1339 2.4394 25.4851 2.76778C24.8704 3.09615 24.2899 3.51094 23.8119 4.01214C23.3338 4.53062 22.9753 5.11823 22.685 5.77498C22.4289 6.39715 22.2411 7.10575 22.207 7.79706C22.1728 8.57479 22.2752 9.30066 22.4972 10.0093C22.4972 10.1129 22.5314 10.1994 22.5655 10.3031C22.5655 10.3376 22.5996 10.3722 22.5996 10.4068C22.6338 10.4759 22.6338 10.5105 22.6679 10.5969C22.6679 10.5969 22.7021 10.6314 22.7362 10.6314C22.8045 10.6314 22.8045 10.5969 22.8045 10.5623C22.8387 10.4586 22.8387 10.3376 22.8387 10.2339C22.8728 9.87099 22.9923 9.49077 23.1289 9.12784C23.385 8.50566 23.8119 7.95261 24.4094 7.53782C24.9899 7.17488 25.69 6.9502 26.3729 6.91564C27.1071 6.88107 27.8583 6.98477 28.5242 7.36499C29.1388 7.6588 29.651 8.17728 29.9754 8.7649C30.2998 9.35251 30.4535 10.0957 30.4535 10.787C30.4535 11.5301 30.2315 12.2215 29.873 12.8436C29.5144 13.4658 28.9681 13.9843 28.3022 14.2781C27.6876 14.6065 26.9192 14.762 26.2363 14.6756C25.7241 14.6065 25.246 14.4509 24.8192 14.2781C24.3411 14.0189 23.9143 13.7596 23.5045 13.4312C23.0606 13.1029 22.6338 12.7399 22.224 12.3597C21.7801 11.9968 21.3191 11.582 20.8752 11.2536C20.363 10.8561 19.8508 10.5105 19.3386 10.2166C18.7581 9.88828 18.1435 9.62903 17.5117 9.43892C16.7776 9.24881 16.0605 9.14511 15.3263 9.14511C14.558 9.14511 13.7897 9.17968 13.0726 9.36979C12.458 9.52534 11.8433 9.73273 11.2458 10.0611C10.7336 10.3203 10.2213 10.6833 9.79451 11.0635C9.31645 11.461 8.92376 11.8758 8.514 12.3079C8.12131 12.7572 7.74569 13.2239 7.38714 13.7078C7.06275 14.1571 6.70421 14.6238 6.32859 15.0731C5.97004 15.5225 5.56028 15.9545 5.16759 16.3693C4.7749 16.8187 4.33099 17.1816 3.85293 17.4754C3.75049 17.5445 3.66512 17.631 3.56268 17.6655C3.49438 17.7347 3.40902 17.7347 3.34072 17.7692C3.30658 17.8038 3.23828 17.8729 3.23828 17.9593C3.23828 17.9939 3.30658 18.063 3.34072 18.1149C3.40902 18.1494 3.49438 18.184 3.56268 18.2186C3.66512 18.2531 3.75049 18.3223 3.85293 18.4087C4.33099 18.7025 4.75782 19.1 5.16759 19.5148C5.56028 19.9123 5.97004 20.3616 6.32859 20.811C6.68713 21.2603 7.06275 21.727 7.38714 22.2109C7.74569 22.6602 8.12131 23.1269 8.514 23.5762C8.90669 24.0256 9.31645 24.4231 9.79451 24.8206C10.2384 25.1835 10.7336 25.5637 11.2458 25.823C11.8263 26.1514 12.4409 26.376 13.0726 26.5143C13.8068 26.7044 14.558 26.7735 15.3263 26.739C16.0605 26.739 16.7776 26.6353 17.5117 26.4452C18.1264 26.2551 18.741 25.9958 19.3386 25.6674C19.8508 25.3736 20.363 25.0453 20.8752 24.6305C21.3191 24.3021 21.7801 23.8873 22.224 23.5244C22.6167 23.1614 23.0606 22.7812 23.5045 22.4528C23.8972 22.1245 24.3411 21.8652 24.8192 21.6406C25.2631 21.4159 25.7241 21.2776 26.2363 21.2431C26.9192 21.1739 27.6876 21.2776 28.3022 21.606C28.951 21.8998 29.4973 22.4183 29.873 23.0405C30.2315 23.6626 30.4535 24.3712 30.4535 25.0971C30.4535 25.7884 30.2998 26.5316 29.9754 27.1538C29.651 27.7414 29.1388 28.2253 28.5242 28.5191C27.8754 28.882 27.1071 29.003 26.3729 28.9685C25.69 28.9339 24.9899 28.7092 24.4094 28.3463C23.8289 27.9488 23.385 27.3957 23.1289 26.7563C22.9753 26.3933 22.8728 26.0131 22.8387 25.6502C22.8387 25.5465 22.8387 25.4255 22.8045 25.3218C22.8045 25.3218 22.8045 25.2527 22.7362 25.2527C22.7021 25.2527 22.6679 25.2872 22.6679 25.3218C22.6338 25.3564 22.6338 25.3909 22.5996 25.4773C22.5996 25.5119 22.5655 25.5465 22.5655 25.581C22.5314 25.6847 22.4972 25.7711 22.4972 25.8748C22.2752 26.5661 22.1728 27.3093 22.207 28.087C22.2411 28.7783 22.4289 29.4869 22.685 30.1091C22.9753 30.7659 23.3338 31.3535 23.8119 31.8374C24.2899 32.3904 24.8704 32.7879 25.4851 33.1336C26.1339 33.462 26.8339 33.6866 27.551 33.7558C28.3193 33.8595 29.0364 33.8249 29.8047 33.6521C30.4876 33.5484 31.1535 33.2891 31.8023 32.9608C32.4169 32.6324 32.9974 32.183 33.5096 31.7164C34.0218 31.1979 34.4487 30.6103 34.7901 29.9881C35.1487 29.2968 35.4048 28.5882 35.5584 27.8105C35.7121 27.0328 35.7463 26.2205 35.6267 25.4082C35.5584 24.7169 35.3365 23.991 35.0462 23.2824Z" fill="#2F2C2C"/>
<path d="M24.4631 18.0285C24.4631 17.9939 24.4631 17.9593 24.429 17.9593C23.5582 17.7347 22.7558 17.268 22.0216 16.715C21.2533 16.1619 20.5362 15.5397 19.7338 14.9867C18.9655 14.4682 18.0947 13.9843 17.1557 13.9497C16.3874 13.8806 15.619 14.0534 14.9703 14.4336C14.3556 14.762 13.8434 15.2805 13.519 15.9027C13.1605 16.5249 12.9727 17.268 12.9727 17.9939V18.0285C12.9727 18.7716 13.1605 19.4975 13.519 20.1197C13.8434 20.7419 14.3556 21.2603 14.9703 21.5887C15.619 21.9517 16.3874 22.1418 17.1557 22.1072C18.0947 22.0381 18.9825 21.5541 19.7338 21.0357C20.5362 20.4826 21.2704 19.8604 22.0216 19.3074C22.7558 18.7543 23.5582 18.2704 24.429 18.063C24.4631 18.063 24.4631 18.0285 24.4631 18.0285Z" fill="#2F2C2C"/>
<path d="M104.465 29.0375H113.206C111.465 28.0005 110.919 27.0154 109.826 24.4402C103.816 10.3375 101.682 5.4292 101.682 5.4292C101.682 5.4292 100.367 7.67596 96.0817 8.55738C96.3719 8.74749 96.6963 9.3351 96.6963 9.92272C96.6963 10.2857 96.628 10.8041 96.3378 11.4782L90.6182 24.4402C89.423 27.1709 88.6889 28.3461 87.0157 28.9338C85.701 28.156 85.4108 27.4302 85.4108 24.6995V11.3226C85.4108 8.52281 85.701 7.77966 87.1181 6.98465H79.3326C80.7497 7.79694 81.0399 8.48825 81.0399 11.3226V15.8853H70.1983V11.3226C70.1983 8.48825 70.4544 7.77966 71.9056 6.98465H64.0859C65.5372 7.79694 65.7933 8.48825 65.7933 11.3226V24.6995C65.7933 27.5339 65.5372 28.2424 64.0859 29.0375H71.9056C70.4544 28.2252 70.1983 27.5339 70.1983 24.6995V18.9616H81.0399V24.6995C81.0399 27.4993 80.7497 28.2424 79.2984 29.0375H94.7329C93.9646 28.5881 93.3841 27.9659 93.3841 27.1191C93.3841 26.5315 93.606 26.1167 94.067 24.976L95.2963 22.0207H103.918L105.233 25.3389C105.592 26.2204 105.745 26.5833 105.745 27.1364C105.745 27.9659 105.045 28.6227 104.465 29.0375ZM96.4232 19.3073L99.7013 11.3918L102.86 19.3073H96.4232Z" fill="#2F2C2C"/>
<path d="M119.32 24.6824V11.3055C119.32 8.47113 119.611 7.81438 120.994 6.96753H113.242C114.659 7.81438 114.915 8.47113 114.915 11.3055V24.6824C114.915 27.5167 114.659 28.1735 113.242 29.0203H120.994C119.611 28.1908 119.32 27.5167 119.32 24.6824Z" fill="#2F2C2C"/>
<path d="M63.389 5.46382C62.5865 6.12056 61.3231 6.96742 57.8572 6.96742H48.1082C46.1789 6.96742 45.4106 5.82676 45.052 5.11816C44.3179 6.81187 42.4398 9.21418 41.2617 10.1993H50.396C50.396 10.5277 50.396 10.8906 50.396 11.3054V24.423C50.396 27.2574 50.0375 28.1388 48.6545 29.0202H56.4742C55.0571 28.1734 54.801 27.5166 54.801 24.6823V11.3054C54.801 10.9079 54.7669 10.6486 54.7669 10.1993H56.1157C58.045 10.1993 59.0694 9.97462 59.8718 9.68081C61.9719 8.92037 63.2524 7.41677 63.389 5.46382Z" fill="#2F2C2C"/>
</g>
<defs>
<clipPath id="clip0">
<rect width="121" height="36" fill="white"/>
</clipPath>
</defs>
</svg>
