<svg width="36" height="14" viewBox="0 0 36 14" fill="none" xmlns="http://www.w3.org/2000/svg">
<path d="M35.804 8.04167C35.7205 8.39032 35.6579 8.73897 35.5535 9.08762C35.0317 10.7488 33.9464 11.9178 32.2976 12.5126C30.1061 13.3124 27.9564 13.1689 25.9527 11.9383C24.4291 10.9949 23.5525 9.60034 23.2395 7.85709C22.989 6.46249 23.0725 5.0884 23.636 3.79635C24.4709 1.84801 26.0153 0.679009 28.0816 0.207306C29.6887 -0.161852 31.2749 -0.0182905 32.7568 0.699517C34.4265 1.51987 35.3866 2.87345 35.7205 4.67822C35.7414 4.82179 35.6579 4.82179 35.5744 4.82179C34.9483 4.82179 34.343 4.82179 33.7169 4.82179C33.4038 4.82179 33.0907 4.82179 32.7776 4.82179C32.6107 4.82179 32.5272 4.78077 32.4646 4.6167C32.1515 3.85787 31.6297 3.30414 30.8157 3.09905C29.5426 2.7504 28.3738 2.89396 27.4137 3.87838C26.8502 4.45263 26.5997 5.19094 26.5163 5.97028C26.4119 6.77012 26.5371 7.54946 26.8919 8.26726C27.3929 9.2722 28.2068 9.90797 29.3339 10.031C30.7531 10.1951 32.1098 9.60034 32.5689 8.1237C32.5898 8.06218 32.6733 8.00065 32.715 8.00065C33.7169 8.00065 34.7187 8.00065 35.7205 8.00065C35.7414 8.00065 35.7414 8.02116 35.804 8.04167Z" fill="white"/>
<path d="M14.3486 12.8615C14.2442 12.8615 14.1816 12.8615 14.0981 12.8615C13.1172 12.8615 12.1571 12.8615 11.1762 12.8615C11.0092 12.8615 10.9257 12.7999 10.8631 12.6564C10.6753 12.2462 10.4665 11.836 10.2787 11.4053C10.2161 11.2823 10.1535 11.2413 10.0074 11.2413C8.42115 11.2413 6.8558 11.2413 5.26958 11.2413C5.12348 11.2413 5.04 11.3028 4.97738 11.4258C4.78954 11.8565 4.58083 12.2667 4.39299 12.6974C4.35124 12.7999 4.28863 12.8615 4.1634 12.8615C3.14071 12.8615 2.11801 12.8615 1.07445 12.8615C1.0327 12.8615 1.01183 12.8615 0.949219 12.8409C0.97009 12.7589 0.990961 12.6974 1.0327 12.6359C2.24324 10.1543 3.4329 7.65222 4.6017 5.15014C5.35307 3.52995 6.1253 1.93026 6.87667 0.310067C6.93929 0.187015 7.0019 0.125488 7.148 0.125488C7.48194 0.145997 7.81588 0.125488 8.14982 0.125488C8.29592 0.125488 8.35853 0.166506 8.42115 0.289559C9.65256 2.89418 10.884 5.49879 12.1154 8.10341C12.825 9.62106 13.5555 11.1182 14.2651 12.6359C14.3069 12.7179 14.3277 12.7589 14.3486 12.8615ZM9.17252 8.51359C8.6716 7.36509 8.17069 6.25762 7.66978 5.15014C7.64891 5.15014 7.62804 5.15014 7.60717 5.15014C7.12713 6.25762 6.64709 7.36509 6.14618 8.51359C7.18974 8.51359 8.14982 8.51359 9.17252 8.51359Z" fill="white"/>
<path d="M14.0562 6.25745C14.1397 6.25745 14.2232 6.25745 14.2858 6.25745C15.2042 6.25745 16.1225 6.25745 17.0408 6.25745C17.7713 6.25745 18.2305 5.92931 18.4392 5.25252C18.5853 4.76031 18.5853 4.28861 18.3557 3.81691C18.1053 3.28368 17.6879 3.03757 17.1243 3.01706C15.6216 3.01706 14.1397 3.01706 12.637 3.01706C12.4909 3.01706 12.4074 2.97605 12.3448 2.85299C11.9274 1.99162 11.51 1.13025 11.0925 0.289394C11.0717 0.248377 11.0717 0.227868 11.0508 0.166342C11.1134 0.166342 11.176 0.166342 11.2386 0.166342C13.2423 0.166342 15.225 0.145833 17.2287 0.166342C18.481 0.18685 19.608 0.556009 20.5055 1.4789C21.2151 2.19671 21.5908 3.07859 21.716 4.08352C21.8621 5.45761 21.5282 6.66763 20.589 7.71358C20.422 7.91867 20.1924 8.08274 19.9837 8.24681C19.8585 8.34935 19.8585 8.41088 19.942 8.53393C20.7977 9.88751 21.6534 11.2616 22.4883 12.6152C22.53 12.6767 22.5717 12.7382 22.6135 12.8203C22.5509 12.8203 22.4883 12.8408 22.4465 12.8408C21.2777 12.8408 20.0881 12.8408 18.9193 12.8408C18.7523 12.8408 18.6688 12.7793 18.6062 12.6562C17.9383 11.5282 17.2704 10.4002 16.6026 9.25174C16.5399 9.12868 16.4565 9.08767 16.3104 9.08767C16.0599 9.10818 15.8094 9.10818 15.5799 9.08767C15.5172 9.08767 15.4129 9.02614 15.392 8.98512C14.9537 8.10325 14.5154 7.22137 14.098 6.33949C14.0771 6.33949 14.0771 6.31898 14.0562 6.25745Z" fill="white"/>
</svg>
