<svg width="244" height="187" viewBox="0 0 244 187" fill="none" xmlns="http://www.w3.org/2000/svg">
<path d="M135.027 172.449L126.562 93.7248C126.435 92.5424 127.362 91.511 128.551 91.511H147.846C148.754 91.511 149.548 92.1231 149.78 93.0015L170.709 172.449H135.027Z" stroke="#FCF5F0"/>
<path d="M218.574 76.866V185.718H167.895C167.576 175.905 167.13 149.098 167.895 120.376C168.625 92.968 199.018 79.0731 216.199 74.9475C217.428 74.6524 218.574 75.6022 218.574 76.866Z" fill="#FCF5F0"/>
<path d="M31.1466 115.554C31.2792 114.844 31.8989 114.329 32.6211 114.329H62.3308C63.2695 114.329 63.9776 115.182 63.8053 116.105L50.8987 185.218H18.1372L31.1466 115.554Z" stroke="#FCF5F0"/>
<path d="M72.8867 59.7926L47.9961 185.503H134.156L129.214 60.7206C129.087 57.5018 126.44 54.958 123.219 54.958H78.7724C75.908 54.958 73.443 56.9827 72.8867 59.7926Z" fill="#FCF5F0" stroke="#FCF5F0"/>
<path d="M77.3945 83.0819L79.1268 70.0901H89.5203L87.788 83.0819H77.3945Z" stroke="#A50515"/>
<path d="M75.2305 122.491L76.9627 109.499H87.3562L85.6239 122.491H75.2305Z" fill="#A50515"/>
<path d="M83.4609 102.137L85.1932 89.145H95.5867L93.8544 102.137H83.4609Z" stroke="#A50515"/>
<path d="M97.3164 83.0819L99.0487 70.0901H109.442L107.71 83.0819H97.3164Z" fill="#A50515"/>
<path d="M95.1523 122.491L96.8846 109.499H107.278L105.546 122.491H95.1523Z" stroke="#A50515"/>
<path d="M81.2969 147.175L83.0291 134.183H93.4226L91.6903 147.175H81.2969Z" stroke="#A50515"/>
<path d="M37 139L38.1429 130H45L43.8571 139H37Z" fill="#FCF5F0"/>
<path d="M103.379 102.137L105.111 89.145H115.505L113.772 102.137H103.379Z" stroke="#A50515"/>
<path d="M217.815 137.822C244.337 119.243 250.413 72.0349 62.542 31.8328" stroke="#FCF5F0"/>
<path d="M57.0584 29.3075L41.0391 26.4263L58.3713 34.6606L57.2447 32.0183L59.0873 32.3771L61.1207 28.3112L57.0584 29.3075Z" fill="#FCF5F0"/>
<path d="M109.438 141.049V185.718H209.042L175.493 139.2C173.614 136.594 170.596 135.049 167.383 135.049H115.438C112.124 135.049 109.438 137.736 109.438 141.049Z" fill="#2F2C2C" stroke="#2F2C2C"/>
<path d="M131.957 160.167L130.225 147.175H119.831L121.564 160.167H131.957Z" stroke="#FCF5F0"/>
<path d="M147.98 160.167L146.248 147.175H135.855L137.587 160.167H147.98Z" stroke="#FCF5F0"/>
<path d="M172.438 160.167L170.705 147.175H160.312L162.044 160.167H172.438Z" stroke="#FCF5F0"/>
<path d="M7.96238 166.06L1 185.503H49.7367L41.6139 166.06L24.2079 151.561L7.96238 166.06Z" fill="#FCF5F0" stroke="#FCF5F0"/>
<path d="M20.4028 172.448L18.4062 186.373H29.7201L27.7236 172.448H20.4028Z" fill="#A50515"/>
</svg>
