<svg width="135" height="37" viewBox="0 0 135 37" fill="none" xmlns="http://www.w3.org/2000/svg">
<g clip-path="url(#clip0)">
<path d="M99.3911 14.0532H95.975L93.0845 8.62201L91.048 14.0532H87.632L91.048 4.88806H95.0553L97.6174 9.70824L99.3911 4.88806H102.807L99.3911 14.0532ZM47.9531 10.9982C46.7706 14.1211 43.9458 14.3926 41.9093 14.3926C40.9239 14.3926 39.9385 14.3248 38.9531 14.0532L39.6758 12.0844C41.6466 12.2881 43.2889 12.1523 43.9458 10.3871L45.9823 4.88806H50.1867L47.9531 10.9982ZM71.9312 4.88806H65.3619L61.9458 14.0532H66.1502L67.3984 10.7266H69.7633C73.7049 10.7266 75.8071 9.64036 76.4641 7.80733C77.1867 5.9743 75.8728 4.88806 71.9312 4.88806ZM72.2597 7.80733C71.9312 8.48623 71.2086 8.96146 70.4203 8.96146H68.0553L68.9093 6.6532H71.2743C72.0626 6.6532 72.5225 7.12843 72.2597 7.80733ZM60.0407 4.88806H56.2305C55.705 4.88806 55.2451 5.15962 54.9166 5.56696L47.8217 14.0532H51.3035L52.7487 12.2881H56.559L56.6247 14.0532H60.829L60.0407 4.88806ZM54.1283 10.455L56.4276 7.53577L56.4933 10.455H54.1283ZM85.7268 4.88806H81.9823C81.4568 4.88806 80.9969 5.15962 80.6685 5.56696L73.5736 14.0532H77.0553L78.5006 12.2881H82.3108L82.3765 14.0532H86.5809L85.7268 4.88806ZM79.8801 10.455L82.1794 7.53577L82.2451 10.455H79.8801Z" fill="black"/>
<path d="M133.882 28.4459C132.963 30.822 129.875 31.5688 126.525 31.5688C123.174 31.5688 121.072 30.822 121.532 28.4459H125.736C125.605 29.0569 125.999 29.5321 127.247 29.5321C128.495 29.5321 129.349 29.1248 129.547 28.4459C130.138 26.8844 121.729 28.4459 123.109 24.8477C123.831 22.811 126.787 21.9285 130.138 21.9285C133.423 21.9285 135.328 22.6753 134.933 24.8477H130.795C130.86 24.2367 130.663 23.7615 129.415 23.7615C128.167 23.7615 127.51 24.2367 127.313 24.8477C126.722 26.4092 135.196 24.8477 133.882 28.4459ZM59.7145 31.2973H55.5101L58.9261 22.1321H63.1305L59.7145 31.2973ZM91.7729 31.2973H87.5685L90.9845 22.1321H95.1889L91.7729 31.2973ZM119.101 31.2973H108.787L112.204 22.1321H122.517L121.86 23.8973H115.817L115.16 25.7303H120.218L119.561 27.4954H114.503L113.846 29.3285H119.89L119.101 31.2973ZM106.094 31.2973H102.678L99.7875 25.8661L97.751 31.2973H94.3349L97.751 22.1321H101.758L104.32 26.9523L106.094 22.1321H109.51L106.094 31.2973ZM72.3276 22.1321H65.7583L62.3422 31.2973H66.5466L67.7948 27.9707H69.0429L69.897 31.2973H74.5612L73.4444 27.6312C75.3495 27.156 76.4663 26.2734 76.9261 25.0514C77.5174 23.2184 76.2692 22.1321 72.3276 22.1321ZM72.6561 25.0514C72.3276 25.7303 71.605 26.2055 70.8167 26.2055H68.4517L69.3057 23.8973H71.6707C72.459 23.8973 72.8532 24.3725 72.6561 25.0514ZM81.5904 29.3285L84.2838 22.1321H80.0794L76.6634 31.2973H86.2546L86.9772 29.3285H81.5904ZM53.5393 22.1321H49.7291C49.2035 22.1321 48.7437 22.4037 48.4152 22.811L41.3203 31.2973H44.8021L46.2473 29.5321H50.0575L50.1232 31.2973H54.3276L53.5393 22.1321ZM47.6269 27.6991L49.9262 24.7798L49.9918 27.6991H47.6269Z" fill="black"/>
<path d="M35.473 20.1633C35.6044 18.8055 35.5387 17.4478 35.4073 16.09C34.816 18.6019 33.4365 20.7744 31.4657 22.3358C33.5679 20.0955 34.816 17.1762 35.0788 14.0533C34.6847 12.4239 34.0934 10.8624 33.2394 9.36885C33.2394 9.36885 33.1737 9.36885 33.2394 9.36885C33.6993 13.1028 32.5825 16.8367 30.1518 19.6202C32.5168 16.09 33.3051 11.6771 32.1883 7.53582C26.2759 -0.678857 15.0423 -2.44399 7.09342 3.6661C5.64817 4.75234 4.39999 6.04224 3.3489 7.53582C2.23211 11.6771 3.02043 16.09 5.38539 19.6202C2.95474 16.8367 1.77225 13.1028 2.2978 9.36885C1.50948 10.7945 0.852546 12.4239 0.458385 14.0533C0.721159 17.1762 1.96933 20.0955 4.07152 22.3358C2.10072 20.7744 0.721159 18.6019 0.129918 16.09C-0.0671621 17.4478 -0.0671621 18.8055 0.0642248 20.1633C0.721159 22.0643 1.83795 23.7615 3.3489 25.0514C2.23211 24.3725 1.18101 23.4221 0.392692 22.2679C2.42919 32.3156 11.9547 38.6973 21.6774 36.5927C28.6409 35.0991 34.0277 29.4643 35.5387 22.2679C34.7504 23.3542 33.7649 24.3046 32.5825 25.0514C33.6993 23.7615 34.816 22.0643 35.473 20.1633ZM10.9693 32.2477C10.3781 32.2477 9.85255 32.1799 9.2613 32.0441L9.65547 30.8899C10.7723 31.0257 11.7577 30.9578 12.0861 29.9395L13.2686 26.7487H15.6993L14.3854 30.2789C13.7942 32.112 12.1518 32.2477 10.9693 32.2477ZM19.3124 32.0441L19.2467 31.0257H17.0131L16.2248 32.0441H14.1883L18.2613 27.156C18.4584 26.9523 18.7212 26.7487 18.9839 26.7487H21.1518L21.6117 32.0441H19.3124ZM27.9839 32.0441H22.4L24.3708 26.7487H26.8014L25.2248 30.8899H28.3124L27.9839 32.0441ZM25.7504 20.9101C22.0715 24.5762 16.619 22.2679 17.1445 17.7193C17.6044 14.2569 21.7431 10.7266 24.8306 8.89362C24.8306 8.89362 24.8306 8.89362 24.8306 8.82573C24.1737 8.21472 23.5825 7.53582 22.9912 6.85692C21.7431 5.22757 19.5095 4.95601 17.9328 6.24591C17.6701 6.44958 17.4073 6.72114 17.2102 6.9927L8.21021 7.80738L17.8671 8.3505C19.5752 8.48628 20.1664 10.0477 18.4584 11.3377C12.2832 16.1578 11.2321 21.2496 12.6117 25.2551C12.0204 24.3725 11.6263 23.4221 11.4292 22.3358C6.04233 18.8055 4.46568 11.4055 7.88174 5.83857C11.2978 0.271602 18.4584 -1.35776 23.8452 2.17252C29.2321 5.70279 30.8087 13.1028 27.3927 18.6698C26.8671 19.5523 26.3416 20.2312 25.7504 20.9101ZM17.8671 30.0074H19.2467L19.181 28.3101L17.8671 30.0074Z" fill="#CC0000"/>
</g>
<defs>
<clipPath id="clip0">
<rect width="135" height="37" fill="white"/>
</clipPath>
</defs>
</svg>
