<svg width="118" height="41" viewBox="0 0 118 41" fill="none" xmlns="http://www.w3.org/2000/svg">
<g clip-path="url(#clip0)">
<path d="M66.0738 3.7591L64.5801 2.36401L63.0078 3.91411L64.5801 5.4642L66.0738 3.7591Z" fill="#BD8B13"/>
<path d="M69.2193 3.7591L68.9834 3.68159L67.5684 2.36401L65.9961 3.91411L67.5684 5.4642L69.2193 3.7591Z" fill="#BD8B13"/>
<path d="M47.915 3.44902C47.915 3.75904 48.2295 3.91404 48.4653 3.99155C48.7798 4.06905 49.0943 4.30157 49.0943 4.7666V16.7023H62.4587V16.9348C62.4587 17.0123 62.4587 17.0123 62.4587 17.2449C62.4587 18.2524 62.7731 18.8725 63.3234 19.105C63.3234 19.105 63.6379 19.3375 64.1096 19.3375C64.424 19.3375 64.7385 19.26 65.1316 19.0275L65.3674 18.95L65.1316 18.7174C64.8171 18.4074 64.5813 17.4774 64.5813 16.9348V16.8573H69.534V5.85166C69.534 5.85166 68.905 7.24675 66.468 9.02936C66.468 9.02936 66.5466 9.49439 67.0183 9.7269C67.6472 10.0369 67.5686 10.4244 67.5686 10.4244V14.8422H64.5026V14.6097V14.3772C64.5026 13.2921 64.1882 10.657 61.2009 10.657H61.1222C60.2575 10.657 59.3927 10.657 58.6852 10.657H58.4494C56.7198 10.657 55.7765 10.4244 55.462 9.95941L55.3834 9.7269L55.3048 9.80441C54.9903 10.0369 54.7545 10.4244 54.7545 10.8895C54.7545 11.587 55.2262 12.4396 55.8551 12.4396C56.3268 12.4396 56.9557 12.4396 57.5846 12.4396C58.6852 12.4396 59.943 12.4396 59.943 12.4396C62.3801 12.4396 62.4587 13.5246 62.4587 13.9897V14.5322H50.981V-0.0386963C50.981 -0.0386963 49.6446 1.74391 47.7578 3.06149V3.139L47.915 3.44902Z" fill="#BD8B13"/>
<path d="M40.1314 18.5625C40.1314 18.5625 39.8956 20.3451 43.5905 20.3451C46.5778 20.3451 46.6564 18.485 46.6564 18.485V11.6645C46.6564 11.1995 46.5778 10.0369 45.32 10.0369H34.9429V9.26189C34.9429 9.02938 35.0215 9.02938 35.2573 8.95187C35.8076 8.64185 35.8863 8.25433 35.8076 8.09932C34.6284 7.40178 33.4492 5.85168 33.4492 5.85168V11.8195H43.8263H43.9049C44.2194 11.8195 44.6911 11.8971 44.6911 12.5946V17.3999C44.6911 17.3999 44.6911 18.4074 43.6691 18.4074C42.0182 18.4074 42.0968 17.5549 42.0968 17.5549V14.9197H33.4492V17.0124H40.2887V18.5625H40.1314Z" fill="#BD8B13"/>
<path d="M83.6065 4.84414C83.6065 4.30161 83.9209 4.1466 84.1568 4.06909C84.3926 3.99159 84.6284 3.83658 84.7071 3.37155V3.29405C84.7071 3.06153 84.6285 3.06153 84.3926 2.98403C84.1568 2.90652 83.8423 2.67401 83.2134 2.13148C82.1128 1.27892 81.877 0.813895 81.877 0.813895L81.5625 0.271362V16.9349H83.6851C83.6065 16.7799 83.6065 5.07665 83.6065 4.84414Z" fill="#BD8B13"/>
<path d="M76.5289 19.0275L75.1138 20.4226L73.6988 19.0275L75.1138 17.6324L76.5289 19.0275ZM71.7334 19.0275L75.1924 22.4377L78.6515 19.0275L76.5289 16.9349L79.0445 14.2997V0.193848C79.0445 0.193848 78.0225 2.28648 76.3716 3.37154V3.44905C76.3716 3.75907 76.6075 3.91407 76.8433 3.99158C77.0792 4.06908 77.315 4.3016 77.315 4.76663C77.315 5.23166 77.315 13.2146 77.315 13.2146L75.1924 15.3848L73.0698 13.2146C73.0698 13.1371 73.0698 5.07665 73.0698 4.76663C73.0698 4.22409 73.3057 4.06908 73.5415 3.99158C73.7774 3.91407 73.7774 3.75907 73.9346 3.44905V3.37154C72.3623 2.28648 71.2617 0.193848 71.2617 0.193848V14.4547L73.7774 17.0124L71.7334 19.0275Z" fill="#BD8B13"/>
<path d="M65.6042 26.3129L66.1545 26.623C66.2331 26.7005 66.2331 26.7005 66.2331 26.8555V31.2732H56.6422L54.441 33.9859V26.8555V26.778L54.5196 26.7005L54.9913 26.3904V25.9254H50.1172V26.3904L50.5889 26.7005L50.6675 26.778V39.8763V40.1088L50.5889 40.1863L50.1172 40.4963V40.9613H54.9913V40.4963L54.441 40.1863L54.3624 40.1088V34.1409L54.9127 34.2184L55.5416 33.9084L55.856 33.8309C55.856 33.8309 55.9346 33.8309 56.0919 33.8309H66.1545V38.4812L69.7708 34.6059V27.0105L69.8494 26.933L70.3997 26.7005V26.2354L65.6042 26.3129Z" fill="#BD8B13"/>
<path d="M117.646 31.6608C117.096 29.8782 115.759 28.4831 113.794 27.398C112.064 26.3905 109.47 26.0029 106.09 26.0029H92.9609V26.468L93.5112 26.778V28.3281H106.011C108.527 28.3281 110.413 28.6381 111.514 29.3356C113.243 30.3432 114.187 31.7383 114.187 33.3659C114.187 34.2184 113.951 34.9935 113.558 35.7685C113.086 36.4661 112.379 37.0861 111.435 37.5511C110.256 38.2487 108.369 38.5587 105.932 38.5587H99.4073V29.3356H95.8697V39.7988V39.8763L95.7911 39.9538L95.3194 40.1863V40.6513H106.011C108.133 40.6513 109.627 40.5738 110.885 40.3413C112.457 40.0313 113.872 39.4888 114.973 38.7137C116.152 37.9387 117.095 36.9311 117.489 36.001C117.803 35.226 118.039 34.4509 118.039 33.5984C117.803 32.9008 117.646 32.2033 117.646 31.6608Z" fill="#BD8B13"/>
<path d="M77.3156 28.6381L65.5234 40.6513H70.9478V40.1088H70.712H70.4761H70.2403L79.2023 30.8082L77.3156 28.6381Z" fill="#BD8B13"/>
<path d="M89.109 40.2638V40.8063H94.3762L80.2256 26.0029L78.103 28.1731L80.4615 30.5757L82.8985 32.9784H78.8106L76.6094 35.3035L77.0811 35.6135L77.6314 35.3035H77.71C77.71 35.3035 77.9458 35.3035 78.0244 35.3035H84.8639L89.5807 40.3413C89.5807 40.3413 89.5021 40.4188 89.109 40.4188H89.0304V40.2638H89.109Z" fill="#BD8B13"/>
<path d="M48.1514 26.6229L48.6231 26.3129V25.8479H43.9062V26.3129L44.3779 26.6229L44.6138 26.8555V39.7212V39.9538L44.5352 40.0313L43.9849 40.2638V40.7288H48.7017V40.2638L48.23 40.0313L48.1514 39.9538V26.8555V26.778V26.6229Z" fill="#BD8B13"/>
<path d="M24.4095 37.8611H24.1736H23.6233L22.9944 38.1711C22.9158 38.2486 22.7586 38.2486 22.68 38.2486H11.9884C9.55139 38.2486 7.66464 37.9386 6.48543 37.2411C4.59869 36.2335 3.73393 34.9159 3.73393 33.0558C3.73393 32.2808 3.96977 31.4282 4.52007 30.7307C5.38483 29.4131 6.72127 28.4055 8.68663 28.0955C9.23693 28.018 9.70862 28.018 10.0231 28.018H15.5261C15.8405 28.018 15.8405 28.0955 15.8405 28.0955L15.7619 28.5605H16.155L18.5134 25.6929H11.9098C10.3375 25.6929 9.15832 25.6929 8.37217 25.7704C7.90049 25.7704 7.50742 25.8479 7.19296 26.0029C6.09236 26.2354 5.07037 26.7004 4.127 27.243C2.39749 28.173 1.21828 29.3356 0.589362 30.6532C0.274905 31.4282 0.0390625 32.2808 0.0390625 33.2883C0.0390625 35.691 1.3755 37.5511 3.89116 39.0237C4.99176 39.7212 6.3282 40.1088 7.74326 40.3413C8.84386 40.5738 10.2589 40.5738 12.067 40.5738H22.0511L24.4095 37.8611Z" fill="#BD8B13"/>
<path d="M19.0651 34.3734L21.4236 31.5057H5.77932L4.20703 33.8309H18.279C18.5148 33.8309 18.5934 33.9084 18.5934 33.9084L18.5148 34.3734H19.0651Z" fill="#BD8B13"/>
<path d="M20.2442 25.8479L18.043 28.5606L18.5147 28.6381H18.5933L19.2222 28.3281C19.458 28.2505 19.5366 28.0955 19.7725 28.0955H28.42V39.6437V39.7212L28.3414 39.7988L27.8698 40.1088V40.5738H32.7438V40.1088L32.2722 39.7988L32.1935 39.7212V39.6437V28.173H39.8191C40.1336 28.173 40.1336 28.2505 40.1336 28.2505V28.7156H40.6053L42.9637 25.8479H20.2442Z" fill="#BD8B13"/>
</g>
<defs>
<clipPath id="clip0">
<rect width="118" height="41" fill="white"/>
</clipPath>
</defs>
</svg>
