<svg width="132" height="31" viewBox="0 0 132 31" fill="none" xmlns="http://www.w3.org/2000/svg">
<path d="M24.552 0H41.096C38.544 10.3333 36.08 20.6667 33.528 31H0V30.6437V31C8.184 20.6667 16.368 10.3333 24.552 0ZM22.704 5.96839C22.704 8.1954 22.704 10.4224 22.704 12.6494C20.504 12.6494 18.304 12.6494 16.104 12.6494C16.104 14.5201 16.104 16.4799 16.104 18.3506C18.304 18.3506 20.504 18.3506 22.704 18.3506C22.704 20.5776 22.704 22.8046 22.704 25.0316C24.64 25.0316 26.488 25.0316 28.424 25.0316C28.424 22.8046 28.424 20.5776 28.424 18.3506C30.624 18.3506 32.824 18.3506 35.024 18.3506C35.024 16.4799 35.024 14.5201 35.024 12.6494C32.824 12.6494 30.624 12.6494 28.424 12.6494C28.424 10.4224 28.424 8.1954 28.424 5.96839C26.488 5.96839 24.552 5.96839 22.704 5.96839Z" fill="#E60005"/>
<path d="M46.4654 6.94831C48.2254 5.43394 50.6014 4.98854 52.8014 5.07762C54.8254 5.1667 57.1134 5.70118 58.5214 7.30463C59.4014 8.28451 59.6654 9.53164 59.7534 10.8678C58.1694 10.8678 56.4974 10.8678 54.9134 10.8678C54.8254 9.97704 54.3854 8.99716 53.4174 8.72992C52.1854 8.37359 50.6014 8.46267 49.8974 9.62072C49.3694 10.6006 49.8974 11.7587 50.8654 12.2041C53.4174 13.5403 56.6734 13.8075 58.7854 15.9454C60.8094 18.3506 60.3694 22.4483 57.9054 24.4081C56.1454 25.8334 53.7694 26.1897 51.5694 26.0115C49.4574 25.9224 47.2574 25.2989 45.8494 23.7845C44.8814 22.7155 44.4414 21.2012 44.4414 19.7759C46.0254 19.7759 47.6974 19.7759 49.2814 19.7759C49.3694 20.3995 49.5454 21.1121 50.0734 21.6466C50.8654 22.4483 52.0974 22.6265 53.1534 22.4483C54.2094 22.2701 55.1774 21.2903 55.0894 20.1322C55.0894 19.3305 54.4734 18.796 53.7694 18.4397C51.5694 17.2816 48.8414 17.1035 46.8174 15.5891C44.1774 13.5403 43.9134 9.08624 46.4654 6.94831Z" fill="#E60005"/>
<path d="M100.846 6.94833C102.518 5.43396 104.806 5.07764 106.918 5.07764C109.03 5.16672 111.23 5.61212 112.726 7.21557C113.694 8.19545 114.046 9.53166 114.134 10.8679C112.55 10.8679 110.878 10.8679 109.294 10.8679C109.206 9.97706 108.854 9.08626 107.974 8.81902C106.918 8.46269 105.598 8.46269 104.63 9.17534C103.926 9.7989 103.926 10.9569 104.542 11.6696C105.246 12.3822 106.214 12.6495 107.094 12.9167C108.942 13.4512 110.878 13.9857 112.462 15.1437C115.19 17.1926 115.19 21.7357 112.726 23.9627C110.966 25.5661 108.502 26.0115 106.126 25.9225C104.014 25.8334 101.638 25.2989 100.142 23.6064C99.1744 22.5374 98.7344 21.1121 98.7344 19.5978C100.318 19.5978 101.99 19.5978 103.574 19.5978C103.75 20.2213 103.838 20.934 104.366 21.4684C105.334 22.4483 106.83 22.5374 108.062 22.092C109.382 21.6466 109.998 19.6868 108.942 18.7069C107.886 17.8161 106.478 17.4598 105.158 17.0144C103.31 16.4799 101.374 15.7673 100.23 14.1638C98.5584 12.115 98.7344 8.72994 100.846 6.94833Z" fill="#E60005"/>
<path d="M118.45 6.85917C120.386 5.25572 123.114 4.8994 125.578 5.16664C127.426 5.3448 129.45 6.05744 130.594 7.57181C131.298 8.46262 131.562 9.70974 131.65 10.8678C130.066 10.8678 128.394 10.8678 126.81 10.8678C126.634 10.2442 126.546 9.62066 126.018 9.17526C125.138 8.37354 123.818 8.46262 122.674 8.81894C121.794 9.08618 121.266 10.0661 121.53 10.9569C121.794 11.9368 122.762 12.3822 123.642 12.6494C125.754 13.362 127.954 13.8074 129.802 15.1437C132.53 17.1925 132.53 21.8247 130.066 24.0517C128.394 25.6551 125.93 26.1005 123.73 26.0115C121.618 25.9224 119.33 25.477 117.746 23.9626C116.602 22.8937 116.074 21.2902 116.162 19.7758C117.746 19.7758 119.418 19.7758 121.002 19.7758C121.09 20.8448 121.706 21.9138 122.674 22.2701C123.906 22.7155 125.578 22.6264 126.37 21.4684C127.074 20.5776 126.898 19.2414 125.93 18.6178C123.642 17.1034 120.562 17.1034 118.362 15.3218C115.986 13.273 115.898 8.90802 118.45 6.85917Z" fill="#E60005"/>
<path d="M60.3672 5.52295C62.0392 5.52295 63.7112 5.52295 65.3832 5.52295C66.5272 9.97697 67.5832 14.3419 68.6392 18.7959C69.9592 14.3419 71.1912 9.97697 72.4232 5.52295C74.0952 5.52295 75.6792 5.52295 77.3512 5.52295C78.6712 9.88789 79.8152 14.3419 81.2232 18.7069C82.1912 14.2528 83.4232 9.88789 84.4792 5.52295C86.1512 5.52295 87.8232 5.52295 89.4952 5.52295C87.6472 12.1149 85.8872 18.7959 84.0392 25.3879C82.2792 25.3879 80.5192 25.3879 78.8472 25.3879C77.5272 20.8448 76.2072 16.3017 74.9752 11.7586C73.6552 16.3017 72.4232 20.8448 71.1032 25.2988C69.3432 25.2988 67.5832 25.2988 65.9112 25.2988C63.9752 18.7959 62.2152 12.1149 60.3672 5.52295Z" fill="#E60005"/>
<path d="M91.4336 25.3879C91.4336 18.7959 91.4336 12.1149 91.4336 5.52295C93.1056 5.52295 94.8656 5.52295 96.5376 5.52295C96.5376 12.1149 96.5376 18.7959 96.5376 25.3879C94.8656 25.3879 93.1056 25.3879 91.4336 25.3879Z" fill="#E60005"/>
</svg>
