<svg width="136" height="50" viewBox="0 0 136 50" fill="none" xmlns="http://www.w3.org/2000/svg">
<path d="M0.00390625 47.0722H94.1563L92.2836 49.9958H0.00390625V47.0722Z" fill="#FCB130"/>
<path d="M111.296 45.7461H107.837L114.825 34.6952C114.825 34.6952 115.869 32.4075 114.5 29.9802L104.757 13.811C104.757 13.811 103.906 12.3065 104.757 10.8719L107.644 6.54456L119.073 25.2651C119.073 25.2651 122.021 29.1892 118.818 34.0438L111.296 45.7461Z" fill="#FCB130"/>
<path d="M119.653 42.3572L123.901 35.874C123.901 35.874 125.139 33.1985 128.343 33.1985H132.854L135.996 38.1695C135.996 38.1695 133.512 37.9136 132.406 39.6895L127.77 46.6922C127.77 46.6922 126.254 49.9648 122.214 49.9648H100.377L108.688 37.1768C108.688 37.1768 109.864 35.6801 108.223 33.1908L100.833 21.2791C100.833 21.2791 99.0147 19.5187 100.895 16.502L103.054 13.2216L113.331 29.9182C113.331 29.9182 115.149 32.2136 113.331 34.9512L105.615 47.0024H121.881C121.881 47.0024 123.715 47.3437 125.294 44.9861L129.333 38.7589C129.333 38.7589 130.254 36.6573 132.282 35.8042H129.016C129.016 35.8042 127.306 35.8663 126.006 37.9058L122.415 43.4739C122.415 43.4739 121.108 45.8314 118.229 45.8314H112.549L119.405 35.1683C119.405 35.1683 123.143 30.2439 120.519 25.7305L109.152 6.88581C109.152 6.88581 108.301 5.25727 109.283 3.73729L111.76 0.00713348L124.706 20.9069C124.706 20.9069 126.61 24.0399 126.61 26.4594C126.61 28.879 125.093 31.6243 124.257 33.0124L118.554 41.9229C118.554 41.9229 117.912 42.776 118.36 43.1017C118.817 43.4119 119.266 42.8302 119.653 42.3572Z" fill="#FCB130"/>
<path d="M47.4102 33.2915H49.4221V41.2792H54.336V42.993H47.4102V33.2915Z" fill="#1D4886"/>
<path d="M55.875 42.9852H57.8715V33.2837H55.875V42.9852Z" fill="#1D4886"/>
<path d="M31.3672 42.9852H33.3482V33.2837H31.3672V42.9852Z" fill="#1D4886"/>
<path d="M72.1562 33.2915H79.7398V34.8891H74.1682V37.2621H78.9041V39.0225H74.1682V41.38H79.7398V42.993H72.1562V33.2915Z" fill="#1D4886"/>
<path d="M82.8281 20.2554H90.4117V21.8529H84.8401V24.2105H89.5914V25.9709H84.8401V28.3284H90.4117V29.9259H82.8281V20.2554Z" fill="#1D4886"/>
<path d="M36.4219 42.9852V33.2837H42.1715C42.1715 33.2837 44.9418 33.3303 44.9418 36.1066C44.9418 36.1066 45.1972 38.4175 42.8524 39.3481L45.7698 42.9775H43.2935L39.2696 37.9445H41.3667C41.3667 37.9445 42.8679 37.9135 42.8679 36.3935C42.8679 34.9588 41.6607 34.8425 41.2893 34.8425H38.4571V42.9852H36.4219Z" fill="#1D4886"/>
<path d="M71.8008 29.9181V20.2554H77.5504C77.5504 20.2554 80.3207 20.3019 80.3207 23.0782C80.3207 23.0782 80.5606 25.3659 78.2236 26.3043L81.141 29.9181H78.6647L74.6408 24.9161H76.7378C76.7378 24.9161 78.2314 24.8851 78.2314 23.3651C78.2314 21.9149 77.0242 21.8141 76.6527 21.8141H73.8205V29.9181H71.8008Z" fill="#1D4886"/>
<path d="M31.5123 28.2431H34.2362V23.8072H36.1708V29.9259H31.1022C30.3438 29.9259 26.6913 29.0729 26.6604 25.2109C26.6294 21.3877 29.9646 20.2554 31.2492 20.2554H36.225V21.9693H31.729C31.729 21.9693 28.7188 21.9693 28.7188 25.1488C28.711 27.6072 31.2028 28.2431 31.5123 28.2431Z" fill="#1D4886"/>
<path d="M60.4961 33.2915H62.5235V34.796L63.7926 33.2915H66.1915C66.1915 33.2915 69.4726 33.1132 69.4726 36.6339V42.993H67.4296V36.3315C67.4296 36.3315 67.3677 35.0054 65.9826 35.0054H62.5235V42.993H60.4961V33.2915Z" fill="#1D4886"/>
<path d="M15.8281 20.2554H17.8401V21.7366L19.1092 20.2554H21.5081C21.5081 20.2554 24.8123 20.0771 24.8123 23.5978V29.9259H22.7694V23.2954C22.7694 23.2954 22.692 21.9693 21.3069 21.9693H17.8401V29.9181H15.8281V20.2554Z" fill="#1D4886"/>
<path d="M11.0625 29.9181H13.0435V20.2554H11.0625V29.9181Z" fill="#1D4886"/>
<path d="M81.9477 42.9698V41.3257H87.5502C87.5502 41.3257 88.6645 41.5351 88.6645 40.178C88.6645 38.8209 87.8288 38.9682 87.5193 38.9682H84.2846C84.2846 38.9682 81.7852 39.1466 81.7852 36.2074C81.7852 33.2838 84.2459 33.2838 84.2459 33.2838H90.3979V34.9976H85.0043C85.0043 34.9976 83.8281 34.9976 83.8281 36.1144C83.8281 37.2311 84.6174 37.4405 85.3603 37.4405H88.2467C88.2467 37.4405 90.6765 37.1846 90.6765 40.0849C90.6765 42.993 88.177 42.9775 88.177 42.9775H81.9477" fill="#1D4886"/>
<path d="M0.213286 29.9181V28.274H5.81584C5.81584 28.274 6.93016 28.4834 6.93016 27.1263C6.93016 25.7692 6.09442 25.9165 5.78489 25.9165H2.55026C2.55026 25.9165 0.0507812 26.0949 0.0507812 23.1712C0.0507812 20.2321 2.51157 20.2476 2.51157 20.2476H8.66355V21.9615H3.26993C3.26993 21.9615 2.0937 21.9615 2.0937 23.0782C2.0937 24.1949 2.89849 24.4043 3.62589 24.4043H6.50455C6.50455 24.4043 8.93439 24.1484 8.93439 27.0332C8.93439 29.9414 6.43491 29.9181 6.43491 29.9181H0.213286Z" fill="#1D4886"/>
<path d="M64.9143 19.6582C62.0125 19.6582 59.6445 22.0312 59.6445 24.9471C59.6445 27.8785 62.0125 30.2283 64.9143 30.2283C67.8472 30.2283 70.1841 27.8708 70.1841 24.9471C70.1919 22.0235 67.8549 19.6582 64.9143 19.6582ZM64.9143 28.2818C63.0958 28.2818 61.6178 26.7928 61.6178 24.9471C61.6178 23.1247 63.0881 21.6125 64.9143 21.6125C66.7483 21.6125 68.2496 23.1324 68.2496 24.9471C68.2573 26.7928 66.7483 28.2818 64.9143 28.2818Z" fill="#1D4886"/>
<path d="M44.1739 20.2554H42.0459L37.457 29.9181H39.7166L40.9393 27.1418H45.3114L46.5186 29.9181H48.7782L44.1739 20.2554ZM41.4964 25.7149L43.106 21.7598L44.7001 25.7071L41.4964 25.7149Z" fill="#1D4886"/>
<path d="M25.3184 33.2915H23.1904L18.6016 42.993H20.8612L22.0838 40.2012H26.456L27.6632 42.993H29.9228L25.3184 33.2915ZM22.6487 38.7743L24.2583 34.8038L25.8524 38.7666L22.6487 38.7743Z" fill="#1D4886"/>
<path d="M55.3901 20.2554H50.0352V29.9181H52.0936V25.2263L53.2775 26.8626H55.3901C57.2473 26.8626 58.4854 25.3194 58.4854 23.559C58.4854 21.7986 57.2473 20.2554 55.3901 20.2554ZM55.3204 25.0712H52.0858V22.0313H55.3204C56.0478 22.0313 56.5431 22.8378 56.5431 23.559C56.5431 24.3112 56.0478 25.0712 55.3204 25.0712Z" fill="#1D4886"/>
</svg>
