<svg width="170" height="24" viewBox="0 0 170 24" fill="none" xmlns="http://www.w3.org/2000/svg">
<g clip-path="url(#clip0)">
<path d="M7.24497 11.5363C7.16587 11.5363 7.08678 11.4164 7.04723 11.3764L7.00768 11.2564C7.00768 11.2564 7.12633 11.2564 7.12633 11.2964C7.16587 11.3364 7.20542 11.4164 7.24497 11.5363ZM5.34669 10.4965C5.30714 10.4965 5.14895 10.3765 5.10941 10.2965C5.03031 10.1766 4.99076 10.0966 4.91167 9.97658C4.83257 9.89659 4.79303 9.8166 4.75348 9.65663V9.57664C4.83257 9.57664 4.91167 9.69662 4.91167 9.77661C4.95122 9.8166 4.95122 9.8566 4.99076 9.89659C5.03031 9.93659 5.03031 10.0166 5.06986 10.0566C5.10941 10.1366 5.1885 10.1765 5.22805 10.2565C5.2676 10.2965 5.30714 10.3365 5.30714 10.3765C5.34669 10.4165 5.38624 10.4965 5.34669 10.4965ZM4.83257 10.4565C4.79303 10.4565 4.79303 10.4165 4.75348 10.4165C4.67438 10.3765 4.63484 10.2965 4.63484 10.1766C4.71393 10.1766 4.79303 10.2965 4.83257 10.3365C4.83257 10.3765 4.87212 10.4165 4.83257 10.4565ZM3.05294 10.8165C3.05294 10.8564 3.05294 10.8564 3.05294 10.8165C2.9343 10.8165 2.9343 10.6965 2.89475 10.6565C2.8552 10.6165 2.8552 10.5365 2.81565 10.4965C2.77611 10.4565 2.77611 10.4165 2.73656 10.3765C2.69701 10.3365 2.69701 10.2565 2.65746 10.2165C2.65746 10.1766 2.61792 10.1766 2.61792 10.1366C2.57837 10.0566 2.53882 10.0166 2.49927 9.93659C2.49927 9.89659 2.49927 9.89659 2.45973 9.8566C2.45973 9.8166 2.42018 9.73662 2.42018 9.69662C2.42018 9.65663 2.42018 9.61663 2.42018 9.61663C2.49927 9.61663 2.53882 9.77661 2.57837 9.8566C2.61792 9.93659 2.65746 9.97658 2.69701 10.0166C2.73656 10.0566 2.73656 10.1366 2.77611 10.2165C2.81565 10.2565 2.8552 10.2965 2.8552 10.3365C2.89475 10.3765 2.89475 10.4565 2.9343 10.5365C2.97384 10.6165 3.01339 10.6565 3.05294 10.7365C3.05294 10.7765 3.05294 10.8165 3.05294 10.8165ZM2.73656 8.37682C2.73656 8.33683 2.69701 8.29683 2.69701 8.29683C2.69701 8.25684 2.69701 8.21684 2.65746 8.17685C2.61792 8.05687 2.53882 7.93688 2.49927 7.8169C2.45973 7.77691 2.45973 7.69692 2.45973 7.61693H2.49927L2.53882 7.65693C2.53882 7.65693 2.53882 7.69692 2.57837 7.69692C2.61792 7.73692 2.61792 7.77691 2.65746 7.8169C2.69701 7.89689 2.69701 8.01687 2.73656 8.09686C2.77611 8.13686 2.81565 8.21684 2.8552 8.25684C2.8552 8.29683 2.89475 8.33683 2.89475 8.37682C2.89475 8.41681 2.89475 8.45681 2.89475 8.45681C2.89475 8.4968 2.89475 8.4968 2.89475 8.4968C2.77611 8.5368 2.73656 8.45681 2.73656 8.37682ZM19.6233 15.9757C19.5442 15.6157 18.4764 15.7757 17.6064 15.6957C16.8154 15.6157 15.7872 15.4958 14.5612 15.0558C13.4144 14.6559 12.307 14.176 11.3184 13.656C11.3184 13.656 10.9229 13.4561 10.8833 13.4161C10.8042 13.3761 10.7251 13.3361 10.646 13.2961C10.646 13.2561 10.567 13.1761 10.5274 13.1761C10.4483 13.1361 10.4088 13.0961 10.3692 13.0561C10.2901 13.0161 10.211 12.9761 10.1715 12.9361C10.0924 12.8961 10.0133 12.8562 9.93419 12.7762C9.89465 12.7362 9.8551 12.7362 9.776 12.6962C9.73646 12.6562 9.65736 12.6162 9.61782 12.6162C9.53872 12.5762 9.49917 12.5362 9.42008 12.4562C9.38053 12.4162 9.34098 12.4162 9.26189 12.3762C9.22234 12.3362 9.14324 12.2962 9.1037 12.2562C9.06415 12.2162 9.0246 12.2162 9.0246 12.1763C8.98506 12.1363 8.90596 12.0563 8.86641 12.0163C8.82687 11.9763 8.74777 11.9363 8.70822 11.8963C8.66868 11.8563 8.62913 11.8163 8.58958 11.8163C8.51049 11.7363 8.43139 11.6963 8.3523 11.6563C8.31275 11.6163 8.23365 11.5763 8.19411 11.5363C8.11501 11.4964 8.07546 11.4164 7.99637 11.3764C7.95682 11.3364 7.91727 11.2964 7.87773 11.2964C7.83818 11.2564 7.79863 11.2164 7.75908 11.1764C7.71954 11.1364 7.67999 11.0964 7.64044 11.0564C7.60089 10.9764 7.5218 10.8964 7.44271 10.8564C7.40316 10.8165 7.40316 10.8165 7.36361 10.7765C7.36361 10.7765 7.32406 10.7365 7.28452 10.6965C7.24497 10.6565 7.24497 10.6565 7.20542 10.6165C7.20542 10.6165 7.16587 10.5765 7.12633 10.5365C7.12633 10.5365 7.08678 10.4965 7.04723 10.4565C7.00768 10.4165 7.00768 10.4165 7.00768 10.3765C6.96814 10.3365 6.92859 10.2965 6.88904 10.2565C6.84949 10.2165 6.84949 10.2165 6.80995 10.1766C6.80995 10.1766 6.7704 10.1366 6.7704 10.0966L6.73085 10.0566C6.6913 10.0166 6.6913 10.0566 6.6913 10.0566C6.6913 10.0566 6.65176 10.0966 6.6913 10.1366C6.73085 10.1766 6.73085 10.2165 6.7704 10.2565C6.7704 10.2565 6.7704 10.2965 6.80995 10.2965C6.80995 10.3365 6.84949 10.3365 6.84949 10.3765C6.88904 10.4165 6.92859 10.4565 6.96814 10.4965L7.00768 10.5365C7.04723 10.5765 7.04723 10.5765 7.04723 10.6165C7.04723 10.6565 7.08678 10.6565 7.12633 10.6965L7.16587 10.7365L7.20542 10.7765C7.24497 10.7765 7.24497 10.8165 7.24497 10.8165C7.28452 10.8564 7.32406 10.8964 7.32406 10.8964C7.36361 10.9364 7.36361 10.9364 7.40316 10.9764C7.48225 11.0564 7.5218 11.1364 7.60089 11.2164C7.64044 11.2564 7.67999 11.2964 7.71954 11.3364C7.75908 11.3764 7.79863 11.4164 7.83818 11.4564C7.87773 11.4964 7.91727 11.5363 7.95682 11.5763C8.03592 11.6563 8.07546 11.6963 8.15456 11.7763C8.19411 11.8163 8.23365 11.8563 8.2732 11.8963C8.31275 11.9363 8.3523 12.0163 8.39184 12.0163C8.47094 12.0963 8.51049 12.1763 8.47094 12.1763C8.43139 12.1763 8.31275 12.0963 8.23365 12.0563C8.19411 11.9763 8.19411 11.9763 8.11501 11.9363C8.11501 11.9363 8.03592 11.8563 7.99637 11.8163C7.95682 11.7763 7.91727 11.7363 7.87773 11.6963C7.79863 11.5763 7.75908 11.5763 7.64044 11.4564C7.56135 11.3764 7.44271 11.2964 7.36361 11.2164C7.32406 11.1764 7.32406 11.1764 7.28452 11.1364C7.24497 11.0964 7.24497 11.0964 7.20542 11.0564C7.16587 11.0164 7.12633 10.8964 7.08678 10.8964C7.04723 10.8565 7.00768 10.8165 6.96814 10.7765L6.92859 10.7365C6.88904 10.7365 6.88904 10.6965 6.84949 10.6965C6.80995 10.6165 6.73085 10.5365 6.6913 10.4965C6.65176 10.4565 6.61221 10.4165 6.61221 10.4165C6.57266 10.3365 6.53311 10.2565 6.45402 10.1766C6.37492 10.0966 6.25628 10.0166 6.21673 9.89659C6.13764 9.77661 6.09809 9.65663 6.019 9.57664C5.97945 9.53665 5.9399 9.49665 5.90035 9.45666C5.90035 9.41666 5.86081 9.41666 5.86081 9.37667C5.82126 9.33668 5.78171 9.25669 5.74217 9.21669C5.70262 9.13671 5.66307 9.05672 5.62352 8.97673C5.62352 8.97673 5.58398 8.89674 5.58398 8.85675C5.54443 8.81675 5.54443 8.77676 5.50488 8.73677C5.46533 8.69677 5.46533 8.65678 5.42579 8.61678C5.38624 8.57679 5.38624 8.5368 5.38624 8.4968C5.38624 8.45681 5.34669 8.41681 5.30714 8.41681C5.2676 8.33682 5.2676 8.29683 5.1885 8.25684C5.14895 8.21684 5.10941 8.17685 5.10941 8.17685C5.06986 8.17685 5.10941 8.21684 5.10941 8.21684C5.14895 8.25684 5.14895 8.25684 5.14895 8.29683C5.1885 8.37682 5.1885 8.41681 5.22805 8.45681C5.22805 8.4968 5.2676 8.57679 5.30714 8.57679C5.34669 8.61678 5.34669 8.65678 5.38624 8.69677C5.42579 8.73677 5.42579 8.81675 5.46533 8.85675C5.50488 8.89674 5.50488 8.93674 5.54443 8.97673C5.58398 9.05672 5.62352 9.13671 5.66307 9.1767C5.70262 9.21669 5.70262 9.29668 5.74217 9.33668C5.78171 9.41667 5.86081 9.49665 5.90035 9.57664C5.9399 9.61663 5.97945 9.69662 5.97945 9.73662C6.019 9.77661 6.05855 9.8166 6.09809 9.8566C6.13764 9.89659 6.13764 9.97658 6.17719 10.0566C6.21673 10.0966 6.25628 10.1366 6.29583 10.1766C6.33538 10.2565 6.37492 10.3365 6.45402 10.4165C6.49357 10.4565 6.53311 10.4965 6.57266 10.5365C6.61221 10.5765 6.65176 10.6565 6.6913 10.6965C6.73085 10.7365 6.7704 10.7765 6.80995 10.8165C6.84949 10.8964 7.00768 11.0964 7.00768 11.0964C6.92859 11.0964 6.7704 10.9364 6.6913 10.8564C6.65176 10.8165 6.57266 10.7765 6.53311 10.6965C6.49357 10.6165 6.45402 10.5365 6.37492 10.4565C6.33538 10.4165 6.33538 10.4165 6.29583 10.3765C6.25628 10.3365 6.21673 10.2565 6.17719 10.2165L6.13764 10.1766C6.05854 10.0966 6.019 9.97658 5.9399 9.89659C5.90035 9.8566 5.86081 9.8166 5.86081 9.77661C5.82126 9.73662 5.82126 9.69662 5.82126 9.69662C5.78171 9.65663 5.74217 9.61663 5.74217 9.57664C5.70262 9.53665 5.70262 9.49665 5.70262 9.49665C5.66307 9.45666 5.62352 9.37667 5.58398 9.33668C5.54443 9.29668 5.54443 9.21669 5.50488 9.1767C5.42579 9.05672 5.34669 8.93674 5.2676 8.81675C5.2676 8.77676 5.22805 8.73677 5.22805 8.73677C5.14895 8.65678 5.10941 8.53679 5.06986 8.45681C5.03031 8.41681 5.03031 8.37682 5.03031 8.33683C4.99076 8.29683 4.95122 8.25684 4.95122 8.21684C4.91167 8.17685 4.91167 8.13686 4.91167 8.09686C4.87212 8.05687 4.87212 8.01687 4.83257 7.93689C4.83257 7.89689 4.79303 7.89689 4.79303 7.8569C4.71393 7.73691 4.67438 7.61693 4.59529 7.49695C4.55574 7.41696 4.51619 7.37697 4.47665 7.29698C4.4371 7.21699 4.39755 7.13701 4.39755 7.09701C4.39755 7.05702 4.358 7.01702 4.358 6.93703C4.31846 6.85705 4.27891 6.81705 4.23936 6.73706C4.19981 6.69707 4.19981 6.61708 4.19981 6.57709C4.19981 6.53709 4.16027 6.53709 4.16027 6.53709C4.16027 6.53709 4.12072 6.57709 4.16027 6.61708C4.19981 6.69707 4.23936 6.77706 4.23936 6.81705C4.27891 6.89704 4.31846 7.01702 4.358 7.09701C4.39755 7.13701 4.39755 7.177 4.4371 7.25699C4.47665 7.33697 4.51619 7.41696 4.55574 7.49695C4.59529 7.53695 4.59529 7.57694 4.63484 7.61693C4.63484 7.65693 4.67438 7.65693 4.67438 7.69692C4.71393 7.73692 4.71393 7.8169 4.71393 7.8569C4.75348 7.89689 4.79303 7.97688 4.79303 8.01687C4.91167 8.29683 5.06986 8.57679 5.22805 8.85675C5.2676 8.93674 5.30714 9.01673 5.34669 9.09671C5.38624 9.1767 5.46533 9.2167 5.50488 9.29668C5.54443 9.37667 5.54443 9.45666 5.58398 9.49665C5.62352 9.57664 5.70262 9.65663 5.78171 9.77661C5.78171 9.8166 5.82126 9.8166 5.82126 9.8566C5.86081 9.89659 5.86081 9.93659 5.90035 9.97658C5.9399 10.0166 5.9399 10.0966 5.97945 10.1366C6.019 10.1766 6.05855 10.2165 6.09809 10.2565C6.13764 10.2965 6.17719 10.3765 6.21673 10.4565C6.25628 10.4965 6.29583 10.5365 6.33538 10.5765C6.37492 10.6565 6.57266 10.8565 6.61221 10.9364C6.6913 11.0164 6.80995 11.1764 6.88904 11.2964C6.88904 11.3364 6.96814 11.4164 6.96814 11.4564C6.92859 11.4964 6.7704 11.2964 6.73085 11.2564C6.65176 11.1764 6.61221 11.0964 6.53311 11.0164C6.53311 11.0164 6.33538 10.8564 6.33538 10.8165C6.33538 10.7765 6.29583 10.7765 6.29583 10.7365C6.25628 10.6565 6.21673 10.5765 6.17719 10.5365C6.13764 10.4965 6.13764 10.4965 6.09809 10.4565C6.05855 10.4165 6.019 10.3365 5.97945 10.2965C5.9399 10.2165 5.86081 10.1366 5.78171 10.0566C5.70262 9.97658 5.66307 9.8566 5.62352 9.77661C5.58398 9.73662 5.54443 9.69662 5.50488 9.65663C5.50488 9.65663 5.50488 9.61663 5.46533 9.57664C5.42579 9.53665 5.42579 9.49665 5.38624 9.45666C5.38624 9.41666 5.34669 9.37667 5.34669 9.33668C5.2676 9.21669 5.22805 9.13671 5.14895 9.01672C5.10941 8.97673 5.10941 8.93674 5.06986 8.85675C5.03031 8.77676 4.95122 8.69677 4.91167 8.61678C4.87212 8.53679 4.83257 8.41681 4.75348 8.29683C4.71393 8.21684 4.67438 8.17685 4.63484 8.09686C4.59529 8.01687 4.55574 7.93689 4.51619 7.89689C4.47665 7.8169 4.4371 7.77691 4.39755 7.69692C4.358 7.61693 4.358 7.57694 4.31846 7.49695C4.31846 7.45696 4.27891 7.41696 4.23936 7.37697C4.19981 7.33697 4.19981 7.29698 4.19981 7.21699C4.16027 7.09701 4.04163 6.97703 4.00208 6.81705C3.96253 6.73706 3.92298 6.61708 3.88344 6.53709C3.88344 6.4971 3.84389 6.41711 3.84389 6.37712C3.80434 6.25714 3.72525 6.13715 3.6857 6.01717C3.64615 5.93718 3.64615 5.89719 3.6066 5.8172V5.77721C3.56706 5.73721 3.56706 5.65722 3.52751 5.61723C3.52751 5.53724 3.48796 5.49725 3.44841 5.41726C3.36932 5.21729 3.29022 4.97732 3.21113 4.73736C3.21113 4.69737 3.21113 4.65738 3.17158 4.61738C3.13203 4.4974 3.09249 4.37742 3.05294 4.29743C3.01339 4.25743 2.97384 4.25743 2.97384 4.33742C2.97384 4.41741 3.01339 4.41741 3.01339 4.4974C3.01339 4.53739 3.01339 4.57739 3.01339 4.57739C3.01339 4.61738 3.05294 4.65737 3.05294 4.69737C3.09249 4.77736 3.09249 4.81735 3.09249 4.89734C3.13203 4.97733 3.17158 5.05731 3.17158 5.1773C3.17158 5.21729 3.17158 5.25729 3.21113 5.29728C3.21113 5.33727 3.25068 5.37727 3.25068 5.41726C3.29022 5.53725 3.32977 5.65723 3.36932 5.73721C3.36932 5.8172 3.40887 5.8572 3.40887 5.93718C3.40887 5.97718 3.44841 6.01717 3.44841 6.05716C3.44841 6.09716 3.44841 6.13715 3.48796 6.13715C3.52751 6.21714 3.52751 6.29713 3.56706 6.33712C3.6066 6.37712 3.6066 6.45711 3.64615 6.53709C3.64615 6.57709 3.64615 6.57709 3.6857 6.61708C3.76479 6.81705 3.84389 7.01702 3.92298 7.177C3.96253 7.21699 3.96253 7.25699 3.96253 7.29698C3.96253 7.33698 4.00208 7.37697 4.00208 7.41696C4.00208 7.45696 4.00208 7.45696 4.04163 7.49695C4.08117 7.53695 4.12072 7.57694 4.12072 7.65693C4.19981 7.8169 4.23936 7.93688 4.358 8.05687C4.4371 8.17685 4.47665 8.33682 4.51619 8.45681C4.55574 8.53679 4.59529 8.57679 4.63484 8.65678C4.63484 8.69677 4.67438 8.73677 4.67438 8.73677C4.71393 8.81675 4.75348 8.85675 4.79303 8.93674C4.83257 8.97673 4.83257 9.01672 4.87212 9.05672C4.87212 9.09671 4.91167 9.21669 4.91167 9.21669C4.91167 9.21669 4.83257 9.1767 4.79303 9.1767C4.75348 9.13671 4.71393 9.09671 4.67438 9.01672C4.67438 8.97673 4.63484 8.89674 4.59529 8.89674C4.55574 8.81676 4.47665 8.73676 4.4371 8.65678C4.39755 8.61678 4.39755 8.5368 4.358 8.4968C4.31846 8.41681 4.27891 8.29683 4.19981 8.21684C4.16027 8.17685 4.16027 8.13686 4.12072 8.09686C4.08117 8.05687 4.08117 8.01687 4.04163 7.97688C4.00208 7.89689 3.92298 7.77691 3.88344 7.69692C3.84389 7.61693 3.84389 7.57694 3.80434 7.49695C3.80434 7.45696 3.76479 7.45696 3.76479 7.41696C3.72524 7.37697 3.72525 7.33698 3.72525 7.29698C3.6857 7.25699 3.64615 7.177 3.64615 7.137C3.6066 7.01702 3.56706 6.93703 3.52751 6.81705C3.48796 6.77706 3.44841 6.73707 3.44841 6.69707C3.40887 6.61708 3.40887 6.53709 3.36932 6.4571C3.29022 6.25713 3.17158 6.05716 3.09249 5.8172C3.09249 5.77721 3.09249 5.73721 3.05294 5.69722C3.01339 5.61723 2.97384 5.49725 2.9343 5.41726C2.9343 5.37727 2.89475 5.33727 2.89475 5.29728C2.8552 5.21729 2.8552 5.1773 2.81565 5.09731C2.81565 5.05732 2.81565 5.05732 2.81565 5.01732C2.77611 4.97733 2.77611 4.89734 2.73656 4.81735C2.73656 4.77736 2.69701 4.73736 2.69701 4.69737C2.65746 4.61738 2.69701 4.53739 2.65746 4.4974C2.61792 4.41741 2.57837 4.29743 2.53882 4.21744C2.53882 4.17745 2.49927 4.13745 2.49927 4.05746C2.49927 4.01747 2.45973 3.93748 2.42018 3.85749C2.38063 3.8175 2.38063 3.73751 2.38063 3.65752C2.38063 3.61753 2.34109 3.57754 2.34109 3.49755C2.30154 3.41756 2.30154 3.33757 2.26199 3.25758V3.21759C2.26199 3.1776 2.22244 3.17759 2.22244 3.17759C2.18289 3.17759 2.18289 3.21759 2.18289 3.21759C2.18289 3.29758 2.22244 3.33757 2.22244 3.37756C2.26199 3.41756 2.26199 3.49754 2.26199 3.53754C2.26199 3.57753 2.26199 3.61753 2.26199 3.65752C2.26199 3.69752 2.30154 3.73751 2.30154 3.8175C2.30154 3.8575 2.30154 3.89748 2.30154 3.93748C2.34109 4.05746 2.38063 4.17744 2.42018 4.25743C2.42018 4.29743 2.42018 4.37742 2.45973 4.41741C2.45973 4.45741 2.49927 4.53739 2.49927 4.57739C2.49927 4.61738 2.53882 4.65737 2.53882 4.69737C2.57837 4.73736 2.57837 4.77735 2.57837 4.85734C2.61792 4.93733 2.57837 4.97732 2.61792 5.05731C2.65746 5.1773 2.69701 5.25728 2.73656 5.33727C2.73656 5.37726 2.73656 5.41726 2.77611 5.45725C2.81565 5.53724 2.81565 5.61723 2.8552 5.69722C2.89475 5.8172 2.9343 5.93718 3.01339 6.05716C3.05294 6.17715 3.05294 6.29713 3.09249 6.41711C3.13203 6.45711 3.17158 6.4971 3.21113 6.53709C3.21113 6.57709 3.21113 6.61708 3.25068 6.65707C3.25068 6.69707 3.29022 6.73706 3.29022 6.77706C3.29022 6.81705 3.29022 6.85705 3.32977 6.89704C3.32977 6.93704 3.36932 6.97703 3.40887 7.01702C3.44841 7.09701 3.44841 7.177 3.48796 7.21699C3.52751 7.25699 3.56706 7.29698 3.56706 7.37697C3.6066 7.41696 3.6066 7.49695 3.64615 7.57694C3.6857 7.65693 3.72524 7.73691 3.76479 7.8569C3.80434 7.93688 3.80434 8.01687 3.84389 8.09686C3.88344 8.17685 3.92298 8.21684 3.96253 8.29683C4.00208 8.33683 4.00208 8.41681 4.04163 8.45681C4.08117 8.4968 4.08117 8.5368 4.12072 8.57679C4.16027 8.61678 4.19981 8.69677 4.19981 8.73677C4.23936 8.77676 4.23936 8.81675 4.23936 8.85675C4.27891 8.89674 4.31846 8.97673 4.31846 9.01672C4.358 9.05672 4.39755 9.13671 4.39755 9.1767C4.39755 9.21669 4.4371 9.25669 4.47665 9.29668C4.51619 9.33668 4.55574 9.37667 4.55574 9.41666C4.59529 9.45666 4.59529 9.57664 4.59529 9.61663C4.55574 9.61663 4.47665 9.53665 4.47665 9.53665C4.39755 9.45666 4.39755 9.33668 4.31846 9.25669C4.23936 9.1767 4.19981 9.09671 4.16027 9.01672C4.12072 8.93674 4.08117 8.85675 4.04163 8.77676C4.00208 8.73677 3.96253 8.69677 3.92298 8.61678C3.88344 8.57679 3.88344 8.4968 3.88344 8.45681C3.84389 8.37682 3.80434 8.33682 3.76479 8.25684C3.72524 8.17685 3.72525 8.09686 3.6857 8.01687C3.6857 7.97688 3.64615 7.93689 3.6066 7.89689C3.56706 7.8569 3.56706 7.8169 3.56706 7.77691C3.52751 7.69692 3.44841 7.61693 3.40887 7.49695C3.36932 7.41696 3.32977 7.29698 3.29022 7.177C3.25068 7.137 3.21113 7.09701 3.21113 7.01702C3.17158 6.93703 3.17158 6.85705 3.13203 6.81705C3.09249 6.77706 3.09249 6.73707 3.05294 6.69707C3.01339 6.61708 3.01339 6.57709 2.97384 6.4971C2.89475 6.33712 2.8552 6.21714 2.77611 6.05716C2.73656 6.01717 2.73656 5.93718 2.73656 5.89719C2.69701 5.8572 2.69701 5.8172 2.65746 5.73721C2.61792 5.61723 2.57837 5.45725 2.53882 5.33727C2.49927 5.25728 2.45973 5.21729 2.45973 5.1373C2.42018 5.01732 2.42018 4.89734 2.38063 4.81735C2.30154 4.65738 2.26199 4.4574 2.22244 4.29743C2.22244 4.25743 2.22244 4.17744 2.18289 4.13745C2.18289 4.09746 2.14335 4.05746 2.14335 3.97748C2.14335 3.93748 2.1038 3.89749 2.1038 3.8175C2.06425 3.65753 2.02471 3.53754 1.98516 3.37756C1.98516 3.33757 1.98516 3.29758 1.94561 3.21759C1.94561 3.1776 1.90606 3.17759 1.90606 3.1376C1.90606 3.0976 1.90606 3.05761 1.86652 3.05761C1.82697 2.93763 1.78742 2.81765 1.78742 2.73766C1.78742 2.69766 1.78742 2.65767 1.74787 2.61768C1.70833 2.4577 1.66878 2.29772 1.62923 2.13775C1.62923 2.09775 1.58968 2.09776 1.58968 2.09776C1.55014 2.09776 1.55014 2.13775 1.58968 2.17774C1.58968 2.25773 1.62923 2.29773 1.62923 2.37771C1.62923 2.41771 1.62923 2.4577 1.62923 2.4577C1.62923 2.49769 1.62923 2.49769 1.62923 2.53769C1.66878 2.61768 1.70833 2.73766 1.70833 2.81765C1.70833 2.85764 1.70833 2.93763 1.70833 2.97762C1.74787 3.1376 1.78742 3.29758 1.82697 3.41756C1.86652 3.53754 1.86652 3.65753 1.90606 3.8175C1.90606 3.8575 1.90606 3.93748 1.94561 3.97748C1.94561 4.01747 1.98516 4.05746 1.98516 4.09746C1.98516 4.13745 1.98516 4.17745 2.02471 4.17745C2.06425 4.25743 2.06425 4.37741 2.1038 4.4574C2.14335 4.53739 2.14335 4.57738 2.18289 4.65737C2.18289 4.69737 2.18289 4.69737 2.18289 4.73736C2.18289 4.81735 2.22244 4.85734 2.22244 4.93733C2.26199 5.05731 2.30154 5.21729 2.34109 5.33727C2.38063 5.41726 2.38063 5.45725 2.38063 5.53724C2.45973 5.8172 2.57837 6.05717 2.65746 6.33712C2.65746 6.37712 2.69701 6.45711 2.69701 6.4971C2.73656 6.57709 2.73656 6.61708 2.77611 6.65707C2.81565 6.73706 2.81565 6.81705 2.8552 6.85704C2.89475 6.93703 2.9343 7.01702 2.97384 7.09701C2.97384 7.13701 3.01339 7.177 3.01339 7.21699C3.01339 7.25699 3.05294 7.29698 3.05294 7.29698C3.09249 7.33698 3.09249 7.41696 3.09249 7.45695C3.13203 7.49695 3.17158 7.53694 3.21113 7.61693C3.25068 7.65693 3.25068 7.73691 3.25068 7.77691C3.29022 7.8569 3.32977 7.93688 3.36932 8.01687C3.36932 8.05687 3.40887 8.09686 3.40887 8.13686C3.40887 8.17685 3.44841 8.21684 3.48796 8.25684C3.48796 8.25684 3.48796 8.25684 3.48796 8.29683V8.33683C3.48796 8.37682 3.52751 8.41681 3.52751 8.41681L3.56706 8.45681C3.56706 8.45681 3.56706 8.45681 3.6066 8.4968C3.64615 8.5368 3.64615 8.61679 3.6857 8.69677C3.72525 8.73677 3.76479 8.81675 3.80434 8.85675C3.84389 8.89674 3.84389 9.01672 3.80434 9.01672C3.6857 9.01672 3.6857 8.85675 3.64615 8.77676C3.6066 8.69677 3.56706 8.65678 3.52751 8.57679C3.52751 8.57679 3.52751 8.5368 3.48796 8.4968C3.48796 8.45681 3.48796 8.45681 3.44841 8.41681C3.44841 8.37682 3.44841 8.37682 3.40887 8.37682C3.40887 8.33683 3.36932 8.29683 3.36932 8.29683C3.32977 8.21684 3.29022 8.09686 3.25068 8.05687C3.25068 8.01687 3.21113 8.01687 3.17158 7.97688C3.13203 7.93688 3.13203 7.8569 3.09249 7.8169C3.05294 7.77691 3.05294 7.73691 3.01339 7.65693C2.97384 7.57694 2.97384 7.53694 2.97384 7.45695C2.97384 7.41696 2.9343 7.37697 2.9343 7.37697C2.89475 7.29698 2.89475 7.21699 2.8552 7.177C2.8552 7.137 2.81565 7.09701 2.77611 7.09701C2.73656 7.05702 2.73656 6.97703 2.69701 6.93703C2.61792 6.81705 2.57837 6.69707 2.49927 6.57709C2.45973 6.4971 2.45973 6.41711 2.42018 6.37712C2.38063 6.29713 2.34109 6.25713 2.34109 6.21714C2.34109 6.17715 2.30154 6.13715 2.30154 6.09716C2.26199 6.01717 2.26199 5.97718 2.22244 5.89719C2.22244 5.8572 2.18289 5.73721 2.18289 5.69722C2.18289 5.65723 2.14335 5.57723 2.1038 5.53724C2.06425 5.45725 2.06425 5.37727 2.02471 5.29728C1.98516 5.25729 1.98516 5.17729 1.94561 5.1373C1.94561 5.09731 1.90606 5.05731 1.90606 4.97733C1.90606 4.93733 1.86652 4.89734 1.86652 4.85734C1.86652 4.81735 1.82697 4.73736 1.82697 4.69737C1.78742 4.61738 1.78742 4.57739 1.74787 4.4974C1.74787 4.4574 1.74787 4.33742 1.70833 4.29743C1.62923 4.09746 1.58968 3.89749 1.51059 3.69752C1.47104 3.61753 1.47104 3.49755 1.43149 3.41756C1.43149 3.37757 1.43149 3.33757 1.43149 3.29758C1.43149 3.25758 1.39195 3.17759 1.39195 3.1376C1.39195 3.0976 1.39195 3.05761 1.3524 3.01762C1.3524 2.97763 1.31285 2.93763 1.31285 2.89764C1.2733 2.77766 1.2733 2.65767 1.23376 2.53769C1.23376 2.49769 1.23376 2.41771 1.19421 2.37771C1.15466 2.21774 1.15466 2.05776 1.11511 1.93778C1.11511 1.89778 1.11511 1.85779 1.07557 1.8178C0.996472 1.53784 0.956924 1.21788 0.87783 0.937926C0.87783 0.897932 0.87783 0.817946 0.87783 0.777952C0.87783 0.697964 0.838282 0.657972 0.838282 0.617978C0.838282 0.577984 0.838282 0.577979 0.838282 0.537985C0.838282 0.497991 0.798734 0.457999 0.798734 0.457999C0.759187 0.457999 0.759188 0.497991 0.759188 0.537985C0.759188 0.617973 0.759187 0.657971 0.798734 0.697965C0.798734 0.737959 0.798734 0.777955 0.798734 0.817949C0.838282 0.897937 0.838282 1.01792 0.838282 1.09791C0.838282 1.1379 0.838282 1.17789 0.838282 1.21789C0.838282 1.25788 0.87783 1.29787 0.87783 1.33787C0.87783 1.37786 0.87783 1.45785 0.87783 1.53784C0.87783 1.57783 0.917377 1.65782 0.917377 1.69782C0.917377 1.73781 0.917377 1.77781 0.917377 1.8178C0.917377 1.85779 0.956925 1.89778 0.956925 1.93778C0.956925 1.97777 0.956925 2.05776 0.956925 2.09776C1.03602 2.33772 1.03602 2.61768 1.11511 2.85764C1.11511 2.89763 1.11511 2.93763 1.11511 2.97762C1.15466 3.17759 1.23376 3.41756 1.2733 3.61753C1.2733 3.65753 1.2733 3.69751 1.2733 3.73751C1.2733 3.8175 1.31285 3.89749 1.31285 3.97748C1.31285 4.01747 1.31285 4.05746 1.31285 4.05746C1.3524 4.13745 1.3524 4.21744 1.39195 4.29743C1.39195 4.33742 1.39195 4.37742 1.39195 4.41741C1.39195 4.45741 1.43149 4.4974 1.43149 4.4974C1.43149 4.53739 1.43149 4.57739 1.47104 4.61738C1.47104 4.65738 1.51059 4.65737 1.51059 4.69737C1.51059 4.73736 1.51059 4.77736 1.55014 4.81735C1.55014 4.85735 1.58968 4.93733 1.62923 4.97733C1.62923 5.01732 1.62923 5.05732 1.66878 5.09731C1.70833 5.1773 1.74787 5.25728 1.74787 5.33727C1.78742 5.41726 1.78742 5.45725 1.78742 5.53724C1.78742 5.57723 1.82697 5.61723 1.82697 5.65722C1.82697 5.69722 1.82697 5.73721 1.86652 5.73721C1.86652 5.77721 1.90606 5.8172 1.94561 5.85719C1.94561 5.89719 1.94561 5.97718 1.98516 6.01717C1.98516 6.05716 2.02471 6.09716 2.02471 6.13715C2.02471 6.17715 2.02471 6.21714 2.06425 6.29713C2.06425 6.33712 2.1038 6.37712 2.1038 6.41711C2.1038 6.45711 2.14335 6.4971 2.14335 6.53709C2.14335 6.57709 2.18289 6.57709 2.18289 6.61708C2.22244 6.65708 2.22244 6.69707 2.22244 6.77706C2.26199 6.85705 2.26199 6.93703 2.26199 7.01702C2.26199 7.05702 2.26199 7.09701 2.26199 7.09701C2.22244 7.09701 2.18289 7.05702 2.18289 7.01702C2.14335 6.97703 2.1038 6.89704 2.1038 6.85704C2.1038 6.81705 2.1038 6.81705 2.06425 6.77706C2.02471 6.73706 2.02471 6.65708 2.02471 6.61708C2.02471 6.57709 1.98516 6.5371 1.98516 6.4971C1.98516 6.45711 1.98516 6.37712 1.94561 6.33712C1.94561 6.29713 1.90606 6.25713 1.86652 6.21714C1.86652 6.17715 1.86652 6.13715 1.82697 6.09716C1.82697 6.05717 1.78742 6.01717 1.74787 5.97718C1.74787 5.93718 1.74787 5.89719 1.70833 5.85719C1.70833 5.8172 1.66878 5.73721 1.66878 5.69722C1.62923 5.65723 1.62923 5.61723 1.58968 5.53724C1.58968 5.49725 1.58968 5.49725 1.55014 5.45725C1.55014 5.41726 1.51059 5.37726 1.51059 5.33727C1.51059 5.29728 1.51059 5.29728 1.47104 5.25728C1.47104 5.21729 1.43149 5.17729 1.43149 5.1373C1.43149 5.09731 1.43149 5.05732 1.39195 5.01732C1.3524 4.93733 1.3524 4.89734 1.31285 4.81735C1.31285 4.77736 1.31285 4.73736 1.2733 4.65737C1.2733 4.61738 1.23376 4.53739 1.19421 4.4974C1.19421 4.4574 1.19421 4.41741 1.15466 4.37742C1.11511 4.33742 1.11511 4.25744 1.07557 4.21744C1.07557 4.17745 1.07557 4.09746 1.03602 4.05746C0.996472 3.93748 0.956925 3.8175 0.917377 3.69752C0.87783 3.57754 0.877829 3.41756 0.838282 3.29758C0.798735 3.21759 0.759188 3.09761 0.759188 3.01762C0.759188 2.97763 0.759187 2.93763 0.71964 2.85764C0.680093 2.73766 0.640545 2.61768 0.600997 2.4977C0.600997 2.4577 0.600998 2.37771 0.56145 2.29773C0.56145 2.21774 0.56145 2.17774 0.521903 2.09776C0.521903 2.05776 0.482355 2.01777 0.482355 1.97777C0.482355 1.93778 0.482355 1.85779 0.482355 1.8178C0.482355 1.77781 0.40326 1.53784 0.40326 1.49785C0.40326 1.45785 0.40326 1.37786 0.40326 1.33787C0.40326 1.33787 0.363713 1.21789 0.363713 1.17789C0.363713 1.1379 0.363713 1.1379 0.363713 1.05791C0.363713 1.01792 0.324166 0.897933 0.324166 0.857939C0.324166 0.817945 0.324166 0.737956 0.324166 0.737956C0.324166 0.697962 0.284618 0.617976 0.284618 0.577982C0.284618 0.497994 0.284618 0.458 0.24507 0.378012C0.24507 0.338018 0.205523 0.298022 0.205523 0.258028C0.205523 0.218034 0.165976 0.178039 0.165976 0.138045C0.165976 0.098051 0.165976 0.0180677 0.165976 0.0180677C0.165976 -0.0219263 0.165976 -0.101918 0.126428 -0.141912C0.126428 -0.2219 0.0868807 -0.301888 0.0868807 -0.341882C0.0868807 -0.381876 0.0868807 -0.381875 0.0868807 -0.421869C0.0868807 -0.501857 0.0473329 -0.581847 0.0077855 -0.541852C-0.0317619 -0.541852 -0.0317613 -0.50186 -0.0317613 -0.461866C-0.0317613 -0.421872 -0.0317619 -0.34188 0.0077855 -0.301886C0.0077855 -0.261892 0.0077855 -0.181902 0.0077855 -0.181902C0.0077855 -0.141908 0.0077855 -0.14191 0.0077855 -0.101916C0.0077855 -0.101916 0.0077855 -0.0619228 0.0077855 -0.0219287C0.0077855 0.0180653 0.0077855 0.0580581 0.0077855 0.0580581C0.0077855 0.0980521 0.0077855 0.098051 0.0077855 0.138045V0.178041C0.0077855 0.218036 0.0077855 0.218034 0.0077855 0.258028C0.0077855 0.298022 0.0077855 0.298021 0.0077855 0.338015C0.0077855 0.378009 0.0077855 0.378014 0.0077855 0.418008C0.0077855 0.458002 0.0473331 0.53799 0.0473331 0.617978C0.0473331 0.697966 0.0473332 0.777955 0.0868807 0.817949C0.0868807 0.857943 0.0868807 0.897932 0.0868807 0.937926C0.0868807 0.97792 0.126428 1.05791 0.126428 1.09791C0.126428 1.1379 0.126428 1.17789 0.126428 1.21789C0.126428 1.29788 0.205523 1.37787 0.205523 1.41786C0.205523 1.45785 0.205523 1.53784 0.205523 1.57783C0.205523 1.61783 0.24507 1.69782 0.24507 1.69782C0.24507 1.73781 0.24507 1.73781 0.24507 1.7778C0.24507 1.8178 0.284618 1.89778 0.284618 1.93778C0.284618 1.97777 0.284618 1.97778 0.284618 2.01777C0.284618 2.05776 0.324166 2.17775 0.324166 2.21774C0.324166 2.25773 0.324166 2.29772 0.324166 2.33772C0.324166 2.41771 0.363713 2.4577 0.363713 2.4977C0.363713 2.53769 0.363713 2.57769 0.363713 2.61768C0.363713 2.65767 0.40326 2.73766 0.40326 2.77765C0.40326 2.81765 0.40326 2.85764 0.40326 2.89764C0.40326 2.97763 0.442807 3.05761 0.442807 3.17759C0.442807 3.21759 0.482355 3.25758 0.482355 3.33757C0.482355 3.37756 0.482355 3.41756 0.521903 3.45755C0.521903 3.49755 0.56145 3.53754 0.56145 3.57753C0.56145 3.61753 0.56145 3.65752 0.56145 3.69752C0.56145 3.73751 0.600997 3.77751 0.600997 3.8175C0.600997 3.8575 0.600997 3.89749 0.600997 3.89749C0.600997 3.93748 0.640545 3.97748 0.640545 4.01747C0.640545 4.05747 0.640545 4.09746 0.640545 4.13745C0.640545 4.17744 0.680092 4.25743 0.680092 4.29743C0.680092 4.33742 0.680093 4.37741 0.71964 4.4574C0.759187 4.57738 0.798734 4.69737 0.798734 4.77736C0.798734 4.81735 0.798735 4.89734 0.838282 4.93733C0.838282 4.97732 0.87783 5.01732 0.87783 5.01732C0.87783 5.05732 0.87783 5.09731 0.87783 5.1373C0.87783 5.21729 0.917377 5.29728 0.917377 5.33727C0.956925 5.41726 0.996472 5.45725 0.996472 5.53724C1.03602 5.61723 1.03602 5.69722 1.03602 5.73721C1.07557 5.8172 1.07557 5.8572 1.11511 5.93718C1.15466 5.97718 1.11511 6.05717 1.15466 6.09716C1.19421 6.13715 1.23376 6.21714 1.23376 6.25713C1.2733 6.33712 1.2733 6.37712 1.31285 6.4571C1.31285 6.4971 1.31285 6.4971 1.31285 6.53709C1.3524 6.61708 1.39195 6.69707 1.43149 6.77706C1.43149 6.81705 1.43149 6.85705 1.47104 6.89704C1.51059 6.97703 1.51059 7.01702 1.55014 7.09701C1.58968 7.13701 1.58968 7.21699 1.62923 7.25699C1.66878 7.29698 1.66878 7.33697 1.66878 7.41696C1.70833 7.45696 1.70833 7.53694 1.74787 7.57694C1.74787 7.61693 1.74787 7.65693 1.78742 7.65693C1.86652 7.77691 1.90606 7.93688 1.98516 8.05687C2.02471 8.13685 2.02471 8.21684 2.06425 8.29683C2.1038 8.33683 2.1038 8.41681 2.14335 8.45681C2.14335 8.4968 2.18289 8.5368 2.18289 8.57679C2.22244 8.65678 2.26199 8.73676 2.30154 8.81675C2.30154 8.81675 2.34109 8.89674 2.34109 8.93674C2.30154 8.93674 2.26199 8.89674 2.26199 8.89674C2.1829 8.81676 2.14335 8.65678 2.1038 8.5368C2.1038 8.4968 2.06425 8.45681 2.06425 8.41681C2.06425 8.37682 2.06425 8.37682 2.02471 8.33683C1.98516 8.25684 1.94561 8.21684 1.90606 8.13686C1.86652 8.09686 1.86652 8.01687 1.86652 7.97688C1.78742 7.77691 1.66878 7.53695 1.55014 7.33698C1.51059 7.25699 1.51059 7.137 1.47104 7.01702C1.43149 6.93703 1.39195 6.89704 1.39195 6.85704C1.3524 6.81705 1.3524 6.77706 1.3524 6.69707C1.31285 6.61708 1.2733 6.57709 1.2733 6.4971C1.2733 6.45711 1.23376 6.41711 1.23376 6.37712C1.19421 6.33712 1.19421 6.29713 1.15466 6.25713C1.11511 6.17715 1.11511 6.13715 1.11511 6.05716C1.11511 6.01717 1.07557 5.97718 1.07557 5.93718C1.07557 5.89719 1.07557 5.85719 1.03602 5.8172C0.996472 5.73721 0.956925 5.65722 0.917377 5.57724C0.87783 5.53724 0.917377 5.45725 0.87783 5.37727C0.87783 5.33727 0.838282 5.29728 0.798734 5.25728C0.759187 5.21729 0.798734 5.1373 0.798734 5.09731C0.798734 5.05732 0.759188 4.97732 0.759188 4.93733C0.759188 4.89734 0.759187 4.85734 0.71964 4.85734C0.680093 4.77735 0.680092 4.73736 0.640545 4.65737C0.640545 4.61738 0.640545 4.57739 0.600997 4.57739C0.600997 4.53739 0.56145 4.4974 0.521903 4.4574C0.521903 4.37741 0.482355 4.33742 0.482355 4.25743C0.442808 4.17744 0.442807 4.09746 0.40326 4.01747C0.40326 3.97748 0.40326 3.97747 0.40326 3.93748C0.40326 3.85749 0.363713 3.77751 0.363713 3.69752C0.363713 3.65752 0.363713 3.61753 0.363713 3.57753C0.324166 3.49755 0.324165 3.45755 0.284618 3.37756C0.284618 3.33757 0.284618 3.29758 0.24507 3.25758C0.205523 3.1376 0.165976 3.01762 0.165976 2.93763C0.165976 2.89763 0.165976 2.89763 0.165976 2.85764C0.126428 2.77765 0.126428 2.65767 0.0868807 2.57768C0.0868807 2.53769 0.0868807 2.4977 0.0868807 2.41771C0.0868807 2.37772 0.0473331 2.29772 0.0473331 2.25773C0.0473331 2.21774 0.0473331 2.21774 0.0473331 2.17774C0.0473331 2.13775 0.0473331 2.09775 0.0473331 2.05776C0.00778565 1.89778 -0.0317615 1.73781 -0.0713089 1.57783C-0.0713089 1.53784 -0.0713089 1.45785 -0.0713089 1.41786C-0.0713089 1.37787 -0.0713089 1.33787 -0.0713089 1.29788C-0.0713089 1.25788 -0.110857 1.21789 -0.110857 1.17789C-0.110857 1.0979 -0.110857 1.05791 -0.110857 0.977922C-0.110857 0.897934 -0.150404 0.737959 -0.150404 0.697965C-0.150404 0.617977 -0.150404 0.537987 -0.189952 0.457999C-0.189952 0.418005 -0.189952 0.378013 -0.189952 0.298025C-0.189952 0.218037 -0.229499 0.138046 -0.229499 0.0580581C-0.229499 0.0180641 -0.229499 -0.0219275 -0.229499 -0.101916C-0.229499 -0.14191 -0.229499 -0.181902 -0.269046 -0.181902C-0.308594 -0.181902 -0.308594 -0.14191 -0.308594 -0.101916C-0.308594 -0.0219275 -0.308594 0.098051 -0.308594 0.138045C-0.308594 0.218033 -0.308594 0.33802 -0.308594 0.418008C-0.308594 0.458002 -0.269046 0.537988 -0.269046 0.577982C-0.269046 0.65797 -0.229499 0.737957 -0.229499 0.857939C-0.229499 0.897933 -0.229499 0.937928 -0.229499 0.977922V1.01792C-0.229499 1.05791 -0.229499 1.09791 -0.229499 1.09791C-0.189951 1.21789 -0.229499 1.29788 -0.189952 1.41786C-0.150404 1.57784 -0.110856 1.73781 -0.0713089 1.85779C-0.0713089 1.89778 -0.0713089 1.93778 -0.0713089 1.97777C-0.0713089 2.01777 -0.0317613 2.05776 -0.0317613 2.09776C-0.0317613 2.13775 -0.0317613 2.21774 -0.0317613 2.25773C-0.0317613 2.29772 0.0077855 2.37772 0.0077855 2.41771C0.0077855 2.4977 0.00778565 2.53769 0.0473331 2.61768C0.0473331 2.69767 0.0868807 2.73766 0.0868807 2.81765C0.0868807 2.89764 0.126428 2.97762 0.126428 3.05761C0.126428 3.1376 0.165975 3.21759 0.205523 3.25758C0.205523 3.29758 0.205523 3.29757 0.205523 3.33757C0.205523 3.37756 0.24507 3.45755 0.24507 3.49755C0.24507 3.53754 0.24507 3.53754 0.24507 3.57753C0.284618 3.65752 0.284618 3.77751 0.324166 3.89749C0.324166 3.93748 0.324166 3.93748 0.324166 3.97748C0.324166 4.05746 0.363713 4.09746 0.363713 4.13745C0.363713 4.17744 0.363713 4.21744 0.363713 4.25743C0.363713 4.29743 0.40326 4.33742 0.40326 4.41741C0.40326 4.45741 0.40326 4.4974 0.442807 4.53739C0.442807 4.57738 0.482355 4.61738 0.482355 4.65737C0.521903 4.73736 0.521903 4.81735 0.56145 4.93733C0.56145 4.97732 0.600997 5.01732 0.600997 5.09731C0.600997 5.1373 0.600997 5.21729 0.640545 5.25728C0.680092 5.33727 0.71964 5.41726 0.71964 5.53724C0.759187 5.61723 0.759187 5.73721 0.798734 5.85719C0.798734 5.89719 0.798735 5.93718 0.838282 5.97718C0.877829 6.05717 0.87783 6.17715 0.917377 6.25713C0.917377 6.29713 0.917377 6.33712 0.956925 6.41711C0.996472 6.4971 1.03602 6.57709 1.07557 6.65707C1.11511 6.73706 1.11511 6.81705 1.11511 6.85704C1.15466 6.93703 1.19421 7.01702 1.23376 7.137C1.2733 7.21699 1.2733 7.25699 1.2733 7.33698C1.31285 7.37697 1.31285 7.45696 1.3524 7.49695C1.3524 7.53695 1.39195 7.57694 1.39195 7.61693C1.39195 7.65693 1.43149 7.69692 1.47104 7.73692C1.51059 7.8169 1.51059 7.8569 1.51059 7.93689C1.55014 8.05687 1.58968 8.13685 1.62923 8.25684C1.62923 8.29683 1.62923 8.33683 1.66878 8.37682C1.70833 8.45681 1.74787 8.4968 1.74787 8.57679C1.78742 8.61678 1.78742 8.69677 1.82697 8.73677C1.86652 8.81675 1.90606 8.85675 1.90606 8.97673C1.90606 8.97673 1.90606 8.97673 1.90606 9.01672C1.86652 9.01672 1.86652 8.97673 1.82697 8.97673C1.74787 8.89674 1.74787 8.85675 1.70833 8.77676C1.62923 8.65678 1.55014 8.5368 1.51059 8.37682C1.47104 8.29683 1.47104 8.21684 1.43149 8.17685C1.43149 8.13686 1.39195 8.09686 1.3524 8.05687C1.31285 7.97688 1.31285 7.93688 1.2733 7.8569C1.23376 7.77691 1.19421 7.69692 1.15466 7.57694C1.15466 7.53694 1.15466 7.49695 1.11511 7.45695C1.11511 7.41696 1.07557 7.37697 1.07557 7.33698C1.03602 7.29698 1.03602 7.21699 0.996472 7.137C0.956924 7.01702 0.877829 6.89704 0.838282 6.81705C0.798735 6.69707 0.798735 6.61708 0.759188 6.4971C0.759188 6.45711 0.71964 6.41711 0.71964 6.37712C0.71964 6.33712 0.71964 6.29713 0.680092 6.25713C0.640545 6.17715 0.600998 6.05717 0.56145 5.97718C0.56145 5.93718 0.521903 5.89719 0.521903 5.85719C0.482355 5.77721 0.482355 5.73721 0.442807 5.65722C0.40326 5.57724 0.40326 5.49725 0.40326 5.41726C0.324165 5.25729 0.24507 5.05732 0.205523 4.89734C0.205523 4.85735 0.205523 4.81735 0.205523 4.77736C0.165975 4.69737 0.165976 4.57739 0.126428 4.4974C0.0868808 4.37742 0.0868805 4.25743 0.0473331 4.17745C0.00778565 4.05746 -0.0317615 3.89749 -0.0713089 3.7775C-0.0713089 3.73751 -0.0713089 3.69752 -0.0713089 3.65752C-0.110856 3.53754 -0.150404 3.41756 -0.150404 3.33757C-0.150404 3.29757 -0.150404 3.21759 -0.189952 3.17759C-0.229499 3.1376 -0.269046 3.1376 -0.269046 3.21759C-0.269046 3.25758 -0.229499 3.33757 -0.229499 3.37756C-0.229499 3.41756 -0.229499 3.45755 -0.229499 3.49755C-0.229499 3.57754 -0.189952 3.61753 -0.150404 3.69752C-0.110857 3.77751 -0.110857 3.8175 -0.110857 3.89749C-0.110857 3.93748 -0.0713089 3.97748 -0.0713089 4.01747C-0.0317615 4.09746 -0.0317613 4.17745 -0.0317613 4.21744C-0.0317613 4.25744 0.0077855 4.33742 0.0077855 4.37742C0.0077855 4.41741 0.0077855 4.4574 0.0077855 4.4974C0.0077855 4.57739 0.0473331 4.61738 0.0473331 4.69737C0.0473331 4.73736 0.0473331 4.77736 0.0473331 4.81735C0.0473331 4.85735 0.0868807 4.93733 0.0868807 4.97733C0.0868807 5.01732 0.0868808 5.09731 0.126428 5.1373C0.165976 5.21729 0.205523 5.33728 0.205523 5.41726C0.24507 5.49725 0.24507 5.61723 0.284618 5.69722C0.363713 5.8572 0.40326 6.05716 0.442807 6.21714C0.442807 6.25713 0.442808 6.29713 0.482355 6.33712C0.482355 6.41711 0.521903 6.4971 0.56145 6.53709C0.56145 6.57709 0.600997 6.61708 0.600997 6.61708C0.600997 6.65708 0.640545 6.69707 0.640545 6.73706C0.640545 6.77706 0.680092 6.81705 0.680092 6.85704C0.680092 6.89704 0.680093 6.97703 0.71964 7.01702C0.71964 7.05702 0.759188 7.09701 0.759188 7.137C0.759188 7.177 0.759187 7.21699 0.798734 7.25699C0.798734 7.29698 0.838282 7.33697 0.87783 7.37697C0.87783 7.41696 0.917377 7.45696 0.917377 7.49695C0.917377 7.53695 0.956925 7.57694 0.956925 7.61693C0.956925 7.65693 0.956924 7.69692 0.996472 7.73692C0.996472 7.77691 1.03602 7.8169 1.03602 7.8569C1.03602 7.89689 1.03602 7.93688 1.07557 7.97688C1.11511 8.05687 1.15466 8.09686 1.15466 8.17685C1.19421 8.21684 1.19421 8.25684 1.19421 8.33683C1.23376 8.37682 1.23376 8.45681 1.2733 8.4968C1.31285 8.57679 1.31285 8.65678 1.3524 8.69677C1.39195 8.81676 1.43149 8.93674 1.47104 9.05672C1.51059 9.13671 1.55014 9.2167 1.58968 9.29668C1.62923 9.33668 1.62923 9.41666 1.62923 9.45666C1.66878 9.49665 1.70833 9.53665 1.70833 9.61663C1.70833 9.65663 1.74787 9.73662 1.74787 9.77661C1.78742 9.8566 1.82697 9.89659 1.86652 9.97658C1.86652 10.0166 1.90606 10.0566 1.90606 10.0966C1.94561 10.1766 1.98516 10.2165 2.02471 10.2965C2.02471 10.3365 2.06425 10.3765 2.06425 10.4565C2.1038 10.5365 2.14335 10.6165 2.18289 10.6565C2.22244 10.6965 2.22244 10.7765 2.26199 10.8165C2.30154 10.8964 2.34108 10.9364 2.38063 11.0164C2.42018 11.0564 2.45973 11.1364 2.49927 11.2164C2.53882 11.2564 2.57837 11.3364 2.57837 11.3764C2.61792 11.4164 2.65746 11.4964 2.65746 11.5363C2.69701 11.6163 2.73656 11.6563 2.77611 11.6963C2.81565 11.7763 2.8552 11.8963 2.9343 11.9763C2.97384 12.0563 3.01339 12.0963 3.05294 12.1763C3.17158 12.3362 3.32977 12.6562 3.40887 12.7362C3.48796 12.8162 3.52751 12.8961 3.56706 13.0161C3.6066 13.0961 3.64615 13.1361 3.72525 13.2161C3.76479 13.2561 3.80434 13.3361 3.84389 13.3761L3.88344 13.4161C5.42579 15.3758 7.00768 16.6956 8.3523 17.5754C9.06415 18.0154 9.42008 18.1354 9.42008 18.1354C9.49917 18.1754 9.45963 18.2553 9.42008 18.2553L1.51059 23.3746C1.47104 23.3746 1.43149 23.4546 1.43149 23.4946C1.43149 23.5346 1.51059 23.4946 1.55014 23.4946C7.91727 21.2549 12.5443 19.3752 15.3522 18.0154C18.7928 17.1355 19.742 16.3356 19.6233 15.9757Z" fill="#006B6E"/>
<path d="M106.508 13.4961V13.0562H107.062C107.734 13.0562 108.446 13.0562 108.842 13.1762C109.949 13.4961 110.503 14.376 110.503 15.6958C110.503 16.8156 109.83 18.4154 107.893 18.4154C107.339 18.4154 106.746 18.1754 106.469 18.0554V13.4961H106.508ZM108.763 19.6152C111.373 19.6152 112.915 17.6155 112.915 15.6958C112.915 14.6159 112.52 12.7362 109.909 12.0963C109.316 11.9363 108.683 11.9363 107.813 11.9363H103.186L103.265 12.0163C103.265 12.0163 104.056 12.1363 104.056 13.5361V22.2548C104.056 23.6546 103.265 23.7746 103.265 23.7746L103.186 23.8546H107.378L107.299 23.7746C107.299 23.7746 106.508 23.6546 106.508 22.2548V19.1753C106.864 19.3352 107.616 19.6152 108.763 19.6152ZM169.982 20.1351L169.072 23.3346C169.072 23.3346 167.056 24.0145 165.355 24.0145C160.807 24.0145 158.592 20.855 158.592 17.9754C158.592 14.416 161.282 11.7364 165.553 11.7364C167.926 11.7364 169.587 12.5762 169.587 12.5762V15.1359L169.507 15.0959C169.507 15.0959 168.519 12.9362 165.75 12.9362C163.061 12.9362 161.4 14.9359 161.4 17.9754C161.4 21.015 163.14 22.6947 165.671 22.6947C168.44 22.6947 169.942 20.2151 169.942 20.2151L169.982 20.1351ZM140.361 13.4961V22.2148C140.361 23.6146 141.152 23.7346 141.152 23.7346L141.231 23.8146H137.039L137.118 23.7346C137.118 23.7346 137.909 23.6146 137.909 22.2148V13.4961C137.909 12.0963 137.118 11.9763 137.118 11.9763L137.039 11.8963H141.231L141.152 11.9763C141.152 11.9763 140.361 12.0963 140.361 13.4961ZM150.169 11.8963C151.553 11.8963 151.751 11.7764 151.751 11.7764V13.896L151.672 13.8161C151.672 13.8161 151.078 13.0162 149.694 13.0162H146.728V16.8156H149.22C150.604 16.8156 150.722 16.2157 150.722 16.2157L150.802 16.1357V18.6953L150.722 18.6153C150.722 18.6153 150.604 18.0154 149.22 18.0154H146.728V22.2148C146.728 23.6146 147.519 23.7346 147.519 23.7346L147.598 23.8146H143.406L143.485 23.7346C143.485 23.7346 144.276 23.6146 144.276 22.2148V13.4961C144.276 12.0963 143.485 11.9763 143.485 11.9763L143.406 11.8963H150.169ZM135.378 20.1751L135.497 20.0951L134.587 23.2946C134.587 23.2946 132.57 23.9745 130.87 23.9745C126.322 23.9745 124.107 20.815 124.107 17.9354C124.107 14.376 126.796 11.6964 131.067 11.6964C133.44 11.6964 135.101 12.5362 135.101 12.5362V15.0959L135.022 15.0559C135.022 15.0559 134.033 12.8962 131.265 12.8962C128.576 12.8962 126.915 14.8959 126.915 17.9354C126.915 20.975 128.655 22.6547 131.186 22.6547C133.875 22.6547 135.378 20.1751 135.378 20.1751ZM156.536 13.4961V22.2148C156.536 23.6146 157.327 23.7346 157.327 23.7346L157.406 23.8146H153.214L153.293 23.7346C153.293 23.7346 154.084 23.6146 154.084 22.2148V13.4961C154.084 12.0963 153.293 11.9763 153.293 11.9763L153.214 11.8963H157.406L157.287 11.9763C157.287 11.9763 156.536 12.0963 156.536 13.4961ZM115.446 19.2552L117.265 15.4158L118.926 19.2552H115.446ZM122.96 22.2148L117.779 11.3364L112.638 22.2148C111.887 23.6946 111.017 23.7346 111.017 23.7346L110.938 23.8146H114.457L114.378 23.7346C114.378 23.7346 113.39 23.5346 114.022 22.2148L114.932 20.2951H119.322L120.231 22.2148C120.864 23.5346 119.875 23.7346 119.875 23.7346L119.796 23.8146H124.621L124.542 23.7346C124.582 23.7346 123.672 23.6946 122.96 22.2148ZM73.8026 22.2148C73.8026 20.815 73.8026 14.8959 73.8026 13.4961C73.8026 12.0963 74.5936 11.9763 74.5936 11.9763L74.6727 11.8963H70.4807L70.5598 11.9763C70.5598 11.9763 71.3507 12.0963 71.3507 13.4961C71.3507 14.8959 71.3507 16.8956 71.3507 16.8956H65.5372V13.4961C65.5372 12.0963 66.3282 12.0163 66.3282 12.0163L66.4073 11.9363H62.2152L62.2943 12.0163C62.2943 12.0163 63.0853 12.0963 63.0853 13.4961V22.2148C63.0853 23.6146 62.2943 23.7346 62.2943 23.7346L62.2152 23.8146H66.4073L66.3282 23.7346C66.3282 23.7346 65.5372 23.6146 65.5372 22.2148V18.0954H71.3112V22.2148C71.3112 23.6146 70.5202 23.7346 70.5202 23.7346L70.4411 23.8146H74.6331L74.5541 23.7346C74.5936 23.7346 73.8026 23.6146 73.8026 22.2148ZM51.7352 11.8963C50.351 11.8963 50.1533 11.7764 50.1533 11.7764V14.136L50.2324 14.056C50.2324 14.056 50.8651 13.0162 52.2493 13.0162H54.2267V22.1748C54.2267 23.5746 53.4357 23.6946 53.4357 23.6946L53.3566 23.7746H57.5486L57.4696 23.6946C57.4696 23.6946 56.6786 23.5746 56.6786 22.1748V13.0162H58.6164C60.0006 13.0162 60.6729 14.056 60.6729 14.056L60.752 14.136V11.7764C60.752 11.7764 60.5543 11.8963 59.1701 11.8963H51.7352ZM79.537 19.2552L81.3562 15.4158L83.0172 19.2552H79.537ZM87.0906 22.2148L81.9099 11.3364L76.7687 22.2148C76.0173 23.6946 75.1473 23.7346 75.1473 23.7346L75.0682 23.8146H78.5879L78.5088 23.7346C78.5088 23.7346 77.5201 23.5346 78.1529 22.2148L79.0625 20.2951H83.4522L84.3618 22.2148C84.9946 23.5346 84.0059 23.7346 84.0059 23.7346L83.9268 23.8146H88.7516L88.6725 23.7346C88.6725 23.7346 87.8024 23.6946 87.0906 22.2148ZM95.356 11.8963L95.4351 11.9763C95.4351 11.9763 96.4633 12.2563 95.6724 13.4961C95.2769 14.096 94.13 15.7758 93.0623 17.3755C91.9945 15.7758 90.8476 14.056 90.4917 13.4561C89.7007 12.2163 90.7685 11.9363 90.7685 11.9363L90.8476 11.8563H86.0228L86.1019 11.9363C86.1019 11.9363 86.8138 12.0563 87.7234 13.4561C88.1188 14.056 90.0566 16.8156 91.1244 18.4554V22.1348C91.1244 23.5346 90.3335 23.6546 90.3335 23.6546L90.2544 23.7346H94.4464L94.3673 23.6546C94.3673 23.6546 93.5764 23.5346 93.5764 22.1348C93.5764 21.5349 93.5764 20.0551 93.5764 18.4554C94.6441 16.8156 96.6215 14.056 96.9774 13.4561C97.887 12.0563 98.9153 11.9363 98.9153 11.9363L98.9944 11.8563L95.356 11.8963ZM33.5829 22.6547C31.0519 22.6547 29.3118 20.975 29.3118 17.9354C29.3118 14.8959 31.0123 12.8962 33.662 12.8962C36.4303 12.8962 37.419 15.0559 37.419 15.0559L37.4981 15.0959V12.5362C37.4981 12.5362 35.8371 11.6964 33.4643 11.6964C29.1931 11.6964 26.5039 14.336 26.5039 17.9354C26.5039 20.815 28.7186 23.9745 33.2665 23.9745C34.9671 23.9745 36.984 23.2946 36.984 23.2946L37.8936 20.0951L37.854 20.1751C37.854 20.1751 36.3512 22.6547 33.5829 22.6547ZM42.5206 19.2552L44.3398 15.4158L46.0008 19.2552H42.5206ZM50.0346 22.2148L44.8539 11.3364L39.7128 22.2148C38.9614 23.6946 38.0913 23.7346 38.0913 23.7346L38.0122 23.8146H41.5319L41.4528 23.7346C41.4528 23.7346 40.4642 23.5346 41.0969 22.2148L42.0065 20.2951H46.3963L47.3059 22.2148C47.9386 23.5346 46.9499 23.7346 46.9499 23.7346L46.8708 23.8146H51.6956L51.6165 23.7346C51.6561 23.7346 50.786 23.6946 50.0346 22.2148Z" fill="#006B6E"/>
</g>
<defs>
<clipPath id="clip0">
<rect width="170" height="24" fill="white"/>
</clipPath>
</defs>
</svg>
