<svg width="142" height="28" viewBox="0 0 142 28" fill="none" xmlns="http://www.w3.org/2000/svg">
<g clip-path="url(#clip0)">
<path d="M78.987 17.6315C78.4861 18.0823 77.7348 18.3328 76.9334 18.3328C75.581 18.3328 74.9299 17.9321 74.5792 17.1306C73.8279 18.0323 72.8762 18.3328 71.574 18.3328C69.5203 18.3328 68.168 17.2809 68.168 15.4276C68.168 13.4741 69.9211 12.5224 72.2752 11.7711L72.4755 11.721C73.6777 11.3704 74.5792 10.9195 74.5792 9.91776V9.41687C74.5792 7.91418 73.878 7.11275 72.6258 7.11275C71.624 7.11275 71.2233 7.56356 71.0731 8.61544C71.023 9.16642 70.7726 9.76749 70.0212 9.76749C69.3701 9.76749 68.9694 9.36678 68.9694 8.81579C68.9694 7.46338 70.5221 6.56177 72.7761 6.56177C75.581 6.56177 76.683 7.66374 76.683 9.96785V15.5779C76.683 17.0806 76.9334 17.5814 77.6346 17.5814C77.9852 17.5814 78.3359 17.4813 78.6865 17.2308L78.987 17.6315ZM74.6293 14.4258V11.4204C74.1785 11.6709 73.7778 11.8712 73.3771 12.1217C71.6741 13.0233 70.4219 13.7246 70.4219 15.5278C70.4219 16.7299 71.2233 17.6315 72.2752 17.6315C73.7778 17.6315 74.6293 16.4795 74.6293 14.4258Z" fill="#D81E05"/>
<path d="M5.40952 10.3685H10.9192L8.16437 3.45617L5.40952 10.3685ZM11.1697 11.0698H5.10899L4.60811 12.2719C4.00705 13.7245 3.65644 15.0268 3.65644 15.7281C3.65644 16.8301 4.45785 17.3309 5.96049 17.5313V17.9821H0V17.4812C1.80317 17.381 2.60459 15.127 4.55802 10.3685L8.81552 0H9.36649L14.7259 13.1735C15.8279 15.9284 16.4289 17.4311 18.1319 17.4812V17.9821H10.819V17.5313C12.2215 17.4311 12.9728 17.0805 12.9728 16.1789C12.9728 15.7281 12.7224 15.0268 12.3217 14.025L11.1697 11.0698Z" fill="#D81E05"/>
<path d="M29.0506 6.9624H25.1438V7.4633H25.3441C26.997 7.4633 27.0471 8.01428 27.0471 10.8694V14.1753C27.0471 15.2272 26.997 15.9284 26.4461 16.5796C25.8951 17.2307 25.0937 17.6315 24.2923 17.6315C22.7896 17.6315 22.0383 16.5796 22.0383 14.576V6.9624H18.0312V7.4633H18.2316C19.8845 7.4633 19.9346 8.01428 19.9346 10.8694V14.4758C19.9346 16.9803 20.9865 18.3828 23.591 18.3828C25.0436 18.3828 26.0454 17.932 27.0471 17.0304C27.0471 17.2808 27.0471 18.2826 27.0471 18.2826L27.6482 18.1824C28.7501 18.0322 29.7519 17.8819 30.7536 17.7817H30.8037V17.381H30.7536C29.5014 17.2808 29.1508 16.83 29.1508 15.1771V6.9624H29.0506Z" fill="#D81E05"/>
<path d="M33.3104 9.56713C33.3104 11.5707 34.9633 12.272 36.7164 13.2237C37.9185 13.8748 38.77 14.6262 38.77 15.7281C38.77 16.8301 38.0187 17.6315 36.8667 17.6315C35.1637 17.6315 34.1619 16.78 33.5108 14.2755V14.2255H33.1602V18.1324H33.5108V18.0823C33.7612 17.7317 33.9616 17.5814 34.212 17.5814C34.3122 17.5814 34.5125 17.6816 34.7129 17.7818C35.1637 17.9822 35.9651 18.3328 36.9669 18.3328C39.1207 18.3328 40.6734 16.8802 40.6734 14.9267C40.6734 13.975 40.3228 13.2237 39.6716 12.5725C39.1707 12.0215 38.2692 11.5206 37.2674 11.0197C35.8649 10.2684 34.9633 9.76749 34.9633 8.66552C34.9633 7.76391 35.7147 7.16284 36.6663 7.16284C38.0187 7.16284 39.0706 8.16463 39.4713 10.0179V10.068H39.8219V6.71204H39.4713V6.76213C39.3711 7.06266 39.2208 7.16284 38.9704 7.16284C38.8702 7.16284 38.6699 7.06266 38.4695 7.01257C38.0187 6.81221 37.3676 6.56177 36.5662 6.56177C34.7129 6.56177 33.3104 7.814 33.3104 9.56713Z" fill="#D81E05"/>
<path d="M49.8862 17.4311C49.2851 18.0322 48.4837 18.3327 47.4319 18.3327C45.3783 18.3327 44.3765 17.381 44.3765 15.5778C44.3765 13.8747 44.4767 7.56347 44.4767 7.56347H43.0742V6.9624H43.1243C44.627 6.71195 45.4284 5.86043 46.0294 4.00712V3.95703H46.4802H46.5804L46.5303 6.9624H49.3853V7.61356H46.5804L46.5303 14.8264V15.127C46.5303 16.6798 46.9811 17.5313 48.2333 17.5313C48.7342 17.5313 49.185 17.381 49.5356 17.0304L49.8862 17.4311Z" fill="#D81E05"/>
<path d="M54.4469 6.61182C53.395 6.96244 52.243 7.26298 50.9908 7.46334H50.9407V7.86405H50.9908C52.3432 7.96423 52.7439 8.46513 52.7439 10.1181V14.0251C52.7439 16.9302 52.7439 17.4812 51.0409 17.4812H50.8906V17.9821H57.0515V17.4812H56.8511C55.8494 17.4812 55.3986 17.331 55.1982 16.8802C54.9478 16.3793 54.8977 15.4776 54.8977 14.1252V11.9213C54.8977 9.31665 55.8994 7.66369 56.801 7.66369C57.2518 7.66369 57.4522 7.91414 57.7026 8.26477C57.9531 8.61539 58.2035 9.0662 58.8046 9.0662C59.4056 9.0662 59.8063 8.66548 59.8063 8.1145C59.8063 7.21289 59.0049 6.66191 57.8529 6.66191C56.6007 6.66191 55.5488 7.31307 54.8476 8.76566C54.8476 7.96423 54.7975 7.41325 54.7474 6.81217V6.76208L54.4469 6.61182Z" fill="#D81E05"/>
<path d="M62.0586 2.35429C62.0586 3.10563 62.6096 3.60652 63.3108 3.60652C64.0621 3.60652 64.563 3.10563 64.563 2.35429C64.563 1.70312 63.9619 1.10205 63.3108 1.10205C62.6596 1.10205 62.0586 1.70312 62.0586 2.35429Z" fill="#D81E05"/>
<path d="M64.3639 6.61186C63.2119 6.91239 62.0098 7.21293 60.5572 7.46338H60.5071V7.86409H60.5572C61.9096 7.96427 62.3103 8.46517 62.3103 10.1181V14.0251C62.3103 16.9303 62.3103 17.4813 60.6073 17.4813H60.457V17.9822H66.3173V17.4813H66.1671C64.5142 17.4813 64.4641 16.9804 64.4641 14.0251V6.56177L64.3639 6.61186Z" fill="#D81E05"/>
<path d="M83.5953 6.61186C82.5435 6.96248 81.3914 7.26302 80.1392 7.46338H80.0891V7.86409H80.1392C81.4916 7.96427 81.8923 8.46517 81.8923 10.1181V14.0251C81.8923 16.9303 81.8923 17.4813 80.1893 17.4813H80.0391V17.9822H85.8994V17.4813H85.7491C84.0962 17.4813 84.0461 16.9804 84.0461 14.0251V10.5689C84.0461 9.7174 84.0962 9.01615 84.5971 8.36499C85.1481 7.71382 85.9495 7.31311 86.7509 7.31311C88.2535 7.31311 89.0048 8.3149 89.0048 10.3185V14.0251C89.0048 16.9804 88.9548 17.4813 87.3019 17.4813H87.1516V17.9822H93.0119V17.4813H92.8616C91.2087 17.4813 91.1586 16.9303 91.1586 14.0251V10.3686C91.1586 7.96427 90.1569 6.56177 87.6024 6.56177C86.1498 6.56177 85.098 6.96248 84.0461 7.96427C84.0461 7.76391 83.8959 6.71204 83.8959 6.71204L83.5953 6.61186Z" fill="#D81E05"/>
<path d="M141.999 15.3273C141.949 14.9767 141.999 14.6261 140.095 14.7262C138.192 14.8765 115.001 16.7799 111.996 16.7799C111.595 16.7799 109.992 16.8801 110.143 17.6314C110.293 18.3327 111.245 18.3828 111.495 18.4329C111.796 18.4829 114.651 18.7835 115.452 19.4847C116.704 20.5867 115.152 23.7423 112.998 25.2951C108.991 28.1502 111.044 28.3005 112.096 27.6493C117.506 24.2933 127.022 19.9355 140.396 16.4293C140.396 16.4293 142.099 16.0286 141.999 15.3273Z" fill="white"/>
<path d="M112.098 16.83C111.697 16.83 110.094 16.9302 110.244 17.6314C110.395 18.3327 111.346 18.3828 111.597 18.4329C111.847 18.4829 114.702 18.7835 115.504 19.4847C116.706 20.5867 115.153 23.6922 113.049 25.1949C109.142 27.9999 111.146 28.1502 112.248 27.499C117.507 24.2432 126.974 19.8854 140.247 16.4293C140.247 16.4293 141.95 16.0286 141.85 15.3273C141.8 14.9767 141.85 14.6261 139.947 14.7763C138.043 14.9266 115.103 16.83 112.098 16.83Z" fill="#FEFEFE"/>
<path d="M112.244 16.88C111.894 16.88 110.291 16.9802 110.391 17.6815C110.541 18.3827 111.493 18.4328 111.744 18.4328C111.994 18.4829 114.849 18.7834 115.6 19.4847C116.803 20.5867 115.2 23.6421 113.146 25.1448C109.339 27.8496 111.343 27.9999 112.395 27.3988C117.504 24.2432 126.92 19.8854 140.043 16.4793C140.043 16.4793 141.746 16.0786 141.646 15.3774C141.596 15.0267 141.646 14.6761 139.793 14.8264C137.89 14.9766 115.25 16.88 112.244 16.88Z" fill="#FDFDFD"/>
<path d="M112.446 16.8801C112.095 16.8801 110.492 16.9803 110.643 17.6815C110.793 18.3327 111.745 18.3828 112.045 18.4329C112.296 18.483 115.101 18.7835 115.852 19.4848C117.004 20.5867 115.451 23.5921 113.398 25.0948C109.691 27.7495 111.644 27.8998 112.696 27.2486C117.655 24.1932 126.971 19.8354 139.994 16.4794C139.994 16.4794 141.697 16.0787 141.597 15.4275C141.547 15.0769 141.597 14.7764 139.744 14.9266C137.74 15.0268 115.351 16.8801 112.446 16.8801Z" fill="#FBFBFC"/>
<path d="M112.598 16.9302C112.248 16.9302 110.645 17.0303 110.795 17.6815C110.945 18.3327 111.897 18.3828 112.198 18.4328C112.448 18.4829 115.253 18.7835 115.954 19.4847C117.056 20.5867 115.503 23.542 113.45 25.0447C109.843 27.6493 111.747 27.7996 112.799 27.1484C117.607 24.1931 126.873 19.8854 139.746 16.5295C139.746 16.5295 141.449 16.1287 141.349 15.4776C141.299 15.1269 141.349 14.8264 139.496 14.9767C137.642 15.0769 115.503 16.9302 112.598 16.9302Z" fill="#FAFAFA"/>
<path d="M112.749 16.9803C112.399 16.9803 110.846 17.0805 110.946 17.7316C111.046 18.3828 112.098 18.3828 112.349 18.4329C112.599 18.483 115.354 18.7835 116.055 19.4848C117.157 20.6368 115.604 23.4919 113.551 24.9445C110.044 27.449 111.898 27.5993 112.95 26.9982C117.608 24.1431 126.824 19.8354 139.546 16.4794C139.546 16.4794 141.249 16.0787 141.149 15.4776C141.099 15.127 141.149 14.8765 139.346 14.9767C137.493 15.127 115.604 16.9803 112.749 16.9803Z" fill="#F9F9F9"/>
<path d="M112.898 16.9803C112.547 16.9803 110.994 17.0805 111.094 17.7316C111.195 18.3828 112.247 18.3828 112.497 18.4329C112.747 18.483 115.502 18.7835 116.153 19.4847C117.205 20.6368 115.653 23.4418 113.649 24.8944C110.243 27.3488 112.096 27.4991 113.098 26.8479C117.606 24.093 126.772 19.7853 139.394 16.4794C139.394 16.4794 141.097 16.0787 140.947 15.4776C140.897 15.127 140.947 14.8765 139.144 15.0268C137.391 15.1771 115.753 16.9803 112.898 16.9803Z" fill="#F8F8F8"/>
<path d="M113.048 17.0303C112.698 17.0303 111.145 17.1305 111.295 17.7316C111.396 18.3326 112.447 18.3827 112.698 18.3827C112.948 18.4328 115.653 18.7333 116.304 19.4346C117.306 20.5867 115.753 23.3416 113.8 24.7942C110.494 27.1985 112.297 27.2986 113.299 26.6976C117.657 24.0428 126.773 19.7852 139.245 16.5294C139.245 16.5294 140.948 16.1287 140.797 15.5276C140.747 15.177 140.797 14.9766 138.994 15.0768C137.241 15.2271 115.903 17.0303 113.048 17.0303Z" fill="#F6F7F7"/>
<path d="M113.199 17.0303C112.849 17.0303 111.346 17.1305 111.446 17.7316C111.546 18.3326 112.598 18.3326 112.849 18.3827C113.099 18.4328 115.804 18.6833 116.405 19.4346C117.407 20.5867 115.854 23.2915 113.901 24.7441C110.645 27.0482 112.448 27.1985 113.45 26.5974C117.707 23.9927 126.723 19.7351 139.045 16.5294C139.045 16.5294 140.748 16.1287 140.598 15.5777C140.547 15.2772 140.598 15.0267 138.844 15.177C137.091 15.2772 116.004 17.0303 113.199 17.0303Z" fill="#F5F5F6"/>
<path d="M113.348 17.0804C112.997 17.0804 111.494 17.1806 111.595 17.7816C111.695 18.3827 112.747 18.3827 112.997 18.4328C113.248 18.4829 115.902 18.7333 116.503 19.4847C117.455 20.6367 115.902 23.2915 113.999 24.694C110.893 26.948 112.646 27.0482 113.598 26.4471C117.655 23.9927 126.621 19.7351 138.843 16.5294C138.843 16.5294 140.495 16.1287 140.395 15.5777C140.345 15.2772 140.395 15.0267 138.642 15.177C136.989 15.3273 116.153 17.0804 113.348 17.0804Z" fill="#F4F4F5"/>
<path d="M113.549 17.1305C113.199 17.1305 111.696 17.2307 111.846 17.7817C111.947 18.3327 113.049 18.3827 113.299 18.3827C113.549 18.4328 116.204 18.6833 116.755 19.4346C117.657 20.5867 116.154 23.1913 114.201 24.5938C111.195 26.7978 112.898 26.8979 113.85 26.2969C117.757 23.9427 126.673 19.6851 138.744 16.5294C138.744 16.5294 140.397 16.1287 140.297 15.6278C140.246 15.3273 140.297 15.1269 138.543 15.2271C136.84 15.3774 116.254 17.1305 113.549 17.1305Z" fill="#F3F3F3"/>
<path d="M113.7 17.1306C113.35 17.1306 111.897 17.2307 111.997 17.7817C112.097 18.3327 113.199 18.3327 113.45 18.3828C113.7 18.4329 116.305 18.6833 116.856 19.4347C117.707 20.5867 116.205 23.1413 114.301 24.5438C111.346 26.6476 113.049 26.7477 114.001 26.1968C117.807 23.9427 126.623 19.6851 138.594 16.5796C138.594 16.5796 140.247 16.1789 140.147 15.678C140.097 15.3774 140.097 15.1771 138.394 15.3273C136.691 15.4275 116.405 17.1306 113.7 17.1306Z" fill="#F2F2F2"/>
<path d="M113.849 17.1806C113.498 17.1806 112.045 17.2808 112.146 17.8318C112.246 18.3828 113.348 18.3828 113.598 18.3828C113.849 18.4329 116.403 18.6833 116.954 19.4347C117.806 20.5867 116.253 23.0912 114.4 24.4436C111.545 26.4973 113.197 26.5975 114.149 25.9964C117.806 23.8425 126.571 19.635 138.392 16.5295C138.392 16.5295 140.045 16.1288 139.945 15.6279C139.894 15.3273 139.894 15.1771 138.242 15.2772C136.589 15.4776 116.503 17.1806 113.849 17.1806Z" fill="#F0F1F1"/>
<path d="M113.998 17.2307C113.647 17.2307 112.245 17.3309 112.345 17.8318C112.445 18.3327 113.547 18.3327 113.798 18.3828C114.048 18.4328 116.602 18.6833 117.103 19.4346C117.905 20.5867 116.402 23.0411 114.549 24.3935C111.794 26.3971 113.447 26.4472 114.348 25.8962C117.855 23.7924 126.57 19.635 138.241 16.5795C138.241 16.5795 139.893 16.1788 139.793 15.728C139.743 15.4275 139.743 15.2772 138.09 15.4275C136.437 15.5277 116.653 17.2307 113.998 17.2307Z" fill="#EFF0F0"/>
<path d="M114.15 17.2306C113.8 17.2306 112.397 17.3308 112.497 17.8317C112.597 18.3326 113.699 18.3326 113.95 18.3827C114.2 18.4328 116.705 18.6832 117.206 19.4346C117.957 20.5866 116.454 22.9909 114.651 24.3433C111.996 26.2467 113.599 26.3469 114.501 25.7959C117.857 23.7924 126.472 19.6349 138.042 16.6296C138.042 16.6296 139.695 16.2289 139.595 15.778C139.545 15.4775 139.545 15.3773 137.892 15.4775C136.289 15.5777 116.755 17.2306 114.15 17.2306Z" fill="#EEEEEF"/>
<path d="M114.303 17.2808C113.952 17.2808 112.549 17.381 112.65 17.8819C112.75 18.3828 113.902 18.3828 114.102 18.3828C114.353 18.4329 116.857 18.6833 117.308 19.3846C118.059 20.5366 116.506 22.8908 114.703 24.2432C112.149 26.0966 113.701 26.1466 114.603 25.6457C117.809 23.7423 126.374 19.5849 137.844 16.6296C137.844 16.6296 139.497 16.2289 139.397 15.8282C139.347 15.5277 139.347 15.4275 137.744 15.5277C136.191 15.6279 116.907 17.2808 114.303 17.2808Z" fill="#EDEDEE"/>
<path d="M114.452 17.331C114.151 17.331 112.749 17.4311 112.849 17.932C112.949 18.3828 114.101 18.3828 114.301 18.4329C114.552 18.483 117.006 18.7335 117.457 19.4347C118.158 20.5868 116.656 22.8909 114.852 24.1932C112.398 25.9964 113.901 26.0465 114.852 25.4955C117.908 23.6923 126.423 19.585 137.743 16.6297C137.743 16.6297 139.396 16.229 139.295 15.8283C139.245 15.5277 139.245 15.4276 137.643 15.5778C136.04 15.678 117.056 17.331 114.452 17.331Z" fill="#ECECEC"/>
<path d="M114.651 17.3309C114.35 17.3309 112.948 17.381 113.048 17.8819C113.148 18.3327 114.3 18.3327 114.551 18.3327C114.801 18.3828 117.255 18.6333 117.656 19.3345C118.307 20.4866 116.805 22.7406 115.052 24.0429C112.697 25.746 114.2 25.7961 115.102 25.2952C118.007 23.5921 126.472 19.4848 137.641 16.5796C137.641 16.5796 139.244 16.1789 139.194 15.7782C139.144 15.4776 139.144 15.4275 137.541 15.5277C135.888 15.7281 117.155 17.3309 114.651 17.3309Z" fill="#EAEBEB"/>
<path d="M114.799 17.3809C114.499 17.3809 113.096 17.431 113.197 17.9319C113.297 18.3827 114.449 18.3326 114.699 18.3827C114.95 18.4328 117.354 18.6832 117.755 19.3845C118.406 20.5366 116.903 22.7405 115.15 24.0428C112.896 25.6958 114.349 25.7459 115.25 25.245C118.005 23.6421 126.42 19.5348 137.439 16.6296C137.439 16.6296 139.042 16.2289 138.992 15.8782C138.942 15.5777 138.942 15.5276 137.389 15.6779C135.786 15.7781 117.304 17.3809 114.799 17.3809Z" fill="#E9EAEA"/>
<path d="M114.953 17.381C114.652 17.381 113.3 17.4311 113.4 17.932C113.5 18.3327 114.652 18.3327 114.902 18.3828C115.153 18.4329 117.557 18.6833 117.908 19.3846C118.509 20.5366 117.006 22.6905 115.303 23.9928C113.149 25.5957 114.552 25.6458 115.453 25.0948C118.058 23.5921 126.373 19.4848 137.292 16.6297C137.292 16.6297 138.895 16.2289 138.845 15.8783C138.795 15.5778 138.795 15.5778 137.242 15.678C135.639 15.8282 117.407 17.381 114.953 17.381Z" fill="#E8E8E9"/>
<path d="M115.101 17.4311C114.8 17.4311 113.448 17.4812 113.548 17.932C113.648 18.3327 114.851 18.3327 115.051 18.3327C115.251 18.3828 117.655 18.6332 118.006 19.3345C118.557 20.4865 117.054 22.5903 115.402 23.8425C113.348 25.3452 114.7 25.3953 115.602 24.8944C118.056 23.4919 126.321 19.4347 137.14 16.5796C137.14 16.5796 138.743 16.1789 138.693 15.8783C138.642 15.5778 138.642 15.5778 137.09 15.678C135.487 15.8783 117.555 17.4311 115.101 17.4311Z" fill="#E7E7E8"/>
<path d="M115.253 17.4811C114.953 17.4811 113.6 17.5312 113.701 17.982C113.801 18.3827 115.003 18.3326 115.203 18.3827C115.404 18.4328 117.808 18.6833 118.108 19.3845C118.609 20.5366 117.157 22.5902 115.454 23.8425C113.5 25.2951 114.853 25.3452 115.704 24.8443C118.008 23.5419 126.223 19.4847 136.891 16.6797C136.891 16.6797 138.494 16.279 138.444 15.9784C138.394 15.6779 138.394 15.728 136.891 15.8282C135.389 15.9284 117.658 17.4811 115.253 17.4811Z" fill="#E5E6E7"/>
<path d="M115.403 17.4811C115.102 17.4811 113.8 17.5312 113.9 17.982C114 18.3326 115.202 18.3326 115.403 18.3326C115.603 18.3827 117.957 18.5831 118.258 19.3344C118.759 20.4864 117.256 22.49 115.603 23.7423C113.75 25.1448 115.052 25.1448 115.904 24.6439C118.057 23.3916 126.222 19.3845 136.74 16.6296C136.74 16.6296 138.343 16.2288 138.243 15.9283C138.193 15.6779 138.193 15.6779 136.69 15.778C135.238 15.9784 117.807 17.4811 115.403 17.4811Z" fill="#E4E5E6"/>
<path d="M115.551 17.5312C115.251 17.5312 113.948 17.5813 114.048 17.982C114.099 18.3327 115.351 18.3327 115.601 18.3327C115.802 18.3827 118.106 18.5831 118.406 19.3344C118.857 20.4865 117.404 22.44 115.751 23.6922C113.998 24.9945 115.251 25.0446 116.102 24.5437C118.106 23.3917 126.22 19.3845 136.588 16.6797C136.588 16.6797 138.191 16.279 138.091 16.0285C138.041 15.7781 138.041 15.7781 136.538 15.9284C135.085 15.9784 117.905 17.5312 115.551 17.5312Z" fill="#E3E4E4"/>
<path d="M115.75 17.5813C115.45 17.5813 114.197 17.6314 114.248 18.0321C114.298 18.3827 115.55 18.3326 115.8 18.3827C116.001 18.4328 118.305 18.6332 118.555 19.3845C118.956 20.5366 117.503 22.44 115.9 23.6421C114.248 24.8944 115.45 24.8944 116.301 24.4436C118.154 23.3917 126.169 19.4346 136.487 16.7298C136.487 16.7298 138.09 16.3291 137.989 16.0786C137.939 15.8282 137.939 15.8783 136.487 15.9784C134.984 16.0285 118.054 17.5813 115.75 17.5813Z" fill="#E2E2E3"/>
<path d="M115.904 17.5813C115.603 17.5813 114.351 17.6314 114.451 18.0321C114.501 18.3327 115.803 18.3327 116.004 18.3327C116.204 18.3828 118.458 18.5831 118.708 19.3345C119.109 20.4865 117.607 22.3398 116.054 23.542C114.501 24.694 115.703 24.7441 116.505 24.2432C118.208 23.2915 126.172 19.3345 136.34 16.6797C136.34 16.6797 137.892 16.279 137.842 16.0286C137.792 15.7781 137.792 15.8282 136.34 15.9284C134.837 16.0787 118.208 17.5813 115.904 17.5813Z" fill="#E1E1E2"/>
<path d="M116.052 17.6314C115.751 17.6314 114.499 17.6815 114.599 18.0321C114.65 18.3327 115.952 18.2826 116.152 18.3327C116.353 18.3828 118.606 18.5831 118.807 19.3345C119.157 20.4865 117.705 22.2897 116.102 23.4919C114.65 24.5939 115.802 24.5939 116.603 24.1431C118.156 23.2915 126.07 19.3345 136.087 16.7298C136.087 16.7298 137.64 16.3291 137.59 16.1287C137.54 15.8783 137.54 15.9785 136.087 16.0787C134.685 16.1287 118.306 17.6314 116.052 17.6314Z" fill="#DFE0E1"/>
<path d="M116.204 17.6816C115.904 17.6816 114.701 17.7316 114.752 18.0823C114.802 18.3828 116.104 18.3327 116.304 18.3828C116.505 18.4329 118.708 18.6333 118.909 19.3846C119.209 20.5367 117.757 22.2898 116.204 23.4919C114.852 24.5438 115.954 24.5438 116.755 24.093C118.158 23.3417 126.021 19.3846 135.889 16.83C135.889 16.83 137.441 16.4293 137.391 16.229C137.341 15.9785 137.341 16.0787 135.939 16.1789C134.586 16.1789 118.458 17.6816 116.204 17.6816Z" fill="#DEDFE0"/>
<path d="M116.354 17.6815C116.053 17.6815 114.851 17.7316 114.951 18.0822C115.001 18.3326 116.304 18.3326 116.504 18.3326C116.704 18.3827 118.908 18.5831 119.058 19.3344C119.359 20.4865 117.856 22.1895 116.354 23.3416C115.101 24.2933 116.153 24.2933 116.955 23.8425C118.207 23.1913 126.021 19.2843 135.738 16.7298C135.738 16.7298 137.291 16.3291 137.24 16.1788C137.19 15.9283 137.19 16.0285 135.788 16.1788C134.436 16.2289 118.558 17.6815 116.354 17.6815Z" fill="#DDDEDF"/>
<path d="M116.502 17.7316C116.251 17.7316 114.999 17.7817 115.099 18.0822C115.15 18.3327 116.452 18.2826 116.652 18.3327C116.853 18.3827 119.006 18.5831 119.157 19.2844C119.407 20.4364 117.954 22.0894 116.452 23.2414C115.3 24.143 116.352 24.143 117.103 23.6922C118.205 23.0912 125.918 19.2343 135.585 16.7298C135.585 16.7298 137.138 16.3291 137.088 16.1788C137.038 15.9284 137.038 16.0786 135.636 16.1788C134.283 16.279 118.706 17.7316 116.502 17.7316Z" fill="#DCDDDD"/>
<path d="M116.654 17.7316C116.404 17.7316 115.201 17.7817 115.252 18.0822C115.302 18.3327 116.654 18.2826 116.854 18.2826C117.055 18.3327 119.208 18.533 119.309 19.2343C119.509 20.3863 118.056 21.9892 116.604 23.1412C115.552 23.9928 116.554 23.9427 117.305 23.542C118.257 23.0411 125.92 19.1842 135.437 16.7298C135.437 16.7298 136.99 16.3291 136.94 16.1788C136.89 15.9284 136.89 16.0786 135.537 16.1788C134.185 16.3291 118.808 17.7316 116.654 17.7316Z" fill="#DADBDC"/>
<path d="M136.788 16.229C136.738 15.9785 136.738 16.1789 135.386 16.2791C134.033 16.3792 118.957 17.7817 116.853 17.7817C116.603 17.7817 115.401 17.8318 115.451 18.1324C115.501 18.3327 116.853 18.2826 117.054 18.3327C117.254 18.3828 119.358 18.5832 119.458 19.2844C119.608 20.4365 118.156 21.9893 116.753 23.1413C115.801 23.8927 116.753 23.8927 117.504 23.4418C118.306 23.0411 125.919 19.1842 135.286 16.7299C135.286 16.78 136.838 16.3792 136.788 16.229Z" fill="#D9DADB"/>
<path d="M133.434 0C133.434 0 120.661 0.951699 110.293 2.95528C110.293 2.95528 109.491 3.10555 108.99 3.20572C108.99 3.20572 110.844 2.90519 111.445 3.60644C112.046 4.30769 112.947 6.161 105.635 12.5725C103.18 14.6762 100.475 16.5796 98.4219 17.932L103.23 17.1306C105.484 14.9767 111.395 10.1682 116.654 7.41324C125.52 2.80501 132.482 0.350626 133.434 0C133.484 0.0500894 133.434 0 133.434 0Z" fill="url(#paint0_linear)"/>
<path d="M133.434 0C133.434 0 120.661 0.951699 110.293 2.95528C110.293 2.95528 109.491 3.10555 108.99 3.20572C108.99 3.20572 110.844 2.90519 111.445 3.60644C112.046 4.30769 112.947 6.161 105.635 12.5725C103.18 14.6762 100.475 16.5796 98.4219 17.932L103.23 17.1306C105.484 14.9767 111.395 10.1682 116.654 7.41324C125.52 2.80501 132.482 0.350626 133.434 0C133.484 0.0500894 133.434 0 133.434 0Z" fill="#D81E05"/>
<path d="M101.577 4.90877L105.984 5.55993C114.249 1.70304 113.848 5.91056 113.848 5.91056L116.854 1.80322C114.65 2.15385 112.446 2.50447 110.292 2.90519C110.292 2.90519 109.491 3.05546 108.99 3.15564L101.577 4.90877C101.527 4.90877 101.527 4.90877 101.577 4.90877C101.527 4.90877 101.527 4.90877 101.577 4.90877Z" fill="url(#paint1_linear)"/>
<path d="M101.577 4.90877L105.984 5.55993C114.249 1.70304 113.848 5.91056 113.848 5.91056L116.854 1.80322C114.65 2.15385 112.446 2.50447 110.292 2.90519C110.292 2.90519 109.491 3.05546 108.99 3.15564L101.577 4.90877C101.527 4.90877 101.527 4.90877 101.577 4.90877C101.527 4.90877 101.527 4.90877 101.577 4.90877Z" fill="#D81E05"/>
</g>
<defs>
<linearGradient id="paint0_linear" x1="114.43" y1="1.9868" x2="117.055" y2="14.3352" gradientUnits="userSpaceOnUse">
<stop stop-color="white"/>
<stop offset="0.2184" stop-color="#FCFCFC"/>
<stop offset="0.3937" stop-color="#F2F2F2"/>
<stop offset="0.5541" stop-color="#E1E2E2"/>
<stop offset="0.7047" stop-color="#C9CACC"/>
<stop offset="0.7247" stop-color="#C6C7C8"/>
</linearGradient>
<linearGradient id="paint1_linear" x1="101.514" y1="3.91576" x2="116.881" y2="3.91576" gradientUnits="userSpaceOnUse">
<stop stop-color="white"/>
<stop offset="0.0886" stop-color="#FBFBFB"/>
<stop offset="0.1804" stop-color="#EEEFEF"/>
<stop offset="0.2737" stop-color="#DADADB"/>
<stop offset="0.368" stop-color="#BDBDBE"/>
<stop offset="0.4622" stop-color="#98999A"/>
<stop offset="0.5" stop-color="#87888A"/>
</linearGradient>
<clipPath id="clip0">
<rect width="142" height="28" fill="white"/>
</clipPath>
</defs>
</svg>
