<svg width="224" height="181" viewBox="0 0 224 181" fill="none" xmlns="http://www.w3.org/2000/svg">
<rect x="36.0352" y="62.8667" width="117.326" height="117.326" fill="white"/>
<path d="M36.0352 121.53H153.362" stroke="#2F2C2C" stroke-linecap="round"/>
<path d="M94.6992 62.8667L94.6992 180.193" stroke="#2F2C2C" stroke-linecap="round"/>
<path d="M36.0352 92.1982H153.362" stroke="#2F2C2C" stroke-linecap="round"/>
<path d="M124.031 62.8667L124.031 180.193" stroke="#2F2C2C" stroke-linecap="round"/>
<path d="M36.0352 150.861H153.362" stroke="#2F2C2C" stroke-linecap="round"/>
<path d="M65.3672 62.8667L65.3672 180.193" stroke="#2F2C2C" stroke-linecap="round"/>
<path d="M7.3992 103.805C11.4848 96.7288 20.5335 94.3042 27.61 98.3899L99.6287 139.97L84.8334 165.596L12.8147 124.016C5.73818 119.931 3.31358 110.882 7.3992 103.805Z" fill="#A50515"/>
<path d="M115.207 166.048L84.8336 165.596L99.6289 139.97L115.207 166.048Z" fill="#A50515"/>
<path d="M99.6289 139.97L90.4456 155.876" stroke="white" stroke-linecap="round"/>
<path d="M137.491 32.7298C150.097 32.7298 160.316 42.9493 160.316 55.5557" stroke="#2F2C2C"/>
<path d="M160.113 74.922L165.567 65.4744L201.232 86.0654C203.841 87.5716 204.735 90.9076 203.228 93.5165C201.722 96.1254 198.386 97.0192 195.777 95.513L160.113 74.922Z" fill="#2F2C2C" stroke="#2F2C2C"/>
<circle cx="137.485" cy="55.5567" r="29.2729" transform="rotate(180 137.485 55.5567)" stroke="#2F2C2C"/>
<path fill-rule="evenodd" clip-rule="evenodd" d="M51.107 42.9052C47.77 42.9052 45.0649 45.6104 45.0649 48.9474C45.0649 50.2619 43.9993 51.3275 42.6848 51.3275C41.3703 51.3275 40.3047 50.2619 40.3047 48.9474C40.3047 42.9814 45.1411 38.145 51.107 38.145C57.073 38.145 61.9094 42.9814 61.9094 48.9474C61.9094 54.1388 58.2473 58.4749 53.3654 59.5133V66.1581C53.3654 67.4726 52.2998 68.5382 50.9854 68.5382C49.6709 68.5382 48.6053 67.4726 48.6053 66.1581V57.3696C48.6053 56.0552 49.6709 54.9896 50.9854 54.9896C51.0057 54.9896 51.0259 54.9898 51.0461 54.9903C51.0663 54.9898 51.0867 54.9895 51.107 54.9895C54.444 54.9895 57.1492 52.2844 57.1492 48.9474C57.1492 45.6104 54.444 42.9052 51.107 42.9052Z" fill="#2F2C2C"/>
<circle cx="51.2193" cy="73.8292" r="2.47714" fill="#2F2C2C"/>
</svg>
