<svg width="120" height="120" viewBox="0 0 120 120" fill="none" xmlns="http://www.w3.org/2000/svg">
<path d="M82.1409 8.95348C90.7906 5.15376 100.388 11.4451 100.269 20.8121C100.19 27.0375 104.259 32.5184 110.242 34.2458C119.244 36.845 122.487 47.8515 116.344 55.0279C112.272 59.7846 111.822 66.6245 115.251 71.7944C120.406 79.5694 115.767 90.1633 106.471 91.7769C100.312 92.8459 95.5623 97.8431 94.8303 104.03C93.7266 113.358 83.3621 118.563 75.2762 113.862C69.9056 110.74 63.0757 111.564 58.5323 115.875C51.6729 122.383 40.4563 119.76 37.3544 110.956C35.2913 105.099 29.5712 101.359 23.3379 101.781C13.9457 102.417 7.11613 93.2162 10.4451 84.413C12.6546 78.5703 10.7299 72.013 5.72123 68.3427C-1.80969 62.8242 -1.07127 51.3314 7.14556 46.6524C12.5882 43.5531 15.3558 37.2561 13.922 31.2123C11.7635 22.1134 19.7484 13.7027 28.9981 15.3482C35.1331 16.4395 41.2927 13.3421 44.1001 7.75757C48.3372 -0.671003 59.823 -2.0421 65.7732 5.14376C69.7296 9.92173 76.408 11.4719 82.1409 8.95348Z" fill="white" stroke="white"/>
<path d="M35.3574 42.6943C39.1912 40.9672 42.2975 37.8956 44.0454 34.0706C45.7933 37.8956 48.8996 40.9672 52.7334 42.6943C48.8996 44.4214 45.7933 47.493 44.0454 51.3181C42.2975 47.493 39.1912 44.4214 35.3574 42.6943Z" stroke="#2F2C2C"/>
<path d="M65.0835 48.5871C65.2119 48.0858 65.9239 48.0858 66.0523 48.5871L66.2624 49.4079C68.1955 56.9565 74.0616 62.8683 81.595 64.86L82.3043 65.0475C82.8006 65.1787 82.8006 65.8831 82.3043 66.0143L81.595 66.2019C74.0616 68.1935 68.1955 74.1054 66.2624 81.654L66.0523 82.4748C65.9239 82.976 65.2119 82.976 65.0835 82.4748L64.8733 81.654C62.9402 74.1054 57.0742 68.1935 49.5408 66.2019L48.8314 66.0143C48.3352 65.8831 48.3352 65.1787 48.8315 65.0475L49.5408 64.86C57.0742 62.8683 62.9402 56.9565 64.8733 49.4079L65.0835 48.5871Z" fill="#2F2C2C" stroke="#2F2C2C"/>
</svg>
