<svg width="120" height="120" viewBox="0 0 120 120" fill="none" xmlns="http://www.w3.org/2000/svg">
<path d="M49.1529 6.46028C54.2539 -1.48676 65.7461 -1.48676 70.8471 6.46028C74.2318 11.7335 80.6623 14.1041 86.6108 12.2643C95.5563 9.49753 104.372 16.9656 103.23 26.3844C102.474 32.6213 105.891 38.6157 111.614 41.0746C120.233 44.7774 122.235 56.2409 115.382 62.7089C110.837 66.9979 109.651 73.8113 112.47 79.4116C116.727 87.8665 110.966 97.9399 101.623 98.4361C95.4107 98.766 90.1719 103.218 88.7743 109.342C86.6652 118.583 75.8618 122.553 68.3884 116.855C63.4225 113.069 56.5775 113.069 51.6116 116.855C44.1382 122.553 33.3348 118.583 31.2257 109.342C29.8281 103.218 24.5893 98.766 18.3775 98.4361C9.03379 97.9399 3.2731 87.8665 7.52972 79.4116C10.3492 73.8113 9.16302 66.9979 4.61834 62.7089C-2.23522 56.2409 -0.233098 44.7773 8.3858 41.0746C14.1094 38.6157 17.5264 32.6213 16.77 26.3844C15.6278 16.9656 24.4437 9.49753 33.3892 12.2643C39.3378 14.1041 45.7682 11.7335 49.1529 6.46028Z" fill="white" stroke="white"/>
<path d="M55.909 48.0026C56.0837 52.8474 52.298 56.921 47.4534 57.1014C42.6089 57.2817 38.54 53.5004 38.3653 48.6557C38.1905 43.8109 41.9762 39.7372 46.8208 39.5569C51.6654 39.3765 55.7343 43.1578 55.909 48.0026Z" stroke="#2F2C2C"/>
<circle r="8.77794" transform="matrix(0.999302 -0.0373529 0.0358885 0.999356 72.0771 71.9713)" fill="#2F2C2C" stroke="#2F2C2C"/>
<path d="M40.7609 81.4112L80.4899 37.7957" stroke="#2F2C2C"/>
</svg>
