<svg width="120" height="120" viewBox="0 0 120 120" fill="none" xmlns="http://www.w3.org/2000/svg">
<path d="M63.0661 3.86449C70.0676 -2.44254 81.1915 0.513757 84.0658 9.43089C85.9753 15.3549 91.5853 19.274 97.8154 19.0386C107.199 18.684 113.783 28.1045 110.24 36.8235C107.889 42.6082 109.643 49.231 114.546 53.056C121.923 58.8128 120.891 70.3016 112.581 74.7382C107.072 77.6798 104.154 83.9041 105.431 89.9978C107.356 99.1785 99.1772 107.357 89.9965 105.432C83.903 104.154 77.6786 107.072 74.7368 112.582C70.3 120.891 58.8111 121.923 53.0546 114.545C49.2298 109.643 42.6071 107.888 36.8222 110.239C28.1032 113.782 18.6829 107.197 19.0377 97.814C19.2733 91.5839 15.3544 85.9738 9.43049 84.0641C0.51347 81.1896 -2.44249 70.0655 3.86475 63.0642C8.04711 58.4215 8.66691 51.586 5.37888 46.3078C0.42848 38.361 5.32891 27.8941 14.6366 26.5585C20.8102 25.6726 25.6741 20.8088 26.5602 14.6352C27.8961 5.32759 38.3631 0.427469 46.3097 5.37812C51.5878 8.66631 58.4233 8.04672 63.0661 3.86449Z" fill="white" stroke="white"/>
<ellipse cx="58.4292" cy="45.7833" rx="9.76903" ry="9.6695" fill="#2F2C2C"/>
<path d="M76.7722 72.0468C77.664 74.178 78.1522 76.4517 78.214 78.7545L40.1512 78.7545C40.213 76.4517 40.7012 74.178 41.593 72.0468C42.5494 69.7615 43.9512 67.6847 45.7188 65.9352C47.4865 64.1855 49.5852 62.7974 51.8954 61.8502C54.2056 60.9031 56.6818 60.4155 59.1826 60.4155C61.6834 60.4155 64.1596 60.9031 66.4698 61.8502C68.78 62.7974 70.8787 64.1855 72.6464 65.9351C74.414 67.6847 75.8158 69.7615 76.7722 72.0468Z" stroke="#2F2C2C"/>
</svg>
