<svg width="492" height="513" viewBox="0 0 492 513" fill="none" xmlns="http://www.w3.org/2000/svg">
<path d="M173.207 61.8084C170.087 71.5229 161.451 72.5378 160.798 72.7553C160.798 72.7553 153.686 84.6446 151.218 88.2694C148.751 91.8942 139.099 79.5699 139.099 79.5699C139.099 79.5699 151.291 64.4907 151.509 62.4609C151.726 60.431 151.291 56.4437 152.162 53.0364" fill="#FCF5F0"/>
<path d="M173.207 61.8084C170.087 71.5229 161.451 72.5378 160.798 72.7553C160.798 72.7553 153.686 84.6446 151.218 88.2694C148.751 91.8942 139.099 79.5699 139.099 79.5699C139.099 79.5699 151.291 64.4907 151.509 62.4609C151.726 60.431 151.291 56.4437 152.162 53.0364" stroke="#2F2C2C" stroke-miterlimit="10" stroke-linecap="round" stroke-linejoin="round"/>
<path d="M162.164 60.882C162.164 60.882 160.35 60.302 158.753 61.8969" stroke="white" stroke-miterlimit="10" stroke-linecap="round" stroke-linejoin="round"/>
<path d="M322.981 278.614C325.449 278.657 331.14 274.816 332.341 273.438C333.542 272.059 334.753 265.134 334.769 260.202C334.777 257.753 326.028 249.454 320.11 240.295C314.113 231.014 306.536 213.881 306.536 213.881L291 219.271C291 219.271 305.365 239.939 307.172 245.147C305.016 251.615 306.261 259.248 306.536 261.511" fill="#FCF5F0"/>
<path d="M322.981 278.614C325.449 278.657 331.14 274.816 332.341 273.438C333.542 272.059 334.753 265.134 334.769 260.202C334.777 257.753 326.028 249.454 320.11 240.295C314.113 231.014 306.536 213.881 306.536 213.881L291 219.271C291 219.271 305.365 239.939 307.172 245.147C305.016 251.615 306.261 259.248 306.536 261.511" stroke="#2F2C2C" stroke-miterlimit="10"/>
<path d="M330.812 264.243C329.812 266.709 330.178 272.178 329.273 273.178C328.369 274.178 323.41 278.768 321.759 278.695C320.108 278.621 318.977 276.636 318.777 276.113" fill="#FCF5F0"/>
<path d="M330.812 264.243C329.812 266.709 330.178 272.178 329.273 273.178C328.369 274.178 323.41 278.768 321.759 278.695C320.108 278.621 318.977 276.636 318.777 276.113" stroke="#2F2C2C" stroke-miterlimit="10"/>
<path d="M318.49 260.779C318.49 260.779 322.75 261.526 323.045 263.955C323.34 266.384 324.475 269.532 324.475 269.532" fill="#FCF5F0"/>
<path d="M318.49 260.779C318.49 260.779 322.75 261.526 323.045 263.955C323.34 266.384 324.475 269.532 324.475 269.532" stroke="#2F2C2C" stroke-miterlimit="10"/>
<path d="M306.54 261.511C307.073 265.896 306.929 268.652 311.206 271.761C314.971 274.59 319.168 281.543 320.57 275.622C321.518 271.604 316.585 268.114 315.995 266.643C314.724 263.475 316.59 261.839 317.419 260.779" fill="#FCF5F0"/>
<path d="M306.54 261.511C307.073 265.896 306.929 268.652 311.206 271.761C314.971 274.59 319.168 281.543 320.57 275.622C321.518 271.604 316.585 268.114 315.995 266.643C314.724 263.475 316.59 261.839 317.419 260.779" stroke="#2F2C2C" stroke-miterlimit="10"/>
<path d="M150.055 55.139L158.981 66.3759C159.344 66.8833 160.07 66.9558 160.578 66.5209L183.655 48.1069C184.163 47.7444 184.235 47.0194 183.8 46.512L174.874 35.3476C174.511 34.8401 173.785 34.7676 173.277 35.2026L150.2 53.6166C149.692 53.9791 149.62 54.704 150.055 55.139Z" fill="#2F2C2C"/>
<path d="M169.946 67.6085C169.946 67.6085 177.929 56.3716 173.43 54.3417C169.874 52.7468 169.946 61.2288 168.059 61.0113C163.56 60.5038 161.093 67.6085 161.093 67.6085" fill="#FCF5F0"/>
<path d="M169.946 67.6085C169.946 67.6085 177.929 56.3716 173.43 54.3417C169.874 52.7468 169.946 61.2288 168.059 61.0113C163.56 60.5038 161.093 67.6085 161.093 67.6085" stroke="#2F2C2C" stroke-miterlimit="10" stroke-linecap="round" stroke-linejoin="round"/>
<path d="M152.02 51.2332C152.02 49.2758 152.963 45.8592 153.108 45.1342C153.399 43.6118 155.866 40.422 158.333 46.0767C158.551 46.5842 161.236 49.919 160.148 52.3838C159.059 54.8487 155.213 50.8614 154.923 49.774C154.777 49.2665 154.197 48.4691 153.761 47.6716" fill="#FCF5F0"/>
<path d="M152.02 51.2332C152.02 49.2758 152.963 45.8592 153.108 45.1342C153.399 43.6118 155.866 40.422 158.333 46.0767C158.551 46.5842 161.236 49.919 160.148 52.3838C159.059 54.8487 155.213 50.8614 154.923 49.774C154.777 49.2665 154.197 48.4691 153.761 47.6716" stroke="#2F2C2C" stroke-miterlimit="10" stroke-linecap="round" stroke-linejoin="round"/>
<path d="M162.2 42.5969C162.417 43.1044 165.175 46.5117 164.086 49.0491C162.998 51.5864 159.079 47.4541 158.716 46.3667C158.426 45.2793 156.539 43.2494 156.83 41.6545C157.12 40.0596 159.66 36.7972 162.2 42.5969Z" fill="#FCF5F0" stroke="#2F2C2C" stroke-miterlimit="10" stroke-linecap="round" stroke-linejoin="round"/>
<path d="M197.885 54.9214C200.134 55.3564 205.65 51.1516 213.197 37.7399C220.817 24.2556 213.197 19.5434 209.641 14.5411C206.012 9.53893 170.889 -2.93038 172.267 29.8378" fill="#2F2C2C"/>
<path d="M182.565 82.8325C181.041 82.76 155.987 107.437 141.679 120.084C140.155 120.301 158.835 82.905 158.835 82.905C158.835 82.905 142.144 67.6083 138.733 69.3482C129.82 78.5757 85.7191 149.946 105.023 166.982C120.553 180.684 161.665 157.213 181.912 138.437C202.159 119.66 196.861 83.8474 182.565 82.8325Z" fill="#A50515"/>
<path d="M339.465 408.629C340.771 410.659 368.348 432.046 368.348 432.046L355.14 451.982L318.202 422.549L339.465 408.629Z" fill="#FCF5F0"/>
<path d="M362.683 427.116C362.683 427.116 387.139 438.425 386.196 444.007C385.761 446.617 371.682 467.786 371.682 467.786L365.949 465.176C365.949 465.176 360.216 473.078 362.393 480.11C363.845 484.678 341.348 515.343 336.413 512.226C317.182 498.742 341.275 492.87 341.711 473.078C341.783 470.033 338.445 443.065 338.445 443.065C338.445 443.065 339.679 437.048 347.008 441.76C350.492 444.007 354.846 444.442 358.547 442.63C359.781 441.977 361.014 441.18 361.958 440.093C368.199 433.06 362.683 427.116 362.683 427.116Z" fill="#A50515"/>
<path d="M379.156 439.005C379.156 439.005 369.94 460.536 366.311 461.479C362.683 462.421 357.095 468.728 358.111 475.978C359.054 483.228 344.323 506.426 337.066 509.326" stroke="#FCF5F0" stroke-miterlimit="10" stroke-linecap="round" stroke-linejoin="round"/>
<path d="M201.87 284.226C206.369 294.158 215.223 323.664 221.174 343.89C225.02 357.157 232.422 369.119 242.509 378.616L316.095 447.705C317.038 448.575 318.562 448.575 319.506 447.705C331.044 436.758 340.188 424.288 345.195 409.354C345.195 409.354 288.01 353.025 272.335 338.163C261.885 328.304 251.29 231.159 245.702 209.845C237.647 179.107 212.828 165.985 198.677 192.664C192.581 204.263 195.629 257.62 201.87 284.226Z" fill="#2F2C2C"/>
<path d="M97.1602 460.319L79.7434 497.002L65.2294 475.76L84.4604 437.845L97.1602 460.319Z" fill="#FCF5F0"/>
<path d="M179.595 86.1671C178.217 87.762 165.444 118.428 146.504 202.233C127.563 286.038 128.071 290.606 128.071 290.606C128.071 290.606 160.292 297.783 168.492 296.26C176.693 294.738 202.237 118.5 180.249 87.8345" fill="#A50515"/>
<path d="M167.555 120.615L157.852 156.194" stroke="white" stroke-linecap="round" stroke-linejoin="round"/>
<path d="M186.272 179.034C183.733 180.629 121.395 333.668 116.17 345.63C110.945 357.592 73.9344 451.329 73.9344 451.329C89.7546 462.059 105.067 471.556 116.823 472.281C118.492 472.353 120.016 471.338 120.524 469.816L157.825 370.569L211.744 259.142C211.744 259.07 223.719 155.836 186.272 179.034Z" fill="#2F2C2C"/>
<path d="M169 39.6974C167.477 39.6974 166.242 37.4254 166.242 34.6227C166.242 31.82 167.477 29.548 169 29.548C170.523 29.548 171.758 31.82 171.758 34.6227C171.758 37.4254 170.523 39.6974 169 39.6974Z" stroke="#2F2C2C" stroke-miterlimit="10" stroke-linecap="round" stroke-linejoin="round"/>
<path d="M202.895 25.633C202.459 24.9806 178.656 6.13162 171.835 30.4903C171.835 30.4903 169.658 39.4798 165.303 39.2623C164.723 39.2623 164.287 39.6972 164.36 40.2772C164.578 41.2197 165.086 42.6696 166.61 44.2645C166.61 44.2645 159.28 60.9386 179.745 62.8235" fill="#FCF5F0"/>
<path d="M196.213 49.1943L201.656 74.2779H181.845L178.652 59.9962C178.724 59.9962 186.852 28.3154 196.213 49.1943Z" fill="#FCF5F0"/>
<path d="M175.824 40.2046C174.301 40.2046 173.067 37.9326 173.067 35.1299C173.067 32.3272 174.301 30.0552 175.824 30.0552C177.347 30.0552 178.582 32.3272 178.582 35.1299C178.582 37.9326 177.347 40.2046 175.824 40.2046Z" stroke="#2F2C2C" stroke-miterlimit="10" stroke-linecap="round" stroke-linejoin="round"/>
<path d="M198.418 40.4573L178.876 35.9817" stroke="#2F2C2C" stroke-miterlimit="10" stroke-linecap="round" stroke-linejoin="round"/>
<path d="M210.654 76.0176C210.654 76.0176 210.441 60.2008 201.922 63.0403C193.404 65.8798 174.292 69.5544 173.934 73.3352C173.426 78.6999 175.022 84.9346 177.708 85.5146C180.393 86.022 210.944 79.7874 210.654 76.0176Z" fill="white"/>
<path d="M179.594 86.167C179.594 86.167 163.629 100.159 167.983 134.014C172.337 167.87 183.803 179.469 188.157 179.977C192.511 180.484 202.816 180.919 207.171 178.454C211.525 176.062 226.547 89.5018 214.428 81.8173C202.308 74.0602 181.045 78.41 179.594 86.167Z" fill="white"/>
<path d="M210.65 76.0176C208.182 75.5102 193.596 86.1671 192.144 121.908C190.693 157.648 190.62 300.393 190.62 300.393C190.62 300.393 236.122 310.542 282.566 279.586L251.724 173.09C251.652 173.162 243.161 82.3248 210.65 76.0176Z" fill="#A50515"/>
<path d="M320.652 232.209L293.528 244.354L274.66 216.874L258.544 189.816L214.427 134.812C214.427 134.812 189.825 65.1435 214.862 77.6853C239.899 90.2271 271.539 142.642 274.66 146.556C277.78 150.471 312.017 210.243 320.652 232.209Z" fill="#A50515"/>
<path d="M266.738 189.616L258.113 187.999C245.371 171.407 222.535 150.803 213.91 133.014" stroke="white" stroke-linecap="round" stroke-linejoin="round"/>
<path d="M210.653 76.0174C214.063 76.3074 221.466 95.2289 221.175 98.9262C220.958 102.043 206.081 103.421 206.081 103.421L217.837 117.558L191.712 211.802C191.712 211.802 183.149 73.5526 210.653 76.0174Z" fill="#A50515"/>
<path d="M87.8711 486.408C87.8711 486.408 79.453 511.999 73.7926 511.709C71.1075 511.564 48.4657 500.037 48.4657 500.037L50.4251 494.02C50.4251 494.02 41.8618 489.235 35.1128 492.28C30.7587 494.238 -2.33313 475.461 0.134239 470.169C11.31 449.508 19.9458 472.706 39.6848 470.894C42.7327 470.604 69.1481 464.152 69.1481 464.152C69.1481 464.152 75.2439 464.659 71.3977 472.489C69.5835 476.186 69.6561 480.608 71.8332 484.016C72.6315 485.176 73.5748 486.263 74.8085 487.133C82.5735 492.498 87.8711 486.408 87.8711 486.408Z" fill="#A50515"/>
<path d="M78 504.097C78 504.097 55.5759 497.427 54.1971 493.948C52.8183 490.468 45.9241 485.683 38.8123 487.495C31.7004 489.308 6.95413 477.346 3.25307 470.459" stroke="#FCF5F0" stroke-miterlimit="10" stroke-linecap="round" stroke-linejoin="round"/>
<path d="M194.761 37.9573C195.559 34.3325 201.728 20.2683 186.561 18.3834C177.634 17.2959 169.724 14.9761 168.926 7.50898C168.128 0.0418951 172.047 -0.755561 175.603 1.56431C179.231 3.88418 181.553 0.549367 185.109 1.85429C188.738 3.15922 191.568 0.0418951 194.398 4.68164C197.228 9.32138 204.413 3.88418 204.921 10.8438C205.429 17.8034 213.702 27.8078 207.751 32.7376C201.873 37.5948 194.761 37.9573 194.761 37.9573Z" fill="#2F2C2C"/>
<path d="M202.672 17.9482C202.527 17.2233 201.003 14.5409 198.463 14.5409C195.923 14.5409 197.447 10.9886 194.254 10.5536C191.061 10.1187 189.174 12.511 187.069 9.97367C184.965 7.43631 183.804 5.76891 181.554 7.00134C179.304 8.30627 174.66 5.69641 174.66 5.69641" stroke="#FCF5F0" stroke-miterlimit="10" stroke-linecap="round" stroke-linejoin="round"/>
<path d="M342.876 460.971C342.876 459.231 333.66 453.069 330.612 455.752C327.564 458.361 340.264 460.971 342.005 462.711C343.747 464.451 343.747 447.415 348.101 449.154C352.455 450.894 343.747 463.146 343.747 463.146C343.747 463.146 335.401 462.711 334.531 472.353" stroke="#A50515" stroke-miterlimit="10" stroke-linecap="round" stroke-linejoin="round"/>
<path d="M58.4816 466.037C58.4816 464.297 49.2652 458.135 46.2172 460.817C43.1693 463.499 55.869 466.037 57.6107 467.777C59.3524 469.517 59.3524 452.48 63.7066 454.22C68.0608 455.96 59.3524 468.212 59.3524 468.212C59.3524 468.212 51.0068 467.777 50.136 477.419" stroke="#A50515" stroke-miterlimit="10" stroke-linecap="round" stroke-linejoin="round"/>
<path d="M132.378 132.997C134.918 130.46 143.844 119.005 143.844 119.005C143.844 119.005 136.224 123.21 134.482 124.08" fill="#A50515"/>
<path d="M132.378 132.997C134.918 130.46 143.844 119.005 143.844 119.005C143.844 119.005 136.224 123.21 134.482 124.08" stroke="white" stroke-miterlimit="10" stroke-linecap="round" stroke-linejoin="round"/>
<path d="M206.378 213.18L246.436 203.103L248.613 215.21C249.049 217.675 247.525 220.067 245.13 220.72L215.159 228.477C212.546 229.129 209.934 227.607 209.281 224.997L206.378 213.18Z" fill="#A50515" stroke="white" stroke-miterlimit="10" stroke-linecap="round" stroke-linejoin="round"/>
<path d="M190.918 55.7913C189.655 58.6229 180.49 65.6308 168.631 59.7011L190.918 55.7913Z" fill="#FCF5F0"/>
<path d="M190.918 55.7913C189.655 58.6229 180.49 65.6308 168.631 59.7011" stroke="#2F2C2C" stroke-miterlimit="10" stroke-linecap="round" stroke-linejoin="round"/>
<path d="M195.923 49.9918C192.196 49.9918 189.174 47.1031 189.174 43.5397C189.174 39.9762 192.196 37.0875 195.923 37.0875C199.65 37.0875 202.672 39.9762 202.672 43.5397C202.672 47.1031 199.65 49.9918 195.923 49.9918Z" fill="#FCF5F0"/>
<path d="M199.555 42.0171C198.829 40.6397 197.16 40.1322 195.854 40.8572C194.475 41.5821 193.967 43.2496 194.692 44.5545" stroke="#2F2C2C" stroke-miterlimit="10" stroke-linecap="round" stroke-linejoin="round"/>
<path d="M195.06 46.7292C195.931 47.0192 196.801 46.5117 197.019 45.7142C197.309 44.8443 196.801 43.9743 196.003 43.7568" stroke="#2F2C2C" stroke-miterlimit="10" stroke-linecap="round" stroke-linejoin="round"/>
<path d="M197.91 81.5807C192.732 83.084 181.775 85.9903 179.37 85.5894" stroke="#2F2C2C" stroke-linecap="round" stroke-linejoin="round"/>
<path d="M204.754 76.9584L217.152 99.0601L201.519 105.529L208.527 125.474L192.355 192.318" stroke="white"/>
<path d="M388.211 272.793C383.747 263.354 372.179 259.438 362.421 264.008C352.663 268.578 348.404 279.971 352.867 289.41" stroke="#A50515" stroke-width="6" stroke-miterlimit="10" stroke-linecap="round" stroke-linejoin="round"/>
<path d="M357.833 338.465L423.013 307.781C425.038 306.834 425.932 304.436 425.006 302.403L407.833 266.275C406.908 264.314 404.475 263.492 402.376 264.442L337.197 295.126C335.171 296.073 334.277 298.472 335.203 300.504L352.376 336.633C353.374 338.591 355.734 339.416 357.833 338.465Z" fill="#A50515"/>
<path d="M375.396 300.705L382.543 297.296L385.825 304.302L378.678 307.712L375.396 300.705Z" fill="#FCF5F0" stroke="#FCF5F0" stroke-miterlimit="10" stroke-linecap="round" stroke-linejoin="round"/>
<path d="M415.168 282.187L342.862 316.004" stroke="#FCF5F0" stroke-miterlimit="10" stroke-linecap="round" stroke-linejoin="round"/>
<path d="M425.739 493.16L486.045 464.959C490.326 462.929 492.213 457.782 490.181 453.504L425.449 315.399C423.417 311.122 418.264 309.237 413.983 311.267L353.677 339.468L425.739 493.16Z" fill="#FCF5F0"/>
<path d="M434.93 512.516C429.948 512.516 425.91 508.478 425.91 503.496C425.91 498.515 429.948 494.477 434.93 494.477C439.911 494.477 443.949 498.515 443.949 503.496C443.949 508.478 439.911 512.516 434.93 512.516Z" fill="#A50515"/>
<path d="M407.373 332.001L466.953 461.333" stroke="#2F2C2C" stroke-miterlimit="10" stroke-linecap="round" stroke-linejoin="round"/>
<path d="M383.07 343.093L442.723 472.426" stroke="#2F2C2C" stroke-miterlimit="10" stroke-linecap="round" stroke-linejoin="round"/>
<path d="M317.957 261.858C319.626 264.758 425.406 492.703 425.406 491.471L317.957 261.858Z" fill="#FCF5F0"/>
<path d="M317.957 261.858C319.626 264.758 425.406 492.703 425.406 491.471" stroke="#2F2C2C" stroke-width="3" stroke-miterlimit="10" stroke-linecap="round" stroke-linejoin="round"/>
<circle r="4.31252" transform="matrix(-1 0 0 1 319.578 264.553)" fill="#2F2C2C"/>
</svg>
