<svg width="352" height="389" viewBox="0 0 352 389" fill="none" xmlns="http://www.w3.org/2000/svg">
<path d="M212.225 45.5432C212.225 45.5432 201.181 -6.69322 162.639 5.78216C162.639 5.78216 109.436 -8.90394 103.822 51.7068C101.279 79.1486 95.0114 87.0423 68.6122 101.6C42.2131 116.158 16.1267 138.105 25.9678 208.308C34.702 270.621 29.7173 271.958 29.7173 271.958L42.8387 232.177C42.8387 232.177 29.7213 171.234 38.8686 144.617C47.0574 120.784 64.9188 115.958 67.6778 115.169C70.4369 114.38 35.7166 125.338 40.0516 176.881C42.3775 204.555 45.1726 215.048 45.1726 215.048L245.398 218.985C256.727 194.815 253.202 160.257 235.336 131.465C215.827 100.022 218.353 69.9613 214.182 51.1981" fill="#2F2C2C"/>
<path d="M135.092 138.818L184.301 142.863L183.142 154.938L146.742 161.875L133.492 143.508L135.092 138.818Z" fill="#A50515"/>
<path d="M271.211 207.953C271.211 207.953 288.629 204.163 307.38 205.925C326.132 207.687 337.784 213.853 337.784 213.853L323.297 232.97L288.316 227.772L276.55 221.76L271.211 207.953Z" fill="#2F2C2C"/>
<path d="M214.122 162.84C224.043 153.244 257.188 219.446 263.801 239.254C271.223 261.493 295.67 351.324 293.52 357.055C291.367 362.79 252.408 369.799 232.22 311.951C206.174 237.32 214.122 162.84 214.122 162.84Z" fill="#A50515"/>
<path d="M184.763 122.819C161.552 127.284 140.816 107.235 138.426 92.7135C138.173 91.1836 134.836 74.4189 134.588 60.8582C134.367 48.7714 129.735 53.329 145.331 40.4291C173.018 17.5289 196.79 3.5637 204.06 43.2205C204.06 43.2205 205.187 55.1873 206.543 65.3237C206.623 65.9205 206.703 66.5132 206.787 67.0939C207.116 69.4929 207.461 71.7316 207.806 73.622C207.814 73.658 207.818 73.694 207.826 73.7301C207.97 74.5231 208.115 75.248 208.255 75.8968C210.212 84.8358 207.974 118.349 184.763 122.819Z" fill="white"/>
<path d="M188.243 85.0437C188.243 85.0437 187.758 86.3573 190.408 87.3506C191.828 87.8792 189.57 92.6571 185.656 91.5398" stroke="#2F2C2C" stroke-miterlimit="10" stroke-linecap="round" stroke-linejoin="round"/>
<path d="M154.09 75.3241C156.897 73.1254 159.139 70.9387 165.066 70.0616C165.106 70.0536 165.15 70.0496 165.19 70.0456C165.631 69.9855 166.072 69.9615 166.517 69.9655C168.891 69.9855 171.249 70.8346 173.158 71.7837C173.652 72.0321 174.117 72.2844 174.542 72.5327C176.258 73.5339 177.361 74.447 177.361 74.447" stroke="#2F2C2C" stroke-miterlimit="10" stroke-linecap="round" stroke-linejoin="round"/>
<path d="M207.712 71.4394C205.001 68.644 202.074 68.5639 199.72 68.9443C199.575 68.9604 199.431 68.9844 199.295 69.0084C198.408 69.1606 197.654 69.449 197.121 69.7654C194.013 71.5916 192.148 74.2349 192.148 74.2349" stroke="#2F2C2C" stroke-miterlimit="10" stroke-linecap="round" stroke-linejoin="round"/>
<path d="M162.638 5.78231C162.638 5.78231 177.52 -8.53533 203.907 7.88891C225.173 21.1252 224.002 61.5831 224.002 61.5831C214.454 62.9327 208.888 62.9808 197.74 62.5643C197.74 62.5643 198.762 38.9872 191.147 31.9185C191.147 31.9185 197.711 47.3335 193.493 62.9047L181.486 63.0649C181.486 63.0649 187.73 39.644 185.504 33.6767C185.504 33.6767 183.664 53.1006 174.541 63.2772C174.541 63.2772 163.492 64.3825 150.584 64.6749C141.416 64.8831 130.476 64.6749 130.476 64.6749C130.476 64.6749 119.256 31.2056 135.634 15.1258C151.41 -0.361261 162.638 5.78231 162.638 5.78231Z" fill="#2F2C2C"/>
<path d="M182.756 121.088C182.756 121.088 178.06 148.666 182.973 151.121C187.885 153.572 203.85 156.027 213.061 157.866C222.273 159.704 200.169 225.321 149.817 211.828C99.4645 198.336 100.435 154.87 100.435 156.096C100.435 157.321 135.504 146.696 137.858 145.286C141.467 143.132 149.704 102.566 147.455 102.285L182.756 121.088Z" fill="white"/>
<path d="M125.52 148.518C121.405 152.627 82.6027 153.256 55.2451 197.286C27.8876 241.316 22.0086 263.095 10.6638 289.191C-7.41422 330.775 -2.04456 347.824 23.2638 351.015C44.7023 353.719 70.5721 366.583 110.538 297.942C117.748 285.559 220.253 313.545 228.827 297.942C228.827 297.942 241.483 162.191 197.294 153.785C194.592 153.272 188.849 170.117 169.548 169.22C146.204 168.13 125.52 148.518 125.52 148.518Z" fill="#A50515"/>
<path d="M166.722 88.9387C175.013 88.6553 181.499 81.5515 181.209 73.0719C180.918 64.5923 173.961 57.9479 165.669 58.2313C157.378 58.5147 150.892 65.6185 151.182 74.0981C151.473 82.5777 158.43 89.2221 166.722 88.9387Z" stroke="#A50515" stroke-width="2" stroke-miterlimit="10"/>
<path d="M214.26 72.5764C214.474 64.0965 209.074 57.0818 202.2 56.9087C195.325 56.7357 189.578 63.4697 189.364 71.9497C189.15 80.4296 194.55 87.4443 201.424 87.6173C208.299 87.7904 214.046 81.0564 214.26 72.5764Z" stroke="#A50515" stroke-width="2" stroke-miterlimit="10"/>
<path d="M181.219 73.9822C181.219 73.9822 186.332 70.3585 189.764 73.85" stroke="#A50515" stroke-width="2" stroke-miterlimit="10"/>
<path d="M122.582 150.653C121.925 152.623 148.256 213.106 148.256 213.106L169.546 168.839L135.09 138.818L122.582 150.653Z" fill="#A50515"/>
<path d="M197.556 154.169C198.214 156.14 196.209 202.825 196.209 202.825L169.93 168.955L184.302 142.863L197.556 154.169Z" fill="#A50515"/>
<path d="M67.3075 180.258C67.8529 182.265 72.0516 175.036 73.6757 176.534C82.6305 184.792 97.0408 217.896 84.3806 274.253L71.1951 334.824C71.1951 334.824 160.877 391.476 243.684 329.852C243.684 329.852 236.904 283.44 235.861 257.365C234.818 231.29 236.341 179.982 232.211 174.448C220.738 155.674 201.964 152.279 200.745 154.43C197.998 158.298 206.736 207.659 173.351 251.982C173.351 251.982 134.312 230.507 114.561 152.279C114.561 152.279 107.605 146.545 86.7144 158.281C77.8801 163.244 65.936 175.216 67.3075 180.258Z" fill="#FCF5F0"/>
<path d="M67.4202 285.004C67.4202 285.004 140.077 303.797 144.601 311.078C149.124 318.363 134.867 365.041 134.867 365.041C134.867 365.041 33.2169 376.916 4.21511 341.552C-4.94332 332.333 -3.44004 272.753 67.4202 285.004Z" fill="#A50515"/>
<path d="M215.463 61.5713C215.018 63.3415 210.064 99.7977 239.158 123.887C268.253 147.976 248.002 171.655 244.898 184.054" stroke="#2F2C2C" stroke-miterlimit="10" stroke-linecap="round" stroke-linejoin="round"/>
<path d="M290.163 142.607C290.018 132.062 295.332 121.325 297.108 117.164C298.885 113.002 300.525 98.5567 299.446 93.2061C298.372 87.8555 305.586 87.9076 308.473 93.4344C311.361 98.9612 311.252 102.057 309.315 110.135C307.86 116.206 307.402 123.275 310.498 121.982C313.594 120.688 326.744 98.2163 329.198 94.1232C331.652 90.0302 343.398 72.9051 349.169 74.9356C353.419 76.4335 345.572 87.1707 341.822 93.4985C338.995 98.2684 334.973 106.723 334.973 106.723C334.973 106.723 339.809 103.711 343.089 106.222C345.676 108.201 344.352 114.328 344.352 114.328C344.352 114.328 349.526 114.805 348.463 119.707C347.641 123.507 350.973 122.25 350.913 125.458C350.837 129.607 346.775 136.796 345.864 138.546C337.623 154.357 320.239 164.486 315.948 166.693C309.857 169.824 293.467 177.109 291.642 170.093C289.818 163.076 290.163 142.607 290.163 142.607Z" fill="white"/>
<path d="M292.776 151.698C292.05 153.801 280.071 232.974 267.159 287.698C261.592 311.283 291.93 309.473 305.368 305.704C318.81 301.935 315.265 168.575 317.779 155.603C320.298 142.631 295.438 143.997 292.776 151.698Z" fill="white"/>
<path d="M317.564 166.166C316.085 175.507 316.579 207.462 316.579 214.836" stroke="#2F2C2C"/>
<path d="M261.849 286.941C262.804 281.286 271.903 225.601 271.903 225.601L322.291 227.88C322.291 227.88 338.155 362.838 289.68 361.889C277.577 359.242 251.098 350.663 261.849 286.941Z" fill="#A50515"/>
<path d="M168.385 300.165C168.385 300.165 172.547 318.327 171.116 337.928C169.684 357.528 163.532 369.623 163.532 369.623L144.047 353.879L148.655 317.37L154.517 305.203L168.385 300.165Z" fill="#2F2C2C"/>
<path d="M271.389 207.955L259.414 246.767C259.414 246.767 306.165 282.075 345.569 250.788L337.837 213.983C312.862 222.585 290.228 222.393 271.389 207.955Z" fill="#A50515"/>
<path d="M309.867 381.293C309.867 381.293 314.716 385.731 313.789 387.133C312.233 389.491 307.168 388.122 297.664 382.166C288.16 376.211 279.237 371.057 269.533 370.74C259.832 370.42 242.877 365.574 233.577 339.638C224.278 313.702 270.704 334.916 278.419 338.697C290.253 344.496 297.416 349.502 304.498 350.804C320.462 353.731 321.441 358.665 330.845 365.542C337.983 370.764 331.105 372.43 326.173 369.218C320.394 365.458 319.211 365.089 315.83 362.951C313.901 361.729 303.198 359.687 303.198 359.687C303.198 359.687 313.027 362.778 317.017 366.311C321.882 370.616 334.337 377.969 332.966 379.876C331.594 381.782 328.15 383.352 321.882 379.335C321.882 379.335 330.359 385.114 321.882 385.114C318.513 385.114 313.464 382.054 311.756 380.54C310.048 379.027 304.538 376.9 304.538 376.9L309.867 381.293Z" fill="white"/>
<path d="M241.031 328.616C238.621 328.861 135.274 314.631 135.274 314.631C135.274 314.631 115.28 355.93 122.197 357.108C129.111 358.285 246.545 358.305 249.842 356.195C253.138 354.08 251.695 327.531 241.031 328.616Z" fill="white"/>
<path d="M164.324 120.167C164.324 120.167 172.742 124.637 184.768 123.219" stroke="#2F2C2C" stroke-miterlimit="10" stroke-linecap="round" stroke-linejoin="round"/>
<path d="M123.535 154.826L149.497 194.831L169.929 168.955L187.261 191.916L197.423 154.81" stroke="white" stroke-miterlimit="10" stroke-linecap="round" stroke-linejoin="round"/>
<path d="M168.385 300.165L128.888 286.58C128.888 286.58 94.0356 334.615 126.434 376.735L163.532 369.623C154.357 343.222 154.128 319.513 168.385 300.165Z" fill="#A50515"/>
<path d="M143.499 55.3192C143.499 55.9159 150.071 67.2539 140.711 75.2118C131.352 83.1696 114.621 71.4311 114.621 71.4311C114.621 71.4311 142.107 41.394 143.302 54.5222" fill="#2F2C2C"/>
<path d="M139.417 95.7748C146.264 93.1958 149.599 85.2379 146.865 78.0004C144.132 70.7628 136.366 66.9864 129.519 69.5654C122.672 72.1444 119.337 80.1023 122.07 87.3398C124.803 94.5773 132.57 98.3538 139.417 95.7748Z" fill="white"/>
<path d="M126.405 85.4159C124.653 80.7702 126.201 75.8882 129.866 74.5065C133.531 73.1248 137.927 75.772 139.679 80.4177C139.679 80.4177 135.444 78.4593 134.458 82.6725C133.471 86.8857 137.217 88.0631 137.217 88.0631C137.217 88.0631 136.76 89.9574 134.013 90.442" stroke="#2F2C2C" stroke-miterlimit="10" stroke-linecap="round" stroke-linejoin="round"/>
<path d="M100.273 153.588C100.273 153.588 117.179 256.255 174.725 273.572C174.725 273.572 217.327 246.324 212.916 157.238" stroke="#FCF5F0" stroke-miterlimit="10" stroke-linecap="round" stroke-linejoin="round"/>
<path d="M262.574 235.842L259.414 246.771C259.414 246.771 267.659 253.019 271.28 254.345C271.28 254.345 261.138 298.759 260.268 308.095" stroke="white" stroke-miterlimit="10" stroke-linecap="round" stroke-linejoin="round"/>
<path d="M43.5859 279.254C43.5859 279.254 68.9242 285.351 80.8853 288.528" stroke="white" stroke-miterlimit="10" stroke-linecap="round" stroke-linejoin="round"/>
<path d="M324.703 126.86C323.46 129.391 317.465 129.327 317.886 126.687C318.279 124.236 320.088 119.354 320.942 116.427C321.812 113.439 326.087 110.235 336.277 106.022C347.373 101.436 344.361 114.324 344.361 114.324C350.056 114.885 348.227 121.089 348.227 121.089C350.341 123.64 354.251 124.793 345.167 139.711C332.98 159.732 315.957 166.689 315.957 166.689C315.957 166.689 311.281 169.676 307.211 165.183" stroke="#2F2C2C" stroke-miterlimit="10" stroke-linecap="round" stroke-linejoin="round"/>
<path d="M174.541 72.5324C174.517 74.9433 172.552 76.8897 170.13 76.8897C167.696 76.8897 165.723 74.9193 165.723 72.4884C165.723 71.5512 166.015 70.6782 166.517 69.9653C168.891 69.9854 171.249 70.8344 173.158 71.7835C173.651 72.0318 174.116 72.2841 174.541 72.5324Z" fill="#2F2C2C"/>
<path d="M208.01 71.5712C207.986 73.814 206.157 75.6242 203.903 75.6242C201.637 75.6242 199.801 73.7899 199.801 71.5272C199.801 70.6541 200.073 69.8411 200.539 69.1803C203.105 68.1991 205.166 69.4006 206.939 70.2816C207.404 70.5139 207.613 71.3389 208.01 71.5712Z" fill="#2F2C2C"/>
<path d="M170.754 99.5339C170.754 99.5339 171.7 102.81 176.196 102.285" stroke="#2F2C2C" stroke-miterlimit="10" stroke-linecap="round" stroke-linejoin="round"/>
<path d="M166.727 358.145L243.426 357.5C243.426 357.5 250.223 367.648 265.349 370.336C265.349 370.336 275.948 371.121 280.392 372.995C284.835 374.869 301.878 384.581 306.63 386.912C311.378 389.243 315.918 388.25 312.898 384.769C309.879 381.289 305.868 377.412 304.557 376.892C303.246 376.371 294.969 371.737 293.661 370.876" stroke="#2F2C2C" stroke-miterlimit="10" stroke-linecap="round" stroke-linejoin="round"/>
<path d="M344.358 114.328C341.555 113.143 328.699 117.147 327.7 118.565C326.702 119.983 324.789 127.472 322.804 131.421C321.721 133.572 323.902 135.534 325.839 135.102C327.776 134.669 330.206 133.768 330.776 130.179" stroke="#2F2C2C" stroke-miterlimit="10" stroke-linecap="round" stroke-linejoin="round"/>
<path d="M346.859 121.669C346.334 121.481 334.632 122.065 333.297 123.792C331.961 125.518 331.745 127.096 331.368 128.141C330.991 129.186 329.8 134.365 329.427 135.27C329.054 136.175 328.669 137.413 329.355 138.126C330.041 138.838 333.902 139.463 335.916 136.524C335.916 136.524 337.8 134.073 337.864 131.469C337.881 130.873 342.047 132.19 342.079 131.225C342.079 131.225 340.427 133.155 340.579 134.966" stroke="#2F2C2C" stroke-miterlimit="10" stroke-linecap="round" stroke-linejoin="round"/>
<path d="M321.891 379.327C321.891 379.327 314.079 372.562 312.238 370.904C310.397 369.246 305.505 368.826 297.629 363.948" stroke="#2F2C2C" stroke-miterlimit="10" stroke-linecap="round" stroke-linejoin="round"/>
</svg>
