<svg width="96" height="33" viewBox="0 0 96 33" fill="none" xmlns="http://www.w3.org/2000/svg">
<path d="M23.1494 8.54004C19.172 8.54004 15.9688 11.509 15.9688 16.095C15.9688 20.681 19.1987 23.6499 23.1494 23.6499C27.1268 23.6499 30.3301 20.681 30.3301 16.095C30.3301 11.509 27.1268 8.54004 23.1494 8.54004ZM23.1494 22.1124C21.7079 22.1124 21.2542 19.5411 21.2542 16.095C21.2542 12.6489 21.7079 10.0775 23.1494 10.0775C24.5909 10.0775 25.0447 12.6489 25.0447 16.095C25.0447 19.5411 24.5909 22.1124 23.1494 22.1124Z" fill="white"/>
<path d="M59.5072 14.5313C59.5072 10.3695 57.6386 8.56689 52.5668 8.56689C49.5503 8.56689 46.2136 9.68025 46.2136 12.2251C46.2136 13.6035 47.0144 14.6639 48.3491 14.6639C50.4312 14.6639 50.9651 13.1529 50.6715 12.2781C50.5647 11.9335 50.5113 11.7479 50.5113 11.4828C50.5113 10.4755 51.5791 10.1044 52.5134 10.1044C53.5277 10.1044 54.3019 10.7141 54.3019 12.2781C54.3019 12.3576 54.3019 12.4371 54.3019 12.4902C53.8748 13.471 52.3265 14.5843 50.2711 15.3266C47.5216 16.3339 45.0391 17.6063 45.0391 19.8861C45.0391 22.3248 46.7742 23.6503 49.577 23.6503C51.5791 23.6503 53.1273 22.5899 54.2218 21.0524L54.729 23.3057H59.5072H61.3224L59.5072 19.568V14.5313ZM51.6592 20.8139C50.6448 20.8139 50.191 19.9921 50.191 19.1968C50.191 18.4281 50.4846 17.1557 52.113 16.2544C52.807 15.8833 53.6879 15.3796 54.3286 14.6904V17.3412C54.3019 18.8257 53.0739 20.8139 51.6592 20.8139Z" fill="white"/>
<path d="M16.4492 10.2633C16.4492 10.2633 17.7306 7.85101 17.7306 5.86286C17.7306 3.60963 16.209 1.91309 13.94 1.91309C12.3384 1.91309 11.5376 2.8674 11.5376 3.95425C11.5376 5.09412 12.3117 5.88937 13.3794 5.88937C14.5807 5.88937 14.7141 5.25317 15.2747 5.25317C15.5683 5.25317 15.862 5.59777 15.862 6.23398C15.862 7.18829 15.595 8.30165 14.8476 9.70661C13.9934 11.2971 12.5252 14.0805 11.2706 16.4398L7.56016 8.88484H1.84766L9.18849 23.9947L16.4492 10.2633Z" fill="white"/>
<path d="M75.7363 15.1673C75.7363 12.4369 74.2415 10.3427 72.0526 9.30891C74.3483 8.30158 74.9622 6.33995 74.9622 4.90848C74.9622 3.15892 73.6809 1.8335 71.8924 1.8335C70.3709 1.8335 69.4099 2.62875 69.4099 3.84814C69.4099 5.12055 70.2908 5.78327 71.2785 5.78327C72.3729 5.78327 72.6398 5.14707 73.0936 5.14707C73.2805 5.14707 73.414 5.2531 73.414 5.46517C73.414 7.08219 71.5187 8.51365 68.5557 8.51365C64.5783 8.51365 61.375 11.1115 61.375 15.1408C61.375 19.1171 64.4982 21.6884 68.3955 21.7679H68.6357C72.7199 21.7679 73.5474 22.2716 73.5474 23.438C73.5474 24.5248 72.2928 24.7634 71.1183 24.7634C68.3955 24.7634 62.8699 23.9416 62.8699 23.9416L64.0978 29.2964H68.876C72.8534 29.2964 75.3359 27.3347 75.3359 23.7561C75.3359 22.3776 74.5351 21.1052 72.8801 20.5485C74.6152 19.4352 75.7363 17.5531 75.7363 15.1673ZM68.5557 10.0777C69.9971 10.0777 70.4509 12.2514 70.4509 15.1673C70.4509 18.0832 69.9971 20.257 68.5557 20.257H68.529C67.0875 20.2304 66.6337 18.0832 66.6337 15.1673C66.6337 12.2514 67.0875 10.0777 68.5557 10.0777Z" fill="white"/>
<path d="M44.3184 8.88477H40.955L41.996 13.3912L39.7003 17.8447L35.3492 8.88477H29.6367L36.7106 23.4115C36.0433 24.3658 35.1891 24.8429 34.0946 24.8429C32.5731 24.8429 31.4519 23.385 31.4519 23.385V29.3494C34.0412 29.3494 36.0166 27.9444 37.2979 26.0358L38.4457 24.0212L46.2404 8.91128H44.3184V8.88477Z" fill="white"/>
<path d="M94.1558 23.3056L92.394 19.6739V8.8584H87.1353V16.0952C87.1353 18.7726 86.7883 20.8138 85.0265 20.8138C83.4515 20.8138 83.0244 19.8329 83.0244 17.9508V14.5047V8.8849H77.7657H76.0039L77.7657 12.5166V16.7314C77.7657 21.1849 79.394 23.6502 83.3447 23.6502C85.2667 23.6502 86.6014 22.4308 87.3755 21.0788L87.4022 21.1584L87.8827 23.3056H92.4207H94.1558Z" fill="white"/>
</svg>
