<svg width="104" height="36" viewBox="0 0 104 36" fill="none" xmlns="http://www.w3.org/2000/svg">
<rect width="104" height="36" fill="#FCF5F0"/>
<path d="M25.0759 9.31641C20.7671 9.31641 17.2969 12.5553 17.2969 17.5582C17.2969 22.5611 20.796 25.7999 25.0759 25.7999C29.3848 25.7999 32.855 22.5611 32.855 17.5582C32.855 12.5553 29.3848 9.31641 25.0759 9.31641ZM25.0759 24.1227C23.5143 24.1227 23.0227 21.3176 23.0227 17.5582C23.0227 13.7988 23.5143 10.9937 25.0759 10.9937C26.6375 10.9937 27.1291 13.7988 27.1291 17.5582C27.1291 21.3176 26.6375 24.1227 25.0759 24.1227Z" fill="#A50515"/>
<path d="M64.4629 15.852C64.4629 11.3118 62.4386 9.34534 56.9441 9.34534C53.6763 9.34534 50.0615 10.5599 50.0615 13.3361C50.0615 14.8398 50.929 15.9966 52.375 15.9966C54.6306 15.9966 55.209 14.3482 54.8909 13.3939C54.7752 13.018 54.7173 12.8156 54.7173 12.5264C54.7173 11.4275 55.8741 11.0226 56.8862 11.0226C57.9851 11.0226 58.8238 11.6877 58.8238 13.3939C58.8238 13.4807 58.8238 13.5674 58.8238 13.6253C58.3611 14.6952 56.6838 15.9098 54.4571 16.7195C51.4785 17.8184 48.7891 19.2065 48.7891 21.6935C48.7891 24.354 50.6688 25.7999 53.7052 25.7999C55.8741 25.7999 57.5514 24.6432 58.737 22.9659L59.2865 25.424H64.4629H66.4293L64.4629 21.3465V15.852ZM55.9608 22.7057C54.8619 22.7057 54.3703 21.8092 54.3703 20.9416C54.3703 20.103 54.6884 18.7149 56.4524 17.7317C57.2043 17.3268 58.1586 16.7774 58.8527 16.0255V18.9173C58.8238 20.5368 57.4935 22.7057 55.9608 22.7057Z" fill="#A50515"/>
<path d="M17.8184 11.1961C17.8184 11.1961 19.2065 8.56452 19.2065 6.39564C19.2065 3.93757 17.5581 2.08679 15.1001 2.08679C13.365 2.08679 12.4974 3.12786 12.4974 4.31352C12.4974 5.55701 13.336 6.42456 14.4928 6.42456C15.7941 6.42456 15.9387 5.73052 16.546 5.73052C16.8641 5.73052 17.1822 6.10645 17.1822 6.8005C17.1822 7.84156 16.893 9.05614 16.0833 10.5888C15.1579 12.3239 13.5674 15.3604 12.2082 17.9341L8.18855 9.69234H2L9.95257 26.1759L17.8184 11.1961Z" fill="#A50515"/>
<path d="M82.0464 16.546C82.0464 13.5674 80.427 11.2828 78.0557 10.155C80.5426 9.05609 81.2078 6.91613 81.2078 5.35453C81.2078 3.44592 79.8197 2 77.8821 2C76.2338 2 75.1927 2.86755 75.1927 4.19779C75.1927 5.58588 76.147 6.30885 77.217 6.30885C78.4027 6.30885 78.6919 5.61481 79.1835 5.61481C79.3859 5.61481 79.5305 5.73047 79.5305 5.96182C79.5305 7.72585 77.4773 9.28744 74.2673 9.28744C69.9585 9.28744 66.4883 12.1214 66.4883 16.5171C66.4883 20.8548 69.8717 23.6599 74.0938 23.7467H74.3541C78.7786 23.7467 79.6751 24.2961 79.6751 25.5685C79.6751 26.7542 78.3159 27.0145 77.0435 27.0145C74.0938 27.0145 68.1077 26.118 68.1077 26.118L69.438 31.9595H74.6144C78.9232 31.9595 81.6126 29.8195 81.6126 25.9155C81.6126 24.4118 80.7451 23.0237 78.9521 22.4164C80.8318 21.2018 82.0464 19.1486 82.0464 16.546ZM74.2673 10.9936C75.8289 10.9936 76.3205 13.3649 76.3205 16.546C76.3205 19.727 75.8289 22.0983 74.2673 22.0983H74.2384C72.6768 22.0694 72.1852 19.727 72.1852 16.546C72.1852 13.3649 72.6768 10.9936 74.2673 10.9936Z" fill="#A50515"/>
<path d="M48.0106 9.69226H44.3669L45.4947 14.6084L43.0077 19.4667L38.294 9.69226H32.1055L39.7689 25.5396C39.0459 26.5806 38.1205 27.1012 36.9348 27.1012C35.2865 27.1012 34.0719 25.5107 34.0719 25.5107V32.0173C36.877 32.0173 39.017 30.4846 40.4051 28.4025L41.6486 26.2047L50.0927 9.72118H48.0106V9.69226Z" fill="#A50515"/>
<path d="M102 25.4239L100.092 21.4621V9.66333H94.3949V17.5581C94.3949 20.4788 94.019 22.7055 92.1104 22.7055C90.4042 22.7055 89.9415 21.6356 89.9415 19.5824V15.823V9.69224H84.2446H82.3359L84.2446 13.6541V18.2521C84.2446 23.1104 86.0086 25.7998 90.2885 25.7998C92.3706 25.7998 93.8166 24.4696 94.6552 22.9947L94.6841 23.0815L95.2047 25.4239H100.121H102Z" fill="#A50515"/>
</svg>
