<svg width="28" height="28" viewBox="0 0 28 28" fill="none" xmlns="http://www.w3.org/2000/svg">
<g clip-path="url(#clip0)">
<path d="M27.031 18.0976C26.9387 17.9838 26.8465 18.0066 26.7312 18.0749C26.2007 18.3708 25.6471 18.5984 25.0244 18.6667C24.3555 18.735 23.6867 18.735 23.0178 18.5301C22.3028 18.3025 21.7262 17.9155 21.4264 17.1871C21.2188 16.6862 21.1727 16.1627 21.2188 15.6163C21.2649 15.1383 21.4494 14.683 21.7723 14.3188C22.1183 13.9318 22.5565 13.7269 23.0409 13.5903C23.9865 13.3171 24.9321 13.2944 25.9008 13.3854C26.1084 13.4082 26.3391 13.431 26.5697 13.4537C26.5466 13.1806 26.5697 12.9301 26.5236 12.7025C26.5005 12.5659 26.3852 12.3838 26.2468 12.3155C25.9931 12.2017 25.7163 12.0879 25.4626 12.0651C24.6092 11.9968 23.7559 12.1106 22.9025 12.27C22.5565 12.3383 22.2336 12.4066 21.8646 12.4749C21.8646 12.3838 21.8415 12.3155 21.8415 12.27C21.8415 11.7692 21.8415 11.2456 21.8415 10.7448C21.8415 10.5854 21.8877 10.5171 22.0491 10.4944C22.8794 10.3806 23.6867 10.1984 24.517 10.1301C25.3473 10.0619 26.1776 10.0846 26.9849 10.335C27.3308 10.4488 27.6537 10.6082 27.9997 10.7448C27.9766 10.6537 27.9536 10.5399 27.9305 10.4488C27.4923 8.87812 26.8465 7.37568 25.8316 6.07812C25.4626 5.60007 25.1397 5.09925 24.7246 4.66673C24.2171 4.14316 23.6867 3.64234 23.1101 3.16429C22.0722 2.29925 20.8728 1.63909 19.6274 1.11551C17.9437 0.432587 16.2139 0.0683594 14.3918 0.0683594C13.5384 0.0683594 12.685 0.136652 11.8316 0.273237C9.802 0.569172 7.95686 1.32039 6.27317 2.4586C6.04252 2.61795 5.85801 2.80007 5.62737 2.95942C5.21221 3.30088 4.77399 3.59681 4.3819 3.96104C3.96674 4.3708 3.57465 4.80332 3.20562 5.2586C2.83659 5.69112 2.46756 6.12364 2.19079 6.60169C1.82177 7.19356 1.49887 7.83096 1.22209 8.46836C0.945324 9.08299 0.737745 9.69763 0.507103 10.335C0.43791 10.4944 0.484039 10.5399 0.668553 10.5171C1.7987 10.2895 2.95191 10.1529 4.10513 10.2895C4.84318 10.3578 5.55817 10.5399 6.18091 10.9952C6.64219 11.3367 6.8959 11.8147 7.05735 12.3383C7.17267 12.6797 7.12654 13.0667 7.12654 13.431C7.12654 15.1838 7.12654 16.9367 7.14961 18.6667C7.14961 18.8261 7.08041 18.8944 6.91896 18.8944C6.66526 18.8944 6.38849 18.8716 6.13478 18.8944C5.85801 18.9171 5.6043 18.8716 5.41979 18.644C5.32753 18.5301 5.21221 18.4391 5.09689 18.3253C5.00463 18.2114 4.91237 18.2114 4.79705 18.2797C3.87448 18.8488 2.85966 18.9854 1.7987 18.8488C1.4758 18.8033 1.1529 18.735 0.783874 18.6667C0.806938 18.7578 0.783874 18.8488 0.830002 18.9171C1.08371 19.509 1.31435 20.0781 1.61419 20.6472C1.98321 21.3757 2.42144 22.0586 2.97498 22.6732C3.39013 23.1513 3.78223 23.6521 4.24351 24.1074C4.56641 24.4488 4.9585 24.722 5.32753 25.0407C6.29623 25.883 7.40331 26.4976 8.57959 26.9984C10.0096 27.6131 11.5087 27.9773 13.0541 28.0911C14.2995 28.1822 15.545 28.1367 16.7905 27.909C17.7592 27.7269 18.6817 27.4537 19.6043 27.0895C20.3654 26.7708 21.1035 26.4293 21.7954 25.9741C22.3489 25.6098 22.8794 25.2001 23.4099 24.7675C23.8481 24.4033 24.2633 24.0163 24.6784 23.6066C25.0013 23.2879 25.2781 22.9009 25.5549 22.5367C26.4083 21.444 27.0541 20.2602 27.5384 18.9627C27.5615 18.8944 27.5384 18.7578 27.4692 18.6895C27.3308 18.3936 27.1694 18.257 27.031 18.0976ZM15.1529 17.2326C14.9684 17.6879 14.6224 18.0066 14.2073 18.257C13.5615 18.644 12.8465 18.7806 12.1084 18.8033C10.9091 18.8716 9.70974 18.7578 8.53346 18.3936C8.37201 18.348 8.30282 18.2797 8.30282 18.0976C8.30282 17.5741 8.30282 17.0277 8.30282 16.5041C8.30282 16.4358 8.30282 16.3675 8.30282 16.2993C8.87943 16.4358 9.43297 16.5952 9.98651 16.709C10.6784 16.8456 11.3934 16.8456 12.0854 16.8228C12.2237 16.8228 12.3621 16.7773 12.5005 16.709C12.9157 16.5497 13.1002 16.0033 12.8003 15.6619C12.7081 15.548 12.4774 15.457 12.316 15.4342C11.8086 15.4115 11.3012 15.4115 10.7938 15.4342C10.2402 15.457 9.68668 15.3887 9.20233 15.1838C8.85636 15.0472 8.53346 14.8196 8.34895 14.5009C7.79541 13.5675 7.74928 12.6115 8.11831 11.6098C8.30282 11.1318 8.67185 10.7903 9.13313 10.5399C9.70974 10.244 10.3094 10.1074 10.9321 10.0391C12.2237 9.90251 13.4692 10.0619 14.7147 10.4261C14.8992 10.4716 14.9684 10.5627 14.9684 10.7675C14.9684 11.2684 14.9684 11.7464 14.9684 12.2472C14.9684 12.3383 14.9684 12.4066 14.9453 12.5432C14.8531 12.5204 14.7839 12.4976 14.6916 12.4749C13.6307 12.0879 12.5466 11.9285 11.4165 11.9741C11.255 11.9741 11.1167 11.9968 10.9552 12.0196C10.863 12.0423 10.7707 12.0651 10.6554 12.0879C10.4247 12.1106 10.148 12.4066 10.1249 12.6342C10.1018 13.044 10.2402 13.2716 10.5631 13.3399C10.7015 13.3627 10.8399 13.3854 10.9783 13.3854C11.4857 13.3854 11.9931 13.3854 12.5005 13.3854C12.9849 13.3854 13.4461 13.4537 13.8844 13.6358C14.7147 13.9545 15.1298 14.5692 15.2682 15.3887C15.4297 16.0261 15.3835 16.6407 15.1529 17.2326ZM20.4577 18.735C19.6274 18.7123 18.774 18.7578 17.9437 18.6667C16.998 18.5529 16.4214 17.8928 16.3522 16.9139C16.283 16.1854 16.3061 15.4797 16.3061 14.7513C16.3061 13.5903 16.3061 12.4521 16.3061 11.2911C16.3061 10.5399 16.283 9.76592 16.26 9.0147C16.26 8.80982 16.3292 8.74153 16.5368 8.74153C16.998 8.74153 17.4593 8.74153 17.8975 8.74153C18.059 8.74153 18.1282 8.78706 18.1513 8.94641C18.2204 9.26511 18.3127 9.60657 18.3819 9.92527C18.405 10.0619 18.4972 10.1074 18.6356 10.1074C19.1891 10.1074 19.7427 10.1074 20.3193 10.0846C20.5961 10.0846 20.5961 10.0846 20.5961 10.3806C20.5961 10.8586 20.5961 11.3367 20.5961 11.7919C20.5961 11.9741 20.5499 12.0651 20.3424 12.0423C19.8811 12.0196 19.3967 12.0423 18.9354 12.0423C18.7509 12.0423 18.7048 12.1106 18.7048 12.27C18.7048 13.4765 18.7048 14.683 18.7048 15.8895C18.7048 16.5041 19.0277 16.8001 19.6504 16.8001C19.9503 16.8001 20.2732 16.8001 20.6191 16.8001C20.6191 17.4147 20.6191 17.9838 20.6191 18.5529C20.6191 18.644 20.5961 18.735 20.4577 18.735Z" fill="white"/>
<path d="M4.70511 13.5222C3.09061 13.3629 1.49918 13.2718 0.0461285 14.2052C0.0230643 14.1824 0.0230643 14.1596 0 14.1596C0.0230643 13.6588 0.0691928 13.158 0.092257 12.68C0.092257 12.5434 0.184514 12.5661 0.299835 12.5434C0.738056 12.4523 1.17628 12.3157 1.6145 12.2702C2.35255 12.1791 3.11367 12.0653 3.87479 12.2019C4.47446 12.3157 4.72817 12.6344 4.70511 13.2263C4.70511 13.2946 4.70511 13.3856 4.70511 13.5222Z" fill="white"/>
<path d="M25.2335 15.0244C25.6025 15.0699 25.9946 15.0927 26.3867 15.1382C26.5482 15.161 26.6173 15.2293 26.6173 15.3886C26.5943 15.5935 26.5943 15.8212 26.6173 16.026C26.6404 16.2309 26.5712 16.3447 26.3867 16.4586C25.8101 16.8 25.1874 16.9366 24.5416 16.8911C23.988 16.8456 23.6651 16.5496 23.6421 16.0716C23.619 15.5025 23.8727 15.1838 24.4724 15.0927C24.703 15.0472 24.9567 15.0472 25.2335 15.0244Z" fill="white"/>
<path d="M4.70431 15.8896C4.70431 15.9124 4.70431 15.9124 4.70431 15.9352C4.81963 16.3677 4.56592 16.5498 4.21996 16.6864C3.66642 16.914 3.11288 17.0506 2.53627 16.9368C1.95966 16.8457 1.75209 16.5498 1.77515 16.0035C1.77515 15.5254 2.02886 15.2522 2.55933 15.1612C3.2282 15.0474 3.89706 15.1157 4.56592 15.2067C4.61205 15.2067 4.68124 15.275 4.68124 15.3205C4.70431 15.5254 4.70431 15.7075 4.70431 15.8896C4.72737 15.8896 4.70431 15.8896 4.70431 15.8896Z" fill="white"/>
</g>
<defs>
<clipPath id="clip0">
<rect width="28" height="28" fill="white"/>
</clipPath>
</defs>
</svg>
