<svg width="48" height="26" viewBox="0 0 48 26" fill="none" xmlns="http://www.w3.org/2000/svg">
<path d="M0.289062 0.49979V25.5062H47.3485V0.49979H0.289062ZM45.5822 23.743H2.02724V2.26321H45.5822V23.743Z" fill="#2F2C2C"/>
<path d="M41.7534 12.8103L41.7361 13.5316C41.7173 14.5334 41.6325 15.1146 41.4083 15.8559C41.0051 17.1829 40.1549 18.3867 39.0427 19.2098C38.2584 19.791 37.3155 20.1763 36.2505 20.3583C35.8081 20.4339 34.7116 20.4632 34.2112 20.4108C32.8199 20.2735 31.6041 19.8051 30.5703 19.0144C30.2534 18.7725 29.6368 18.1836 29.3498 17.8507C28.622 16.9967 28.0744 15.887 27.8424 14.785C27.7105 14.1515 27.6885 13.9279 27.6917 13.1125C27.6917 12.2154 27.7325 11.8594 27.9238 11.1195C28.2688 9.80314 28.887 8.72579 29.8469 7.78415C30.6752 6.96876 31.5286 6.45718 32.6407 6.10401C33.1679 5.93591 33.8549 5.80196 34.4572 5.74952C34.5262 5.74335 34.8917 5.74335 35.2697 5.74644C36.222 5.75723 36.8117 5.85131 37.6243 6.11789C38.625 6.44616 39.6228 7.04124 40.3679 7.75331C40.6706 8.04302 41.1381 8.58258 41.1224 8.62114C41.1161 8.63039 40.8558 8.87693 40.539 9.17303C40.2221 9.46738 39.8755 9.79411 39.7656 9.89589L39.5665 10.0869L39.4033 9.87122C38.5797 8.79849 37.4786 8.10339 36.2063 7.85355C35.822 7.77644 34.9074 7.7456 34.4933 7.79495C32.5152 8.03531 30.981 9.25455 30.3191 11.1165C29.9788 12.0781 29.8971 13.2449 30.1012 14.2747C30.4243 15.8978 31.4362 17.2278 32.873 17.9168C34.0134 18.464 35.3765 18.5718 36.5312 18.2049C36.8261 18.1109 37.3658 17.8412 37.6386 17.6546C38.2833 17.206 38.8261 16.5109 39.1398 15.7372C39.2199 15.5415 39.3892 14.9387 39.3892 14.8539C39.3892 14.8292 39.0111 14.82 37.5963 14.82H35.8018V12.81H41.7534V12.8103Z" fill="#2F2C2C"/>
<path d="M15.4931 10.2348C14.8514 8.82454 14.1643 7.32638 13.9746 6.90249C13.7818 6.4786 13.6107 6.11485 13.5966 6.09635C13.5731 6.07321 13.4616 6.06242 13.2091 6.06242H12.8484L12.7809 6.20584C12.7432 6.28604 11.2169 9.47183 9.38638 13.2835C7.55896 17.0983 6.0625 20.2242 6.0625 20.2319C6.0625 20.2412 6.60063 20.2427 7.2594 20.2412L8.45316 20.2319L9.24063 18.5196L10.0281 16.8058L13.0838 16.8042H16.1411L16.9003 18.5165L17.6595 20.2319L18.8548 20.2412C19.5105 20.2427 20.0486 20.2381 20.0486 20.2288C20.0484 20.2072 20.1378 20.4029 15.4931 10.2348ZM13.0883 14.6231L10.9972 14.6138L12.0654 12.3203C12.649 11.061 13.1338 10.0376 13.1417 10.0376C13.1479 10.0422 13.6123 11.0718 14.1753 12.328C14.737 13.5719 15.1902 14.5999 15.1902 14.62C15.1854 14.6246 14.2381 14.6246 13.0883 14.6231Z" fill="#2F2C2C"/>
<path d="M24.6023 20.2287H22.4062V5.58628H24.6023V20.2287Z" fill="#2F2C2C"/>
</svg>
