<svg width="66" height="24" viewBox="0 0 66 24" fill="none" xmlns="http://www.w3.org/2000/svg">
<path d="M32.5905 24C29.2422 24 25.8939 24 22.5827 24C16.2953 24 10.045 24 3.75759 24C1.9718 24 0.446446 22.8018 0.0744076 21.059C0.0372038 20.8412 0 20.587 0 20.3328C0 14.7776 0 9.22239 0 3.66717C0 1.96067 1.15332 0.508321 2.86469 0.108926C3.19953 0.0363086 3.57157 0 3.9436 0C23.0664 0 42.1891 0 61.3119 0C63.0233 0 64.5114 1.05295 64.9207 2.5416C64.9951 2.79576 65.0323 3.08623 65.0323 3.34039C65.0323 9.07716 65.0323 14.7776 65.0323 20.5144C65.0323 21.8941 64.1394 23.1649 62.8744 23.6732C62.3164 23.8911 61.7211 24 61.1259 24C51.6017 24 42.1147 24 32.5905 24ZM22.2851 11.9818C22.2851 8.20575 22.2851 4.42965 22.2851 0.617247C22.2851 0.290469 22.2851 0.290469 21.9502 0.290469C15.9604 0.290469 9.97062 0.290469 3.9436 0.290469C3.64597 0.326778 3.34834 0.363086 3.05071 0.435704C1.45095 0.762481 0.334834 2.1059 0.334834 3.70348C0.334834 9.2587 0.334834 14.8139 0.334834 20.3691C0.334834 20.587 0.334834 20.8412 0.409242 21.059C0.744076 22.6203 2.15782 23.7095 3.8692 23.7095C9.89621 23.7095 15.9232 23.7095 21.9502 23.7095C22.2851 23.7095 22.2851 23.7095 22.2851 23.3828C22.2851 19.5703 22.2851 15.7579 22.2851 11.9818ZM29.0562 15.7216C29.1306 15.6853 29.1306 15.6853 29.1678 15.649C29.8375 15.1044 29.6514 14.1967 28.833 13.9062C28.6469 13.8336 28.4237 13.7973 28.2005 13.7973C27.6424 13.7973 27.0844 13.7973 26.5263 13.7973C26.3031 13.7973 26.2287 13.8699 26.2287 14.0877C26.2287 15.2496 26.2287 16.4115 26.2287 17.6097C26.2287 17.646 26.2287 17.7186 26.2287 17.7549C26.2659 17.7912 26.3031 17.8638 26.3775 17.8638C27.1588 17.8638 27.9401 17.8638 28.6841 17.8275C29.2422 17.7912 29.8375 17.4644 29.7631 16.6294C29.7631 16.1573 29.4654 15.9032 29.0562 15.7216ZM40.2545 15.3949C40.3289 15.4675 40.3661 15.5401 40.4033 15.5764C40.887 16.1936 41.4078 16.7746 41.8543 17.4281C42.1147 17.7912 42.4123 17.9002 42.8216 17.8638C42.9704 17.8638 43.0076 17.7912 43.0076 17.6823C43.0076 16.4478 43.0076 15.2133 43.0076 13.9788C43.0076 13.8699 42.9704 13.7973 42.8216 13.7973C42.6728 13.7973 42.524 13.7973 42.4123 13.7973C42.0775 13.7973 42.0775 13.7973 42.0775 14.1241C42.0775 14.8139 42.0775 15.4675 42.0775 16.1936C42.0031 16.121 41.9659 16.0484 41.9287 16.0121C41.4823 15.4312 40.9986 14.8502 40.5894 14.2693C40.3289 13.9062 40.0313 13.761 39.5849 13.7973C39.3616 13.8336 39.3244 13.8699 39.3244 14.0514C39.3244 15.1044 39.3244 16.1573 39.3244 17.174C39.3244 17.3918 39.25 17.6823 39.3616 17.7912C39.4732 17.9002 39.7709 17.8275 39.9941 17.8638C40.1801 17.9002 40.2545 17.8275 40.2545 17.6097C40.2545 16.8835 40.2545 16.1573 40.2545 15.3949ZM41.7799 11.3646C41.4078 10.8563 41.1102 10.3843 40.7754 9.94856C40.8126 9.91225 40.8498 9.91226 40.887 9.87595C41.5195 9.54917 41.7427 9.00454 41.5939 8.31468C41.4823 7.77005 41.0358 7.37065 40.3661 7.33434C39.6965 7.29803 38.9896 7.29803 38.2827 7.29803C38.1339 7.29803 38.1339 7.37065 38.1339 7.47958C38.1339 7.80635 38.1339 8.13313 38.1339 8.49622C38.1339 9.36763 38.1339 10.2753 38.1339 11.1467C38.1339 11.2557 38.0967 11.3646 38.2827 11.3646C38.5432 11.3646 38.8036 11.3646 39.1012 11.3646C39.1012 11.0015 39.1012 10.6384 39.1012 10.3116C39.1012 10.239 39.1012 10.1664 39.1384 10.1301C39.2128 10.0212 39.7709 10.0938 39.8453 10.2027C40.0685 10.5295 40.2917 10.8926 40.5522 11.2194C40.5894 11.292 40.6638 11.3646 40.7382 11.3646C41.073 11.3646 41.4078 11.3646 41.7799 11.3646ZM59.6005 11.3646C59.9725 11.3646 60.3074 11.3646 60.6794 11.3283C61.6839 11.2194 62.3908 10.4206 62.4652 9.44024C62.5396 8.45991 61.9071 7.5885 60.9026 7.40696C60.3446 7.29803 59.7121 7.33434 59.1169 7.29803C58.596 7.29803 58.596 7.29803 58.596 7.80635C58.596 8.93192 58.596 10.0212 58.596 11.1467C58.596 11.3283 58.6704 11.4009 58.8564 11.3646C59.0797 11.3646 59.3401 11.3646 59.6005 11.3646ZM45.6491 9.33132C45.6491 9.94856 45.6491 10.5658 45.6491 11.1467C45.6491 11.2557 45.6491 11.3646 45.7979 11.3646C46.4304 11.3646 47.0628 11.3646 47.6953 11.3283C48.737 11.2194 49.5183 10.348 49.4811 9.33132C49.4811 8.31468 48.6998 7.44327 47.6581 7.37065C47.0628 7.33434 46.4676 7.33434 45.8723 7.33434C45.6863 7.33434 45.6119 7.40696 45.6119 7.5885C45.6491 8.13313 45.6491 8.71407 45.6491 9.33132ZM46.728 14.6324C46.728 14.4145 46.728 14.1967 46.728 14.0151C46.728 13.8336 46.6536 13.7973 46.5048 13.7973C45.6119 13.7973 44.719 13.7973 43.8633 13.7973C43.6773 13.7973 43.6029 13.8699 43.6029 14.0514C43.6029 15.2496 43.6029 16.4478 43.6029 17.6097C43.6029 17.7912 43.6773 17.8638 43.8633 17.8638C44.6446 17.8638 45.3886 17.8638 46.1699 17.8638C46.8396 17.8638 46.8024 17.8638 46.8024 17.2103C46.8024 17.0651 46.728 17.0287 46.5792 17.0287C45.9839 17.0287 45.3887 17.0287 44.8306 17.0287C44.7562 17.0287 44.6818 17.0287 44.5702 17.0287C44.5702 16.8472 44.5702 16.6657 44.5702 16.4841C44.5702 16.3026 44.6074 16.23 44.8306 16.23C45.3142 16.23 45.8351 16.23 46.3187 16.23C46.3932 16.23 46.5048 16.1573 46.5048 16.121C46.542 15.9032 46.5048 15.649 46.5048 15.3949C45.8351 15.3949 45.2026 15.3949 44.5702 15.3949C44.5702 15.1407 44.5702 14.8865 44.5702 14.6324C45.277 14.6324 45.9839 14.6324 46.728 14.6324ZM44.9422 8.89561C44.4586 8.89561 44.0121 8.89561 43.5657 8.89561C42.9704 8.89561 42.9704 8.89561 43.0076 8.31468C43.0076 8.16944 43.0448 8.09682 43.2308 8.09682C43.6773 8.09682 44.1609 8.09682 44.6074 8.09682C45.2398 8.09682 45.2398 8.09682 45.2398 7.47958C45.2398 7.29803 45.1654 7.22542 44.9794 7.22542C44.0865 7.22542 43.1936 7.22542 42.3379 7.22542C42.2635 7.22542 42.1891 7.22542 42.1147 7.22542C42.1147 8.56884 42.1147 9.91225 42.1147 11.2557C43.1564 11.2557 44.1981 11.2557 45.277 11.2557C45.277 11.0378 45.277 10.8563 45.277 10.6384C45.277 10.4569 45.2026 10.4206 45.0538 10.4206C44.5702 10.4206 44.0865 10.4206 43.6029 10.4206C43.0448 10.4206 43.0448 10.4206 43.0448 9.87595C43.0448 9.65809 43.1192 9.62179 43.3052 9.62179C43.7889 9.62179 44.2725 9.62179 44.7562 9.62179C44.8678 9.62179 44.9794 9.62179 44.9794 9.47655C44.9422 9.36763 44.9422 9.14977 44.9422 8.89561ZM58.1868 11.3646C58.1868 11.1467 58.1868 10.9652 58.1868 10.7474C58.1868 10.6021 58.1496 10.5295 57.9635 10.5295C57.3683 10.5295 56.8102 10.5295 56.215 10.5295C56.1406 10.5295 56.0661 10.5295 55.9545 10.5295C55.9545 10.3116 55.9545 10.1301 55.9545 9.94856C55.9545 9.80333 56.0289 9.76702 56.1778 9.76702C56.5498 9.76702 56.8846 9.76702 57.2567 9.76702C57.4799 9.76702 57.6659 9.76702 57.8891 9.76702C57.8891 9.47655 57.8891 9.22239 57.8891 8.93192C57.2567 8.93192 56.6242 8.93192 55.9917 8.93192C55.9917 8.67776 55.9917 8.4236 55.9917 8.16944C56.5126 8.16944 57.0334 8.16944 57.5543 8.16944C58.1868 8.16944 58.1868 8.16944 58.1868 7.55219C58.1868 7.37065 58.1124 7.33434 57.9263 7.33434C57.0334 7.33434 56.1406 7.33434 55.2477 7.33434C55.1733 7.33434 55.0988 7.33434 55.0244 7.33434C55.0244 8.67776 55.0244 10.0212 55.0244 11.3646C56.0661 11.3646 57.1078 11.3646 58.1868 11.3646ZM33.6694 15.177H33.7067C33.7067 14.7776 33.7067 14.3782 33.7067 14.0151C33.7067 13.8699 33.6694 13.7973 33.5206 13.7973C33.3346 13.7973 33.1858 13.7973 32.9998 13.7973C32.8138 13.7973 32.7394 13.8699 32.7394 14.0514C32.7394 14.7776 32.7394 15.5038 32.7394 16.2663C32.7394 16.7383 32.4045 17.0651 31.9581 17.0651C31.4372 17.1014 31.1396 16.8109 31.0652 16.3389C31.028 16.1936 31.028 16.0121 31.028 15.8669C31.028 15.2496 31.028 14.6324 31.028 14.0151C31.028 13.8699 30.9908 13.7973 30.842 13.7973C30.6559 13.7973 30.5071 13.7973 30.3211 13.7973C30.1351 13.7973 30.0979 13.8699 30.0979 14.0151C30.0979 14.7413 30.0979 15.4675 30.0979 16.23C30.0979 16.702 30.2467 17.174 30.6187 17.5008C31.0652 17.9002 31.6604 17.9728 32.2185 17.9002C32.9998 17.8275 33.5578 17.3555 33.6694 16.593C33.7067 16.121 33.6694 15.649 33.6694 15.177ZM30.2839 11.3646C30.2467 11.2557 30.2095 11.1467 30.1723 11.0741C29.6886 9.98487 29.2422 8.93192 28.7585 7.84266C28.5353 7.26173 28.5353 7.26172 27.8657 7.26172C27.7168 7.26172 27.6424 7.29803 27.568 7.44327C27.0472 8.67776 26.5263 9.87595 25.9683 11.1104C25.9311 11.1831 25.9311 11.2557 25.8939 11.3646C26.1915 11.3646 26.4519 11.3646 26.6751 11.3646C26.7867 11.3646 26.8612 11.3283 26.8984 11.2194C26.9728 11.0015 27.0472 10.7837 27.1588 10.6021C27.196 10.5295 27.3076 10.4569 27.382 10.4569C27.8285 10.4569 28.3121 10.4569 28.7585 10.4569C28.9074 10.4569 28.9446 10.4932 28.9818 10.6021C29.0562 10.82 29.1306 11.0378 29.2422 11.2194C29.2794 11.292 29.3538 11.3283 29.391 11.3283C29.6886 11.3646 29.9863 11.3646 30.2839 11.3646ZM50.1135 14.2693C49.4811 13.7247 48.4022 13.5794 47.7697 13.9062C47.3232 14.1604 47.1 14.5235 47.1 15.0318C47.1 15.5038 47.3605 15.8306 47.8069 16.0121C47.9557 16.0484 48.1045 16.121 48.2161 16.1573C48.4766 16.23 48.737 16.3026 48.9974 16.4115C49.1462 16.4841 49.295 16.5567 49.2578 16.7746C49.2206 16.9924 49.0718 17.0287 48.8858 17.0651C48.4394 17.1377 48.0673 16.9924 47.6953 16.7746C47.6209 16.7383 47.5465 16.6657 47.4721 16.6294C47.286 16.8472 47.1 17.0651 46.8768 17.3192C47.1744 17.5008 47.4721 17.6823 47.7697 17.7912C48.365 18.0091 48.9602 18.0454 49.5555 17.7912C50.0391 17.5734 50.2624 17.174 50.2251 16.6657C50.2251 16.1936 49.9647 15.8669 49.5183 15.6853C49.3695 15.6127 49.1834 15.5764 49.0346 15.5038C48.8114 15.4312 48.551 15.3585 48.3278 15.2859C48.1789 15.2133 48.0301 15.1407 48.0673 14.9228C48.1045 14.705 48.2533 14.6324 48.4394 14.6324C48.6998 14.6687 48.9974 14.705 49.2578 14.7776C49.4067 14.8139 49.5183 14.9228 49.6671 14.9955C49.7787 14.7413 49.9275 14.5234 50.1135 14.2693ZM33.9671 17.2466C34.5251 17.8275 35.7157 18.0817 36.4597 17.7912C36.9806 17.6097 37.241 17.2103 37.241 16.702C37.2782 16.1936 37.0178 15.8306 36.4969 15.6127C36.3109 15.5401 36.0877 15.4675 35.9017 15.3949C35.7157 15.3222 35.4924 15.2859 35.3064 15.2133C35.1576 15.1407 35.0088 15.0318 35.0832 14.8502C35.1204 14.7413 35.2692 14.6324 35.3808 14.5961C35.6785 14.5235 35.9761 14.5961 36.2737 14.7413C36.3853 14.8139 36.5341 14.8865 36.6458 14.9592C36.7946 14.7413 36.9806 14.4871 37.1294 14.2693C36.6086 13.7973 35.6785 13.6157 35.0088 13.8336C34.4507 14.0151 34.1531 14.4145 34.1159 14.9228C34.1159 15.5038 34.3391 15.8306 34.9344 16.0484C35.046 16.0847 35.1576 16.121 35.2692 16.1573C35.5296 16.23 35.7901 16.3026 36.0505 16.4115C36.1993 16.4841 36.3481 16.5567 36.3109 16.7746C36.2737 16.9561 36.1249 17.0651 35.9389 17.0651C35.5296 17.1377 35.1948 17.0287 34.86 16.8472C34.7484 16.7746 34.6367 16.702 34.4879 16.6294C34.3391 16.8109 34.1531 17.0287 33.9671 17.2466ZM53.4619 14.2693C52.9038 13.6884 51.6761 13.5431 51.0064 13.9425C50.5972 14.1967 50.4112 14.5598 50.4484 15.0318C50.4484 15.4675 50.7088 15.7943 51.118 15.9758C51.3413 16.0484 51.5273 16.121 51.7505 16.1936C51.9737 16.2663 52.2342 16.3389 52.4574 16.4478C52.6806 16.5567 52.6806 16.8109 52.5318 16.9198C52.4574 16.9924 52.3458 17.0287 52.2341 17.0287C51.7505 17.1014 51.3413 16.9198 50.9692 16.6657C50.932 16.6294 50.7832 16.593 50.7832 16.6294C50.5972 16.8109 50.4484 16.9924 50.2251 17.2466C50.56 17.4281 50.8204 17.6097 51.118 17.7186C51.7133 17.9365 52.3086 17.9728 52.8666 17.7186C53.3503 17.5008 53.5363 17.1377 53.5735 16.6294C53.5735 16.121 53.3503 15.7943 52.9038 15.6127C52.755 15.5401 52.569 15.5038 52.4202 15.4312C52.1969 15.3585 51.9365 15.2859 51.7133 15.2133C51.5645 15.177 51.4157 15.0681 51.4529 14.8502C51.4901 14.6324 51.6389 14.5598 51.8249 14.5598C52.0481 14.5598 52.3086 14.6324 52.5318 14.6687C52.6806 14.705 52.8294 14.8139 53.0154 14.9228C53.127 14.7413 53.3131 14.5234 53.4619 14.2693ZM37.7991 7.91528C37.3154 7.29803 36.2365 7.08018 35.3808 7.40696C34.5251 7.69743 33.9671 8.49622 34.0043 9.40393C34.0415 10.3843 34.5995 11.1467 35.4924 11.4009C36.3481 11.6551 37.3898 11.3646 37.8363 10.711C37.7247 10.6021 37.5759 10.4932 37.4642 10.348C37.3154 10.1664 37.2038 10.1664 37.0178 10.3116C36.6458 10.6384 36.1621 10.711 35.7157 10.4932C35.2692 10.2753 35.046 9.91225 35.0088 9.44024C34.9716 8.96823 35.1576 8.56884 35.5668 8.31468C35.9761 8.06051 36.4225 8.09682 36.8318 8.31468C36.9806 8.38729 37.0922 8.49622 37.241 8.56884C37.3898 8.31468 37.5759 8.13313 37.7991 7.91528ZM33.8927 7.87897C33.1486 7.00757 31.5488 7.00757 30.6931 7.84266C29.8375 8.71407 29.8747 10.1664 30.842 10.9652C31.7349 11.6914 33.2974 11.5825 33.9299 10.6747C33.7811 10.5295 33.6322 10.4206 33.4834 10.2753C33.3718 10.1664 33.2974 10.1301 33.1486 10.2753C32.8138 10.5658 32.4417 10.6747 31.9953 10.6021C31.3256 10.4569 30.9164 9.76702 31.1024 9.04085C31.3256 8.24206 32.1441 7.91528 32.851 8.31468C32.9998 8.38729 33.1486 8.49622 33.2974 8.60514C33.5206 8.31468 33.7067 8.09682 33.8927 7.87897ZM53.4247 11.3646C53.4247 11.2557 53.4247 11.1831 53.4247 11.0741C53.4247 10.239 53.4247 9.40393 53.4247 8.56884C53.4247 8.13313 53.3875 8.16944 53.8339 8.16944C54.0571 8.16944 54.2804 8.16944 54.4664 8.16944C54.578 8.16944 54.6524 8.13313 54.6524 7.9879C54.6524 7.80635 54.6524 7.62481 54.6524 7.47958C54.6524 7.37065 54.6152 7.29803 54.4664 7.29803C53.4247 7.29803 52.383 7.29803 51.3413 7.29803C51.3041 7.29803 51.1924 7.40696 51.1924 7.44327C51.1552 7.62481 51.1924 7.80635 51.1924 7.9879C51.1924 8.09682 51.2297 8.16944 51.3785 8.16944C51.6389 8.16944 51.8993 8.16944 52.1969 8.16944C52.4202 8.16944 52.4946 8.24206 52.4574 8.45991C52.4574 9.33132 52.4574 10.2027 52.4574 11.0741C52.4574 11.1831 52.4574 11.2557 52.4946 11.3646C52.8294 11.3646 53.127 11.3646 53.4247 11.3646ZM38.6548 15.8306C38.6548 15.2133 38.6548 14.5961 38.6548 13.9788C38.6548 13.8336 38.6176 13.761 38.4687 13.761C38.2827 13.761 38.0967 13.761 37.9107 13.761C37.7619 13.761 37.6875 13.8336 37.6875 13.9788C37.6875 15.2133 37.6875 16.4115 37.6875 17.646C37.6875 17.7912 37.7247 17.8638 37.8735 17.8638C38.0595 17.8638 38.2455 17.8638 38.4315 17.8638C38.5804 17.8638 38.6176 17.7912 38.6176 17.646C38.6548 17.0651 38.6548 16.4478 38.6548 15.8306ZM50.8576 11.3646C50.8576 11.3283 50.8948 11.3283 50.8948 11.292C50.8948 10.0212 50.8948 8.75038 50.8948 7.44327C50.8948 7.29803 50.8204 7.29803 50.7088 7.29803C50.56 7.29803 50.374 7.29803 50.2251 7.29803C50.0019 7.26173 49.9647 7.37065 49.9647 7.55219C49.9647 8.71407 49.9647 9.91225 49.9647 11.0741C49.9647 11.1467 49.9647 11.2557 50.0019 11.3283C50.2996 11.3646 50.56 11.3646 50.8576 11.3646Z" fill="#2F2C2C"/>
</svg>
