<svg width="31" height="30" viewBox="0 0 31 30" fill="none" xmlns="http://www.w3.org/2000/svg">
<path d="M29.2519 19.3902C29.1531 19.2682 29.0543 19.2926 28.9307 19.3658C28.3623 19.6829 27.7692 19.9268 27.102 19.9999C26.3854 20.0731 25.6688 20.0731 24.9521 19.8536C24.186 19.6097 23.5683 19.1951 23.247 18.4146C23.0246 17.878 22.9752 17.317 23.0246 16.7317C23.074 16.2195 23.2717 15.7317 23.6177 15.3414C23.9884 14.9268 24.4579 14.7073 24.9768 14.5609C25.99 14.2682 27.0032 14.2439 28.0411 14.3414C28.2635 14.3658 28.5106 14.3902 28.7577 14.4146C28.733 14.1219 28.7577 13.8536 28.7083 13.6097C28.6836 13.4634 28.56 13.2682 28.4117 13.1951C28.1399 13.0731 27.8434 12.9512 27.5716 12.9268C26.6572 12.8536 25.7429 12.9756 24.8286 13.1463C24.4579 13.2195 24.1119 13.2926 23.7165 13.3658C23.7165 13.2682 23.6918 13.1951 23.6918 13.1463C23.6918 12.6097 23.6918 12.0487 23.6918 11.5121C23.6918 11.3414 23.7412 11.2682 23.9142 11.2439C24.8038 11.1219 25.6688 10.9268 26.5584 10.8536C27.448 10.7804 28.3376 10.8048 29.2025 11.0731C29.5732 11.1951 29.9192 11.3658 30.2898 11.5121C30.2651 11.4146 30.2404 11.2926 30.2157 11.1951C29.7462 9.51215 29.0543 7.90239 27.9669 6.51215C27.5716 5.99995 27.2256 5.46336 26.7808 4.99995C26.2371 4.43897 25.6687 3.90239 25.051 3.39019C23.9389 2.46336 22.6539 1.75605 21.3195 1.19507C19.5155 0.463364 17.6622 0.0731201 15.7099 0.0731201C14.7956 0.0731201 13.8813 0.146291 12.9669 0.292632C10.7923 0.609706 8.81538 1.41458 7.01143 2.6341C6.76431 2.80483 6.56662 2.99995 6.3195 3.17068C5.87469 3.53654 5.40517 3.85361 4.98507 4.24385C4.54026 4.68288 4.12016 5.14629 3.72477 5.6341C3.32938 6.09751 2.934 6.56093 2.63746 7.07312C2.24207 7.70727 1.89611 8.39019 1.59957 9.07312C1.30303 9.73166 1.08062 10.3902 0.833503 11.0731C0.759368 11.2439 0.808791 11.2926 1.00649 11.2682C2.21736 11.0243 3.45294 10.878 4.68853 11.0243C5.4793 11.0975 6.24536 11.2926 6.91258 11.7804C7.40681 12.1463 7.67864 12.6585 7.85162 13.2195C7.97518 13.5853 7.92576 14 7.92576 14.3902C7.92576 16.2682 7.92576 18.1463 7.95047 19.9999C7.95047 20.1707 7.87633 20.2439 7.70335 20.2439C7.43152 20.2439 7.13498 20.2195 6.86316 20.2439C6.56662 20.2682 6.29479 20.2195 6.09709 19.9756C5.99825 19.8536 5.87469 19.756 5.75113 19.6341C5.65228 19.5121 5.55344 19.5121 5.42988 19.5853C4.44141 20.1951 3.3541 20.3414 2.21736 20.1951C1.87139 20.1463 1.52543 20.0731 1.13004 19.9999C1.15476 20.0975 1.13004 20.1951 1.17947 20.2682C1.4513 20.9024 1.69841 21.5121 2.01966 22.1219C2.41505 22.9024 2.88457 23.6341 3.47765 24.2926C3.92246 24.8048 4.34256 25.3414 4.8368 25.8292C5.18276 26.1951 5.60286 26.4878 5.99825 26.8292C7.03614 27.7317 8.2223 28.3902 9.4826 28.9268C11.0147 29.5853 12.621 29.9756 14.2767 30.0975C15.6111 30.1951 16.9455 30.1463 18.28 29.9024C19.3178 29.7073 20.3063 29.4146 21.2948 29.0243C22.1103 28.6829 22.901 28.317 23.6424 27.8292C24.2355 27.439 24.8038 27 25.3722 26.5365C25.8417 26.1463 26.2865 25.7317 26.7314 25.2926C27.0773 24.9512 27.3739 24.5365 27.6704 24.1463C28.5847 22.9756 29.2767 21.7073 29.7956 20.317C29.8203 20.2439 29.7956 20.0975 29.7215 20.0243C29.5732 19.7073 29.4002 19.5609 29.2519 19.3902ZM16.5254 18.4634C16.3277 18.9512 15.9571 19.2926 15.5122 19.5609C14.8203 19.9756 14.0543 20.1219 13.2635 20.1463C11.9785 20.2195 10.6935 20.0975 9.43317 19.7073C9.26019 19.6585 9.18605 19.5853 9.18605 19.3902C9.18605 18.8292 9.18605 18.2439 9.18605 17.6829C9.18605 17.6097 9.18605 17.5365 9.18605 17.4634C9.80385 17.6097 10.3969 17.7804 10.99 17.9024C11.7314 18.0487 12.4974 18.0487 13.2388 18.0243C13.387 18.0243 13.5353 17.9756 13.6836 17.9024C14.1284 17.7317 14.3261 17.1463 14.0048 16.7804C13.906 16.6585 13.6589 16.5609 13.4859 16.5365C12.9422 16.5121 12.3986 16.5121 11.8549 16.5365C11.2618 16.5609 10.6688 16.4878 10.1498 16.2682C9.77914 16.1219 9.43317 15.878 9.23548 15.5365C8.6424 14.5365 8.59297 13.5121 8.98836 12.439C9.18605 11.9268 9.58144 11.5609 10.0757 11.2926C10.6935 10.9756 11.336 10.8292 12.0032 10.756C13.387 10.6097 14.7215 10.7804 16.0559 11.1707C16.2536 11.2195 16.3277 11.317 16.3277 11.5365C16.3277 12.0731 16.3277 12.5853 16.3277 13.1219C16.3277 13.2195 16.3277 13.2926 16.303 13.439C16.2042 13.4146 16.13 13.3902 16.0312 13.3658C14.8945 12.9512 13.733 12.7804 12.5221 12.8292C12.3492 12.8292 12.2009 12.8536 12.0279 12.878C11.9291 12.9024 11.8302 12.9268 11.7066 12.9512C11.4595 12.9756 11.163 13.2926 11.1383 13.5365C11.1136 13.9756 11.2618 14.2195 11.6078 14.2926C11.7561 14.317 11.9043 14.3414 12.0526 14.3414C12.5963 14.3414 13.1399 14.3414 13.6836 14.3414C14.2025 14.3414 14.6968 14.4146 15.1663 14.6097C16.0559 14.9512 16.5007 15.6097 16.649 16.4878C16.822 17.1707 16.7725 17.8292 16.5254 18.4634ZM22.2091 20.0731C21.3195 20.0487 20.4052 20.0975 19.5155 19.9999C18.5024 19.878 17.8846 19.1707 17.8104 18.1219C17.7363 17.3414 17.761 16.5853 17.761 15.8048C17.761 14.5609 17.761 13.3414 17.761 12.0975C17.761 11.2926 17.7363 10.4634 17.7116 9.65849C17.7116 9.43897 17.7857 9.3658 18.0081 9.3658C18.5024 9.3658 18.9966 9.3658 19.4661 9.3658C19.6391 9.3658 19.7132 9.41458 19.7379 9.58532C19.8121 9.92678 19.9109 10.2926 19.9851 10.6341C20.0098 10.7804 20.1086 10.8292 20.2569 10.8292C20.85 10.8292 21.4431 10.8292 22.0608 10.8048C22.3574 10.8048 22.3574 10.8048 22.3574 11.1219C22.3574 11.6341 22.3574 12.1463 22.3574 12.6341C22.3574 12.8292 22.308 12.9268 22.0856 12.9024C21.5913 12.878 21.0724 12.9024 20.5781 12.9024C20.3804 12.9024 20.331 12.9756 20.331 13.1463C20.331 14.439 20.331 15.7317 20.331 17.0243C20.331 17.6829 20.677 17.9999 21.3442 17.9999C21.6655 17.9999 22.0114 17.9999 22.3821 17.9999C22.3821 18.6585 22.3821 19.2682 22.3821 19.878C22.3821 19.9756 22.3574 20.0731 22.2091 20.0731Z" fill="#2F2C2C"/>
</svg>
