<svg width="65" height="24" viewBox="0 0 65 24" fill="none" xmlns="http://www.w3.org/2000/svg">
<path d="M64.2864 14.8392C64.1323 15.4827 64.0168 16.1262 63.8241 16.7698C62.861 19.836 60.8578 21.9937 57.8144 23.0915C53.7694 24.5679 49.8014 24.3029 46.1031 22.0316C43.2908 20.2903 41.6728 17.7161 41.095 14.4985C40.6327 11.9243 40.7868 9.38806 41.8269 7.0032C43.3679 3.40699 46.2187 1.24926 50.0325 0.378593C52.9989 -0.302795 55.9267 -0.0378105 58.6619 1.28711C61.7438 2.80131 63.5159 5.29973 64.1323 8.63096C64.1709 8.89594 64.0168 8.89594 63.8627 8.89594C62.7069 8.89594 61.5897 8.89594 60.434 8.89594C59.8562 8.89594 59.2783 8.89594 58.7004 8.89594C58.3923 8.89594 58.2382 8.82023 58.1226 8.5174C57.5447 7.11676 56.5816 6.09468 55.0792 5.71613C52.7292 5.0726 50.5719 5.33758 48.7998 7.15462C47.7596 8.21456 47.2973 9.57733 47.1432 11.0158C46.9506 12.4922 47.1818 13.9306 47.8367 15.2556C48.7613 17.1105 50.2637 18.284 52.344 18.5111C54.9636 18.8139 57.4677 17.7161 58.3152 14.9906C58.3537 14.877 58.5078 14.7635 58.5849 14.7635C60.434 14.7635 62.2832 14.7635 64.1323 14.7635C64.1709 14.7635 64.1709 14.8013 64.2864 14.8392Z" fill="#2F2C2C"/>
<path d="M24.6855 23.7351C24.4929 23.7351 24.3774 23.7351 24.2233 23.7351C22.4126 23.7351 20.6405 23.7351 18.8299 23.7351C18.5217 23.7351 18.3676 23.6215 18.252 23.3565C17.9053 22.5994 17.5201 21.8423 17.1734 21.0474C17.0578 20.8202 16.9422 20.7445 16.6726 20.7445C13.7447 20.7445 10.8554 20.7445 7.9276 20.7445C7.65793 20.7445 7.50383 20.8581 7.38826 21.0852C7.04154 21.8802 6.6563 22.6373 6.30959 23.4322C6.23254 23.6215 6.11697 23.7351 5.88582 23.7351C3.99815 23.7351 2.11047 23.7351 0.184269 23.7351C0.107221 23.7351 0.0686971 23.7351 -0.046875 23.6972C-0.00835098 23.5458 0.030173 23.4322 0.107221 23.3187C2.34161 18.7382 4.53748 14.1199 6.69483 9.50162C8.08169 6.51108 9.50708 3.5584 10.8939 0.567867C11.0095 0.340737 11.1251 0.227173 11.3948 0.227173C12.0111 0.265028 12.6275 0.227173 13.2439 0.227173C13.5136 0.227173 13.6292 0.302883 13.7447 0.530012C16.0176 5.33758 18.2906 10.1452 20.5635 14.9527C21.8733 17.754 23.2216 20.5174 24.5314 23.3187C24.6085 23.4701 24.647 23.5458 24.6855 23.7351ZM15.1316 15.7098C14.207 13.5899 13.2824 11.5458 12.3579 9.50162C12.3193 9.50162 12.2808 9.50162 12.2423 9.50162C11.3562 11.5458 10.4702 13.5899 9.54561 15.7098C11.4718 15.7098 13.2439 15.7098 15.1316 15.7098Z" fill="#2F2C2C"/>
<path d="M24.1451 11.5457C24.2992 11.5457 24.4533 11.5457 24.5689 11.5457C26.2639 11.5457 27.959 11.5457 29.654 11.5457C31.0024 11.5457 31.8499 10.9401 32.2352 9.69085C32.5048 8.78233 32.5048 7.91167 32.0811 7.041C31.6188 6.05678 30.8483 5.60252 29.8081 5.56466C27.0344 5.56466 24.2992 5.56466 21.5255 5.56466C21.2558 5.56466 21.1017 5.48895 20.9861 5.26183C20.2157 3.67192 19.4452 2.08201 18.6747 0.529964C18.6362 0.454255 18.6362 0.4164 18.5977 0.302835C18.7132 0.302835 18.8288 0.302835 18.9444 0.302835C22.6427 0.302835 26.3025 0.26498 30.0008 0.302835C32.3122 0.34069 34.3925 1.02208 36.049 2.72555C37.3589 4.05047 38.0523 5.67823 38.2834 7.53312C38.5531 10.0694 37.9367 12.3028 36.2031 14.2334C35.8949 14.612 35.4712 14.9148 35.0859 15.2177C34.8548 15.4069 34.8548 15.5205 35.0089 15.7476C36.5884 18.2461 38.1679 20.7823 39.7088 23.2808C39.7859 23.3943 39.8629 23.5079 39.94 23.6593C39.8244 23.6593 39.7088 23.6972 39.6318 23.6972C37.4744 23.6972 35.2786 23.6972 33.1212 23.6972C32.813 23.6972 32.6589 23.5836 32.5434 23.3565C31.3106 21.2744 30.0778 19.1924 28.845 17.0725C28.7295 16.8454 28.5754 16.7697 28.3057 16.7697C27.8434 16.8076 27.3811 16.8076 26.9574 16.7697C26.8418 16.7697 26.6492 16.6561 26.6107 16.5804C25.8016 14.9527 24.9926 13.3249 24.2222 11.6972C24.1836 11.6972 24.1836 11.6593 24.1451 11.5457Z" fill="#2F2C2C"/>
</svg>
